{"glyphs":{"0":{"ha":917,"x_min":49,"x_max":864,"o":"m 458 -8 q 298 16 369 -8 q 169 93 226 40 q 80 238 111 146 q 49 453 49 329 q 79 681 49 586 q 167 828 110 775 q 294 904 224 881 q 458 928 365 928 q 621 901 549 928 q 748 818 693 874 q 833 670 803 763 q 863 453 863 578 q 832 237 863 328 q 745 93 801 146 q 617 16 689 40 q 458 -8 546 -8 m 533 271 q 546 309 533 271 q 558 453 558 347 q 532 642 558 560 q 458 724 506 724 q 401 682 425 724 q 365 580 376 640 q 354 453 354 519 q 381 272 354 350 q 458 194 408 194 q 533 271 508 194 z "},"1":{"ha":603,"x_min":42,"x_max":517,"o":"m 517 210 q 476 49 517 97 q 354 1 436 1 q 267 18 300 1 q 216 79 233 35 q 197 199 199 124 l 194 717 q 85 741 128 717 q 42 822 42 765 q 81 898 42 868 q 192 928 121 928 q 270 927 219 928 q 342 926 321 926 q 480 892 444 926 q 515 774 515 858 l 517 210 z "},"2":{"ha":808,"x_min":44,"x_max":758,"o":"m 488 258 l 642 258 q 758 128 758 258 q 722 23 758 54 q 590 -8 685 -8 l 214 -8 q 81 17 117 -8 q 46 128 46 43 q 51 176 46 156 q 72 215 57 196 q 114 253 88 235 q 232 333 189 303 q 316 398 275 364 q 376 456 357 432 q 412 511 396 481 q 433 572 428 542 q 438 644 438 603 q 389 722 438 722 q 336 631 336 722 q 303 564 336 579 q 204 549 269 549 q 84 588 115 549 q 53 717 53 626 q 138 867 53 807 q 376 928 224 928 q 754 640 754 928 q 739 519 754 574 q 701 427 724 464 q 641 357 679 390 q 569 303 603 324 q 488 258 536 282 z "},"3":{"ha":814,"x_min":42,"x_max":767,"o":"m 442 626 q 315 694 442 694 q 244 690 289 694 q 178 685 199 685 q 78 804 78 685 q 367 928 78 928 q 647 867 554 928 q 740 707 740 806 q 621 488 740 569 q 734 398 701 444 q 767 264 767 351 q 672 67 767 143 q 417 -8 576 -8 q 130 33 217 -8 q 43 157 43 74 q 71 252 43 226 q 149 278 99 278 q 226 272 174 278 q 307 267 279 267 q 458 322 458 267 q 429 374 458 360 q 319 389 400 389 q 206 410 239 389 q 172 488 172 431 q 286 574 172 574 q 395 581 360 574 q 436 597 431 588 q 442 626 442 606 z "},"4":{"ha":944,"x_min":42,"x_max":899,"o":"m 633 1 q 514 47 551 1 q 476 204 476 92 l 219 204 q 85 247 129 204 q 42 358 42 290 q 79 489 42 432 q 301 822 178 643 q 500 928 374 928 l 621 926 q 758 892 722 926 q 794 774 794 858 l 794 407 q 876 378 854 401 q 899 303 899 354 q 875 230 899 250 q 794 206 851 210 q 754 49 794 96 q 633 1 714 1 m 475 401 l 479 697 l 293 401 l 475 401 z "},"5":{"ha":826,"x_min":58,"x_max":772,"o":"m 660 703 l 375 703 l 372 613 q 626 575 531 613 q 772 325 772 515 q 671 79 772 167 q 364 -8 569 -8 q 128 28 197 -8 q 58 143 58 65 q 154 279 58 279 q 242 264 179 279 q 332 249 306 249 q 426 265 396 249 q 457 325 457 282 q 196 403 457 403 q 100 435 124 403 q 76 563 76 467 l 76 811 q 112 898 76 869 q 236 926 147 926 l 631 926 q 719 901 696 926 q 743 803 743 876 q 724 726 743 749 q 660 703 706 703 z "},"6":{"ha":844,"x_min":46,"x_max":797,"o":"m 351 563 q 492 585 424 585 q 649 551 579 585 q 758 456 718 517 q 797 319 797 396 q 753 141 797 217 q 633 26 710 65 q 454 -14 556 -14 q 310 5 375 -14 q 202 57 246 24 q 127 132 158 90 q 79 226 96 174 q 55 328 63 278 q 47 431 47 378 q 74 635 47 544 q 156 794 100 725 q 305 902 211 864 q 526 940 399 940 q 714 892 638 940 q 790 769 790 844 q 760 685 790 722 q 681 649 731 649 q 606 671 657 649 q 515 693 556 693 q 410 656 457 693 q 351 563 363 618 m 513 299 q 494 403 513 358 q 443 449 476 449 q 388 403 408 449 q 368 299 368 357 q 388 201 368 243 q 442 158 407 158 q 495 200 478 158 q 513 299 513 242 z "},"7":{"ha":819,"x_min":40,"x_max":783,"o":"m 150 147 q 173 303 150 219 q 228 454 196 386 q 294 580 261 522 q 350 669 328 638 l 374 703 l 182 703 q 70 728 100 703 q 40 813 40 753 q 74 905 40 883 q 194 926 108 926 l 606 928 q 744 901 704 928 q 783 792 783 875 q 783 775 783 783 q 779 759 782 767 q 775 746 776 751 q 769 733 774 740 q 762 721 764 725 q 752 708 760 717 q 742 697 744 700 q 729 682 739 693 q 715 667 719 671 q 544 415 597 536 q 468 157 492 294 q 421 29 451 57 q 307 1 390 1 q 190 40 231 1 q 150 147 150 78 z "},"8":{"ha":854,"x_min":42,"x_max":804,"o":"m 424 -8 q 231 22 317 -8 q 94 115 146 53 q 42 260 42 176 q 182 485 42 410 q 88 669 88 554 q 182 860 88 790 q 425 931 276 931 q 667 860 574 931 q 761 669 761 790 q 667 485 761 554 q 804 260 804 408 q 697 63 804 135 q 424 -8 589 -8 m 494 263 q 476 358 494 317 q 425 399 458 399 q 371 357 390 399 q 351 263 351 315 q 359 199 351 229 q 384 149 367 169 q 425 129 401 129 q 477 169 460 129 q 494 263 494 208 m 492 682 q 474 758 492 725 q 426 790 457 790 q 388 772 404 790 q 365 728 372 754 q 357 672 357 701 q 375 590 357 625 q 426 556 393 556 q 475 593 458 556 q 492 682 492 631 z "},"9":{"ha":839,"x_min":46,"x_max":797,"o":"m 492 356 q 353 333 419 333 q 133 417 219 333 q 47 628 47 500 q 90 794 47 724 q 210 902 133 865 q 389 939 288 939 q 557 910 483 939 q 675 837 631 882 q 748 729 719 792 q 787 605 776 667 q 797 475 797 543 q 781 316 797 389 q 730 182 765 243 q 641 78 694 121 q 509 11 588 35 q 332 -12 431 -12 q 143 35 219 -12 q 67 157 67 82 q 97 242 67 204 q 176 279 128 279 q 251 253 200 279 q 343 226 303 226 q 408 243 376 226 q 463 290 440 260 q 492 356 485 319 m 324 619 q 342 515 324 560 q 393 469 360 469 q 433 492 415 469 q 458 549 450 515 q 467 619 467 583 q 447 722 467 678 q 393 767 428 767 q 341 724 358 767 q 324 619 324 681 z "}," ":{"ha":375,"x_min":0,"x_max":0,"o":""},"!":{"ha":485,"x_min":78,"x_max":407,"o":"m 88 96 q 131 176 88 151 q 240 201 175 201 q 406 96 406 201 q 361 17 406 44 q 240 -10 317 -10 q 128 20 168 -10 q 88 96 88 50 m 407 836 q 379 600 407 765 q 351 367 351 435 q 325 283 351 310 q 239 257 299 257 q 157 284 181 257 q 133 371 133 311 q 106 596 133 438 q 78 821 78 754 q 112 925 78 890 q 235 960 146 960 q 367 931 328 960 q 407 836 407 901 z "},"\"":{"ha":815,"x_min":74,"x_max":767,"o":"m 88 829 q 127 906 88 876 q 238 935 167 935 q 322 924 286 935 q 382 882 357 913 q 407 803 407 851 q 396 728 407 764 q 367 665 385 693 q 324 614 349 638 q 274 574 300 590 q 220 545 247 557 q 169 528 193 533 q 128 522 146 522 q 89 537 104 522 q 74 574 74 551 q 94 614 74 604 q 186 666 157 644 q 239 724 215 688 q 131 749 174 724 q 88 829 88 774 m 447 829 q 486 906 447 876 q 597 935 525 935 q 719 904 672 935 q 767 803 767 874 q 668 600 767 678 q 488 522 569 522 q 448 537 463 522 q 433 574 433 551 q 454 614 433 604 q 546 666 517 644 q 597 724 575 688 q 490 749 532 724 q 447 829 447 774 z "},"#":{"ha":976,"x_min":24,"x_max":958,"o":"m 407 378 l 383 292 l 546 292 l 569 378 l 407 378 m 854 565 q 931 541 903 565 q 958 471 958 517 q 839 374 958 374 l 781 374 l 758 297 l 800 297 q 856 286 832 297 q 892 253 879 275 q 904 203 904 232 q 785 106 904 106 l 706 106 l 697 76 q 592 -8 675 -8 q 533 3 557 -8 q 498 34 508 15 q 488 78 488 53 q 490 106 488 85 l 336 106 l 329 78 q 222 -7 306 -7 q 144 17 171 -7 q 118 79 118 40 q 121 106 118 85 q 24 199 24 111 q 144 297 24 297 l 174 297 l 196 374 l 185 374 q 72 467 72 374 q 193 565 72 565 l 250 565 l 258 596 q 297 656 271 640 q 374 671 324 671 q 439 647 411 671 q 467 588 467 624 q 464 565 467 576 l 618 565 l 626 594 q 666 655 639 639 q 743 671 693 671 q 808 647 781 671 q 836 586 836 622 q 833 565 836 576 l 854 565 z "},"$":{"ha":1000,"x_min":78,"x_max":917,"o":"m 358 949 l 360 993 q 396 1086 361 1056 q 490 1117 431 1117 q 588 1094 554 1117 q 621 1006 621 1072 l 621 949 q 817 867 740 925 q 893 749 893 808 q 884 713 893 728 q 862 692 875 699 q 833 686 849 686 q 758 712 808 686 q 647 763 708 738 q 535 789 586 789 q 453 722 453 789 q 466 683 453 701 q 508 644 479 664 q 565 608 538 624 q 642 567 593 593 q 724 522 690 542 q 874 406 831 461 q 917 278 917 350 q 626 -4 917 31 l 626 -50 q 594 -160 626 -131 q 493 -190 563 -190 q 395 -161 426 -190 q 364 -61 364 -132 l 364 10 q 214 68 281 31 q 113 147 147 106 q 79 224 79 188 q 99 276 79 254 q 158 297 119 297 q 299 260 188 297 q 478 224 410 224 q 540 267 540 224 q 535 290 540 279 q 519 310 531 300 q 492 330 507 321 q 452 353 478 339 q 401 381 426 367 q 333 417 375 394 q 253 461 292 439 q 136 572 178 504 q 94 697 94 639 q 163 858 94 790 q 358 949 231 925 z "},"%":{"ha":1240,"x_min":25,"x_max":1200,"o":"m 608 69 q 563 -1 589 21 q 493 -24 536 -24 q 367 19 426 -24 q 308 114 308 61 q 324 174 308 136 l 638 936 q 680 993 654 975 q 749 1011 706 1011 q 876 972 815 1011 q 936 882 936 933 q 925 832 936 861 l 608 69 m 238 515 q 83 565 142 515 q 25 722 25 614 q 81 886 25 838 q 238 935 138 935 q 322 923 285 935 q 388 886 360 911 q 433 819 417 861 q 449 722 449 778 q 391 565 449 614 q 238 515 333 515 m 269 722 q 269 741 269 732 q 266 759 268 750 q 261 776 264 768 q 256 789 258 783 q 248 798 253 794 q 238 801 243 801 q 213 777 222 801 q 204 722 204 753 q 213 671 204 693 q 238 649 222 649 q 262 670 254 649 q 269 722 269 692 m 989 -17 q 833 32 892 -17 q 775 189 775 81 q 832 354 775 306 q 989 403 889 403 q 1142 351 1085 403 q 1199 189 1199 299 q 1142 32 1199 81 q 989 -17 1085 -17 m 1019 189 q 1016 227 1019 210 q 1006 256 1013 244 q 989 268 999 268 q 963 244 972 268 q 954 189 954 219 q 963 138 954 160 q 989 117 972 117 q 1006 128 999 117 q 1017 155 1014 139 q 1019 189 1019 171 z "},"&":{"ha":1164,"x_min":17,"x_max":1129,"o":"m 567 214 l 396 396 q 351 361 369 383 q 332 314 332 339 q 351 253 332 279 q 401 213 369 226 q 469 200 432 200 q 567 214 522 200 m 126 733 q 174 855 126 804 q 298 928 222 906 q 471 950 374 950 q 614 935 549 950 q 725 893 679 921 q 797 824 771 865 q 822 733 822 783 q 707 524 822 604 q 856 347 778 436 q 908 458 881 399 q 941 497 921 488 q 999 506 961 506 q 1060 486 1038 506 q 1083 431 1083 467 q 1060 314 1083 383 q 1008 194 1038 244 q 1051 151 1019 174 q 1106 109 1082 128 q 1129 71 1129 90 q 1107 17 1129 43 q 1031 -10 1085 -10 q 946 1 981 -10 q 878 34 911 13 q 839 58 846 56 q 457 -10 643 -10 q 281 10 358 -10 q 155 61 203 31 q 74 133 107 92 q 29 213 42 174 q 17 292 17 253 q 70 453 17 385 q 206 556 124 522 q 126 733 126 629 m 533 735 q 527 781 533 761 q 507 813 521 801 q 474 825 493 825 q 428 799 444 825 q 413 733 413 774 q 428 660 413 692 q 474 629 444 629 q 518 660 503 629 q 533 735 533 692 z "},"'":{"ha":458,"x_min":60,"x_max":393,"o":"m 74 829 q 113 906 74 876 q 224 935 151 935 q 307 924 271 935 q 368 882 343 913 q 393 803 393 851 q 382 728 393 764 q 352 665 371 693 q 309 614 333 638 q 258 574 285 590 q 206 545 232 557 q 156 528 179 533 q 114 522 132 522 q 74 537 89 522 q 60 574 60 551 q 81 614 60 604 q 172 666 143 644 q 224 724 201 688 q 116 749 158 724 q 74 829 74 774 z "},"(":{"ha":603,"x_min":90,"x_max":517,"o":"m 421 446 q 435 253 421 351 q 468 90 450 156 q 501 -39 486 25 q 515 -137 515 -103 q 505 -183 515 -164 q 478 -209 494 -201 q 443 -217 463 -217 q 328 -167 389 -217 q 215 -33 268 -117 q 126 178 161 51 q 90 444 90 306 q 126 710 90 583 q 215 922 161 838 q 329 1056 268 1006 q 443 1106 390 1106 q 494 1085 474 1106 q 515 1025 515 1064 q 492 896 515 985 q 444 685 468 807 q 421 446 421 564 z "},")":{"ha":568,"x_min":106,"x_max":532,"o":"m 201 446 q 178 685 201 564 q 130 896 154 807 q 106 1025 106 985 q 127 1085 106 1064 q 179 1106 149 1106 q 293 1056 232 1106 q 408 922 354 1006 q 497 710 461 838 q 532 444 532 583 q 519 286 532 364 q 486 144 507 208 q 437 22 465 79 q 376 -79 408 -36 q 310 -153 344 -122 q 243 -201 276 -185 q 179 -217 210 -217 q 127 -197 149 -217 q 106 -137 106 -176 q 130 -8 106 -97 q 178 204 154 82 q 201 446 201 326 z "},"*":{"ha":789,"x_min":42,"x_max":747,"o":"m 294 1038 q 298 1090 294 1068 q 310 1128 301 1113 q 331 1153 318 1144 q 362 1167 344 1163 q 403 1171 379 1171 q 475 1136 454 1171 q 496 1025 496 1101 l 496 974 l 578 1003 q 654 1019 625 1019 q 699 1006 678 1019 q 734 965 721 992 q 747 908 747 939 q 719 853 747 876 q 633 808 692 829 l 579 789 l 642 701 q 672 624 672 657 q 638 556 672 588 q 565 525 603 525 q 478 582 519 525 l 393 704 l 307 582 q 221 525 267 525 q 149 556 183 525 q 114 622 114 588 q 144 701 114 657 l 207 790 l 156 808 q 69 853 97 829 q 42 908 42 876 q 70 988 42 956 q 135 1019 99 1019 q 213 1003 165 1019 l 294 974 l 294 1038 z "},"+":{"ha":767,"x_min":58,"x_max":704,"o":"m 557 436 q 672 409 639 436 q 704 317 704 382 q 666 238 704 260 q 543 215 628 215 l 489 215 l 489 128 q 382 3 489 3 q 267 138 267 3 l 267 215 l 183 215 q 60 322 60 215 q 87 406 60 375 q 188 436 114 436 l 267 436 l 267 501 q 294 615 267 583 q 388 647 321 647 q 447 630 425 647 q 479 578 469 613 q 489 486 489 543 l 489 436 l 557 436 z "},",":{"ha":432,"x_min":42,"x_max":375,"o":"m 56 96 q 72 150 56 126 q 123 188 89 174 q 206 201 157 201 q 328 171 281 201 q 375 68 375 140 q 354 -32 375 15 q 301 -111 333 -79 q 230 -166 268 -143 q 157 -200 192 -189 q 96 -211 122 -211 q 56 -197 71 -211 q 42 -160 42 -182 q 63 -121 42 -131 q 154 -68 125 -90 q 206 -10 183 -46 q 98 15 140 -10 q 56 96 56 40 z "},"-":{"ha":546,"x_min":49,"x_max":497,"o":"m 364 481 q 443 470 414 481 q 485 436 472 460 q 497 372 497 413 q 463 301 497 321 q 351 281 428 281 l 161 281 q 49 378 49 281 q 171 481 49 481 l 364 481 z "},".":{"ha":393,"x_min":42,"x_max":344,"o":"m 42 96 q 81 172 42 143 q 193 201 121 201 q 344 96 344 201 q 325 31 344 56 q 274 -1 306 7 q 193 -10 242 -10 q 85 15 128 -10 q 42 96 42 40 z "},"/":{"ha":758,"x_min":103,"x_max":701,"o":"m 404 861 l 690 156 q 701 106 701 126 q 640 16 701 56 q 513 -24 579 -24 q 444 -6 471 -24 q 401 51 418 13 l 119 757 q 104 815 104 794 q 163 910 104 868 q 288 953 222 953 q 357 931 331 953 q 404 861 383 908 z "},":":{"ha":414,"x_min":51,"x_max":356,"o":"m 53 94 q 92 171 53 142 q 203 200 131 200 q 354 94 354 200 q 316 12 354 35 q 203 -11 278 -11 q 95 14 138 -11 q 53 94 53 39 m 53 565 q 92 642 53 613 q 203 671 131 671 q 354 565 354 671 q 316 483 354 507 q 203 460 278 460 q 129 469 161 460 q 75 503 97 479 q 53 565 53 528 z "},";":{"ha":435,"x_min":56,"x_max":390,"o":"m 72 565 q 112 642 72 613 q 224 671 151 671 q 375 565 375 671 q 336 483 375 507 q 224 460 297 460 q 149 469 182 460 q 94 503 117 479 q 72 565 72 528 m 69 96 q 109 172 69 143 q 219 201 149 201 q 272 197 247 201 q 318 184 296 193 q 356 160 340 175 q 380 122 371 144 q 389 68 389 99 q 368 -32 389 15 q 315 -111 347 -79 q 244 -166 283 -143 q 171 -200 206 -189 q 110 -211 136 -211 q 72 -197 86 -211 q 57 -160 57 -182 q 76 -121 57 -131 q 168 -68 139 -90 q 221 -10 197 -46 l 219 -10 q 113 15 156 -10 q 69 96 69 40 z "},"<":{"ha":619,"x_min":56,"x_max":572,"o":"m 390 10 l 108 219 q 56 326 56 257 q 104 429 56 392 l 346 626 q 479 683 419 683 q 539 651 508 683 q 569 579 569 619 q 560 544 569 561 q 533 510 551 528 q 482 467 515 492 l 317 331 l 486 201 q 557 138 542 163 q 572 81 572 113 q 542 8 572 40 q 481 -24 511 -24 q 390 10 438 -24 z "},"=":{"ha":776,"x_min":31,"x_max":747,"o":"m 614 563 q 693 551 664 563 q 735 517 722 540 q 747 453 747 494 q 713 382 747 403 q 601 361 678 361 l 144 361 q 32 458 32 361 q 153 563 32 563 l 614 563 m 614 276 q 693 265 664 276 q 735 231 722 254 q 747 168 747 208 q 713 96 747 117 q 601 75 678 75 l 144 75 q 32 172 32 75 q 153 276 32 276 l 614 276 z "},">":{"ha":619,"x_min":47,"x_max":564,"o":"m 229 10 q 139 -24 182 -24 q 78 8 108 -24 q 47 81 47 40 q 63 138 47 113 q 133 201 78 163 l 303 331 l 138 467 q 69 528 89 504 q 50 579 50 553 q 81 651 50 619 q 140 683 111 683 q 274 626 200 683 l 515 429 q 564 326 564 392 q 511 219 564 257 l 229 10 z "},"?":{"ha":801,"x_min":33,"x_max":731,"o":"m 197 96 q 241 176 197 151 q 351 201 285 201 q 515 96 515 201 q 472 17 515 44 q 351 -10 428 -10 q 238 20 279 -10 q 197 96 197 50 m 731 710 q 688 531 731 619 q 586 383 646 443 q 465 286 526 324 q 361 249 403 249 q 260 319 260 249 q 289 398 260 356 q 353 476 318 440 q 417 567 388 511 q 446 679 446 622 q 424 772 446 731 q 369 814 403 814 q 333 779 333 814 q 344 747 333 772 q 354 703 354 721 q 324 645 354 658 q 235 632 294 632 q 81 682 129 632 q 33 789 33 732 q 357 960 33 960 q 635 897 539 960 q 731 710 731 835 z "},"@":{"ha":1431,"x_min":25,"x_max":1408,"o":"m 725 -256 q 418 -211 553 -256 q 198 -86 283 -167 q 69 105 113 -6 q 25 350 25 215 q 206 766 25 621 q 728 911 386 911 q 858 905 794 911 q 991 883 922 899 q 1119 845 1060 868 q 1232 785 1178 822 q 1324 701 1286 749 q 1385 588 1363 654 q 1407 444 1407 522 q 1381 290 1407 358 q 1297 167 1354 222 q 1136 82 1239 113 q 892 51 1033 51 q 794 93 818 51 q 625 44 722 44 q 478 117 536 44 q 419 315 419 189 q 477 519 419 443 q 625 594 535 594 q 793 531 715 594 q 890 586 822 586 q 985 560 951 586 q 1018 464 1018 533 l 1018 257 q 1133 411 1133 285 q 1038 626 1133 564 q 736 688 942 688 q 565 670 639 688 q 429 613 490 653 q 335 502 368 574 q 303 329 303 431 q 323 188 303 251 q 387 73 343 125 q 510 -8 431 21 q 701 -36 590 -36 q 758 -33 718 -36 q 819 -31 799 -31 q 894 -64 863 -31 q 926 -144 926 -97 q 915 -194 926 -174 q 885 -227 903 -215 q 840 -245 868 -239 q 787 -253 813 -251 q 725 -256 761 -256 m 778 213 l 778 424 q 728 456 758 456 q 693 434 708 456 q 670 381 678 413 q 663 315 663 350 q 665 277 663 296 q 673 242 668 258 q 685 212 678 225 q 703 191 693 199 q 726 183 714 183 q 778 213 758 183 z "},"A":{"ha":989,"x_min":60,"x_max":932,"o":"m 497 725 q 409 690 438 725 q 381 567 381 656 l 381 403 l 611 403 l 611 569 q 597 663 611 628 q 559 712 583 699 q 497 725 535 725 m 611 211 l 381 211 l 381 138 q 343 33 381 67 q 214 0 306 0 q 150 11 175 0 q 106 49 125 22 q 78 126 88 75 q 65 248 69 176 q 60 429 60 319 q 80 605 60 525 q 134 740 100 685 q 211 838 168 796 q 305 904 254 881 q 403 940 356 928 q 500 951 451 951 q 615 935 558 951 q 731 881 672 919 q 833 784 789 842 q 904 635 876 726 q 932 429 932 543 q 919 158 932 246 q 874 35 906 69 q 778 0 843 0 q 649 33 686 0 q 611 138 611 67 l 611 211 z "},"B":{"ha":1018,"x_min":101,"x_max":936,"o":"m 618 683 q 573 763 618 742 q 422 785 528 785 l 422 572 q 528 582 488 572 q 594 616 569 592 q 618 683 618 640 m 636 313 q 613 383 636 358 q 544 419 589 408 q 422 429 500 429 l 422 189 q 583 216 531 189 q 636 313 636 243 m 807 494 q 936 290 936 418 q 915 184 936 235 q 851 92 893 133 q 739 26 808 50 q 582 1 669 1 l 260 1 q 138 44 175 1 q 101 199 101 88 l 101 786 q 118 869 101 833 q 172 928 135 906 q 260 950 208 950 l 578 950 q 809 874 717 949 q 901 683 901 800 q 895 617 901 646 q 876 567 889 589 q 847 528 864 544 q 807 494 831 511 z "},"C":{"ha":1088,"x_min":71,"x_max":1018,"o":"m 657 690 q 633 740 657 719 q 575 761 608 761 q 465 685 508 761 q 422 514 422 610 q 450 381 422 440 q 531 288 478 322 q 653 253 583 253 q 751 273 704 253 q 828 317 799 293 q 888 362 857 342 q 943 382 919 382 q 996 358 974 382 q 1018 307 1018 333 q 1001 239 1018 278 q 946 156 983 200 q 858 76 908 113 q 734 15 808 39 q 578 -10 660 -10 q 377 23 469 -10 q 217 116 285 56 q 110 268 149 176 q 71 474 71 360 q 206 829 71 699 q 558 960 340 960 q 764 922 669 960 q 914 818 858 885 q 969 672 969 751 q 908 506 969 581 q 750 432 847 432 q 650 463 694 432 q 606 550 606 493 q 631 624 606 576 q 657 690 657 671 z "},"D":{"ha":1000,"x_min":94,"x_max":936,"o":"m 415 189 q 478 197 451 189 q 530 224 506 204 q 569 278 554 244 q 594 363 585 311 q 603 486 603 415 q 589 620 603 565 q 549 703 575 675 q 491 744 522 732 q 415 757 460 756 l 415 189 m 457 950 q 805 825 674 950 q 936 481 936 700 q 923 343 936 410 q 879 213 910 276 q 803 103 849 150 q 686 28 757 57 q 526 0 615 0 l 253 0 q 131 43 168 0 q 94 199 94 86 l 94 785 q 253 950 94 950 l 457 950 z "},"E":{"ha":933,"x_min":96,"x_max":864,"o":"m 654 564 q 758 540 728 564 q 788 460 788 517 q 752 392 788 413 q 642 372 717 372 l 417 372 l 417 225 l 718 224 q 830 201 796 224 q 864 119 864 178 q 824 26 864 53 q 704 0 785 0 l 254 0 q 134 44 172 0 q 96 199 96 88 l 96 785 q 254 951 96 951 l 704 951 q 824 926 785 951 q 864 836 864 901 q 830 751 864 775 q 718 726 796 726 l 415 726 l 415 564 l 654 564 z "},"F":{"ha":896,"x_min":85,"x_max":858,"o":"m 406 193 q 364 49 406 99 q 243 0 322 0 q 126 45 168 0 q 85 199 85 90 l 85 785 q 97 862 85 829 q 131 914 108 894 q 181 942 153 933 q 243 951 208 951 l 699 951 q 819 926 779 951 q 858 836 858 901 q 824 751 858 775 q 713 726 790 726 l 406 726 l 406 564 l 650 564 q 713 558 688 564 q 755 540 739 553 q 777 508 771 526 q 783 460 783 489 q 749 392 783 413 q 638 372 714 372 l 406 372 l 406 193 z "},"G":{"ha":1086,"x_min":71,"x_max":1018,"o":"m 628 718 q 571 761 628 761 q 471 696 513 761 q 429 478 429 631 q 477 272 429 336 q 590 207 525 207 q 628 215 611 207 q 657 240 646 224 q 668 281 668 257 q 610 293 635 281 q 575 324 586 306 q 564 365 564 343 q 590 440 564 415 q 681 465 617 465 l 849 465 q 974 431 929 465 q 1018 308 1018 396 q 896 85 1018 181 q 606 -10 774 -10 q 331 46 451 -10 q 141 212 211 101 q 71 474 71 322 q 207 829 71 699 q 568 960 343 960 q 728 947 657 960 q 845 911 799 933 q 923 858 892 889 q 967 792 954 826 q 981 719 981 757 q 972 669 981 693 q 942 620 964 644 q 876 581 921 596 q 769 565 832 565 q 653 592 678 565 q 628 718 628 619 z "},"H":{"ha":1083,"x_min":79,"x_max":1004,"o":"m 1004 208 q 964 48 1004 96 q 842 0 924 0 q 724 44 761 0 q 686 199 686 88 l 685 356 l 401 356 l 401 208 q 363 47 401 94 q 239 0 324 0 q 121 44 158 0 q 83 199 83 88 l 79 785 q 123 911 79 871 q 239 951 167 951 q 362 921 322 951 q 401 797 401 890 l 401 564 l 683 564 l 683 785 q 705 881 683 843 q 760 935 726 919 q 842 951 794 951 q 963 921 922 951 q 1004 797 1004 890 l 1004 208 z "},"I":{"ha":506,"x_min":97,"x_max":417,"o":"m 417 208 q 376 50 417 100 q 254 0 336 0 q 135 43 174 0 q 97 197 97 86 l 97 785 q 254 951 97 951 q 376 921 335 951 q 417 797 417 890 l 417 208 z "},"J":{"ha":914,"x_min":71,"x_max":831,"o":"m 369 276 q 393 213 369 236 q 446 189 417 189 q 496 208 481 189 q 511 276 511 226 l 511 785 q 548 910 511 869 q 669 951 585 951 q 788 917 744 951 q 831 797 831 882 l 831 282 q 738 60 831 129 q 467 -10 646 -10 q 361 -1 410 -10 q 275 22 313 7 q 206 56 238 36 q 153 99 175 75 q 115 148 132 122 q 90 201 99 174 q 76 252 81 228 q 71 301 71 276 q 102 428 71 394 q 225 463 133 463 q 338 436 299 463 q 378 364 378 410 q 374 319 378 350 q 369 276 369 289 z "},"K":{"ha":1001,"x_min":92,"x_max":924,"o":"m 735 457 q 864 385 806 449 q 922 224 922 322 q 908 81 922 128 q 861 17 894 35 q 760 0 828 0 q 670 15 706 0 q 618 60 635 31 q 601 138 601 90 q 597 240 601 199 q 584 305 592 281 q 561 342 576 329 q 531 358 546 354 q 492 361 517 361 l 418 361 l 418 207 q 375 48 418 96 q 249 0 332 0 q 130 45 168 0 q 92 197 92 90 l 92 776 q 124 908 92 864 q 231 951 157 951 q 302 946 274 951 q 358 926 331 940 q 398 880 385 911 q 411 800 411 849 q 410 703 411 757 q 410 628 410 650 q 419 597 410 610 q 447 577 428 585 q 493 569 465 569 q 573 617 553 569 q 593 810 593 664 q 632 917 593 882 q 757 951 671 951 q 882 915 850 951 q 914 786 914 879 q 860 549 914 633 q 735 457 807 465 z "},"L":{"ha":844,"x_min":86,"x_max":789,"o":"m 267 0 q 164 20 203 1 q 106 82 125 39 q 86 197 86 125 l 86 785 q 129 905 86 858 q 243 951 172 951 q 366 921 326 951 q 406 797 406 890 l 406 240 l 643 240 q 756 217 724 240 q 789 119 789 193 q 751 22 789 44 q 629 0 714 0 l 267 0 z "},"M":{"ha":1318,"x_min":92,"x_max":1229,"o":"m 913 508 l 739 153 q 692 90 717 108 q 632 71 667 71 q 557 102 588 71 q 478 215 526 133 l 317 508 l 317 115 q 290 28 317 56 q 208 0 263 0 q 119 27 147 0 q 92 133 92 54 l 92 739 q 140 900 92 846 q 304 954 189 954 q 379 940 347 954 q 427 906 411 925 q 458 860 443 888 l 644 453 l 842 853 q 1026 953 893 953 q 1133 931 1089 953 q 1203 862 1178 910 q 1229 742 1229 814 l 1229 138 q 1056 0 1228 0 q 953 34 993 0 q 913 144 914 68 l 913 508 z "},"N":{"ha":1074,"x_min":93,"x_max":981,"o":"m 981 132 q 944 35 981 71 q 839 0 908 0 q 803 4 821 0 q 765 19 785 8 q 729 40 744 31 q 691 70 714 50 q 655 102 668 90 q 614 140 642 114 q 574 179 586 167 l 319 419 l 319 118 q 294 25 319 50 q 213 0 268 0 q 122 28 151 0 q 93 121 93 56 l 93 792 q 133 911 93 871 q 249 951 174 951 q 331 935 300 951 q 406 878 363 919 l 757 528 l 757 831 q 787 920 757 890 q 868 950 817 950 q 954 922 928 950 q 981 832 981 894 l 981 132 z "},"O":{"ha":1118,"x_min":71,"x_max":1046,"o":"m 558 194 q 640 236 606 194 q 688 339 674 278 q 703 469 703 400 q 688 603 703 540 q 638 711 672 667 q 558 756 604 756 q 481 711 514 756 q 431 603 447 667 q 414 469 414 539 q 430 339 414 400 q 480 236 446 278 q 558 194 514 194 m 804 47 q 749 19 804 47 q 558 -8 694 -8 q 312 47 421 -8 q 138 211 203 101 q 72 469 72 321 q 208 827 72 694 q 558 960 343 960 q 910 827 774 960 q 1046 469 1046 694 q 980 211 1046 321 q 804 47 914 101 z "},"P":{"ha":972,"x_min":85,"x_max":917,"o":"m 596 622 q 586 703 596 674 q 552 749 576 733 q 499 769 528 764 q 421 774 471 774 l 421 468 q 490 475 460 468 q 544 499 519 482 q 583 547 569 515 q 596 622 596 578 m 421 208 q 379 48 421 96 q 251 0 338 0 q 125 44 165 0 q 85 199 85 88 l 85 785 q 131 910 85 869 q 251 951 176 951 l 499 951 q 665 927 589 951 q 798 859 742 903 q 885 749 854 815 q 917 603 917 683 q 860 431 917 504 q 710 322 803 358 q 500 286 617 286 l 421 286 l 421 208 z "},"Q":{"ha":1118,"x_min":71,"x_max":1046,"o":"m 931 -65 q 1011 -99 985 -68 q 1038 -201 1038 -129 q 993 -316 1038 -285 q 868 -347 949 -347 q 716 -324 788 -347 q 605 -275 644 -301 q 535 -217 565 -249 q 497 -163 514 -196 q 467 -87 479 -131 q 451 1 454 -44 q 177 156 282 33 q 72 468 72 278 q 209 826 72 694 q 561 958 346 958 q 910 826 775 958 q 1046 468 1046 694 q 951 166 1046 286 q 699 7 856 46 q 931 -65 756 -56 m 689 338 q 696 367 689 338 q 703 469 703 397 q 688 603 703 540 q 640 710 674 667 q 561 754 607 754 q 481 710 515 754 q 431 602 447 665 q 415 468 415 539 q 421 389 415 428 q 438 315 426 350 q 467 253 450 279 q 508 210 483 226 q 561 194 532 194 q 642 236 608 194 q 689 338 675 278 z "},"R":{"ha":1000,"x_min":83,"x_max":929,"o":"m 617 675 q 568 767 617 742 q 404 792 519 792 l 404 551 q 565 578 513 551 q 617 675 617 606 m 404 208 q 242 0 404 0 q 122 44 160 0 q 83 199 83 88 l 83 785 q 127 908 83 865 q 242 950 171 950 l 533 950 q 810 870 704 950 q 915 665 915 790 q 876 517 915 571 q 749 439 836 464 q 872 374 815 435 q 929 224 929 314 q 912 83 929 132 q 863 17 894 33 q 772 0 831 0 q 652 34 690 0 q 614 138 614 68 q 597 270 614 224 q 554 331 581 317 q 481 344 528 344 l 404 343 l 404 208 z "},"S":{"ha":964,"x_min":58,"x_max":897,"o":"m 475 961 q 757 893 640 961 q 874 749 874 825 q 865 713 874 728 q 842 692 856 699 q 814 686 829 686 q 739 712 789 686 q 628 763 689 738 q 515 789 567 789 q 433 722 433 789 q 447 683 433 701 q 489 644 460 664 q 546 608 518 624 q 622 567 574 593 q 704 522 671 542 q 854 406 811 461 q 897 278 897 350 q 510 -10 897 -10 q 362 6 433 -10 q 237 46 290 21 q 142 101 183 71 q 81 164 101 132 q 60 224 60 196 q 80 276 60 254 q 139 297 100 297 q 279 260 168 297 q 458 224 390 224 q 521 267 521 224 q 516 290 521 279 q 499 310 511 300 q 473 330 488 321 q 433 353 458 339 q 381 381 407 367 q 314 417 356 394 q 233 461 272 439 q 145 533 182 490 q 92 619 108 576 q 75 697 75 661 q 179 888 75 814 q 475 961 283 961 z "},"T":{"ha":1024,"x_min":68,"x_max":972,"o":"m 683 208 q 664 83 683 129 q 610 18 644 36 q 521 0 576 0 q 402 44 439 0 q 364 199 365 88 l 361 711 l 243 711 q 112 739 156 711 q 68 838 68 767 q 85 906 68 881 q 138 941 103 931 q 231 951 172 951 l 825 951 q 938 924 903 951 q 972 828 972 896 q 952 756 972 782 q 899 721 932 731 q 813 711 865 711 l 683 711 l 683 208 z "},"U":{"ha":1024,"x_min":81,"x_max":936,"o":"m 936 785 l 936 371 q 838 80 936 168 q 508 -8 740 -8 q 184 86 288 -8 q 81 371 81 181 l 81 785 q 124 905 81 858 q 235 951 168 951 q 359 921 317 951 q 401 797 401 890 l 401 344 q 416 274 403 300 q 451 237 429 247 q 508 226 474 226 q 565 235 543 226 q 598 261 588 243 q 612 297 608 279 q 615 344 615 315 l 615 799 q 627 878 615 846 q 663 925 639 910 q 713 946 688 940 q 775 951 739 951 q 896 913 856 951 q 936 785 936 874 z "},"V":{"ha":1044,"x_min":60,"x_max":971,"o":"m 517 226 q 609 263 588 226 q 631 386 631 299 q 631 578 631 428 q 632 808 632 729 q 667 916 632 882 q 789 950 703 950 q 903 912 865 950 q 956 773 940 874 q 971 467 971 672 q 951 307 971 379 q 895 184 931 235 q 815 95 860 133 q 719 35 771 57 q 618 1 668 13 q 519 -10 568 -10 q 399 5 460 -10 q 277 56 339 19 q 168 144 215 92 q 91 280 121 196 q 61 467 61 364 q 78 773 61 672 q 135 912 94 874 q 258 950 175 950 q 368 916 336 950 q 400 808 400 882 q 401 578 400 728 q 401 388 401 429 q 403 330 401 351 q 412 286 406 308 q 431 252 418 264 q 464 233 443 240 q 517 226 485 226 z "},"W":{"ha":1417,"x_min":72,"x_max":1346,"o":"m 921 218 q 996 277 975 218 q 1017 469 1017 336 l 1019 810 q 1053 917 1019 883 q 1171 951 1088 951 q 1253 935 1222 951 q 1307 869 1285 918 q 1338 738 1329 821 q 1346 517 1346 654 q 1332 364 1346 435 q 1294 240 1318 293 q 1238 145 1271 188 q 1169 75 1206 103 q 1093 28 1133 47 q 1015 2 1053 10 q 940 -6 976 -6 q 714 74 815 -6 q 488 -8 614 -8 q 379 8 433 -8 q 269 63 325 24 q 169 159 213 101 q 99 309 126 217 q 72 514 72 401 q 90 789 72 696 q 142 915 107 882 q 246 949 178 949 q 336 933 303 949 q 383 886 369 917 q 397 807 397 856 l 399 468 q 419 275 399 335 q 501 215 440 215 q 547 241 532 215 q 568 324 563 267 q 550 575 550 404 q 554 728 550 671 q 567 826 558 785 q 594 886 575 868 q 638 912 614 904 q 706 919 663 919 q 749 918 731 919 q 785 910 768 917 q 813 897 801 903 q 833 876 824 892 q 849 850 843 861 q 859 814 854 839 q 866 770 864 789 q 869 715 868 751 q 870 651 869 678 q 871 574 871 624 q 853 315 871 399 q 874 242 858 265 q 921 218 889 218 z "},"X":{"ha":1060,"x_min":75,"x_max":999,"o":"m 324 472 l 133 657 q 76 774 76 718 q 135 894 76 842 q 249 951 199 951 q 356 897 310 951 l 533 669 l 681 867 q 833 950 749 950 q 942 901 892 950 q 999 790 999 843 q 917 644 999 729 l 753 489 l 940 293 q 999 178 999 228 q 940 57 999 108 q 826 -1 876 -1 q 719 53 764 -1 l 540 286 l 393 85 q 242 0 328 0 q 133 51 185 0 q 76 161 76 108 q 157 307 76 218 l 324 472 z "},"Y":{"ha":988,"x_min":58,"x_max":936,"o":"m 653 208 q 613 48 653 96 q 489 0 572 0 q 371 44 408 0 q 332 199 333 88 l 331 424 l 117 674 q 58 789 58 740 q 117 910 58 865 q 215 951 172 951 q 322 897 275 951 l 492 700 l 633 865 q 785 950 704 950 q 878 917 844 950 q 935 807 935 860 q 915 745 935 778 q 853 661 896 713 l 653 417 l 653 208 z "},"Z":{"ha":1051,"x_min":82,"x_max":974,"o":"m 832 225 q 901 219 874 225 q 945 198 929 213 q 967 164 961 183 q 974 115 974 144 q 929 22 974 44 q 775 0 885 0 l 254 0 q 176 23 215 0 q 110 87 136 46 q 83 174 83 128 q 88 242 83 215 q 111 299 93 269 q 144 345 129 328 q 197 403 158 363 l 551 725 l 269 725 q 135 752 176 725 q 93 843 93 779 q 127 927 93 903 q 228 951 161 951 l 796 951 q 869 937 838 951 q 918 899 901 922 q 943 854 935 876 q 951 813 951 832 q 950 768 951 788 q 942 731 949 749 q 933 704 936 714 q 917 678 931 694 q 899 656 904 661 q 872 628 893 650 q 843 599 851 607 l 438 225 l 832 225 z "},"[":{"ha":664,"x_min":147,"x_max":621,"o":"m 147 -67 l 147 960 q 183 1077 147 1043 q 321 1111 219 1111 l 471 1111 q 582 1082 543 1111 q 621 1007 621 1053 q 453 901 621 901 l 453 -10 q 621 -115 621 -10 q 582 -192 621 -162 q 471 -221 543 -221 l 321 -219 q 183 -186 219 -219 q 147 -67 147 -153 z "},"\\":{"ha":758,"x_min":53,"x_max":682,"o":"m 382 69 l 65 832 q 53 882 53 861 q 114 972 53 933 q 242 1011 175 1011 q 310 993 283 1011 q 353 936 336 975 l 667 174 q 681 114 681 136 q 653 47 681 79 q 582 -4 625 15 q 497 -24 539 -24 q 428 -1 454 -24 q 382 69 401 21 z "},"]":{"ha":663,"x_min":42,"x_max":517,"o":"m 517 -67 q 502 -157 517 -125 q 450 -204 488 -189 q 343 -219 413 -219 l 193 -221 q 82 -192 121 -221 q 43 -115 43 -162 q 90 -35 43 -60 q 211 -10 138 -10 l 211 901 q 90 926 138 901 q 43 1007 43 951 q 82 1082 43 1053 q 193 1111 121 1111 l 343 1111 q 481 1077 444 1111 q 517 960 517 1043 l 517 -67 z "},"^":{"ha":667,"x_min":68,"x_max":593,"o":"m 522 372 q 593 256 593 301 q 562 188 593 217 q 493 160 531 160 q 418 203 460 160 q 397 225 411 211 q 369 254 378 246 q 351 269 361 263 q 331 275 340 275 q 312 269 322 275 q 294 256 301 263 q 273 232 288 249 q 250 207 258 215 q 169 163 208 163 q 99 190 129 163 q 69 256 69 218 q 72 277 69 267 q 78 294 75 288 q 90 313 82 301 q 101 328 97 324 q 115 344 104 332 q 128 358 125 356 q 329 471 224 471 q 414 453 374 471 q 473 418 454 435 q 522 372 492 401 z "},"_":{"ha":904,"x_min":25,"x_max":868,"o":"m 758 197 q 844 176 819 197 q 868 99 868 156 q 840 21 868 42 q 744 0 811 0 l 114 0 q 47 24 67 0 q 26 97 26 49 q 48 171 26 144 q 124 197 69 197 l 758 197 z "},"`":{"ha":515,"x_min":51,"x_max":464,"o":"m 226 1058 l 386 958 q 399 949 388 957 q 414 938 411 940 q 426 928 417 936 q 439 917 436 921 q 449 905 442 913 q 458 890 456 897 q 462 874 460 883 q 464 854 464 864 q 438 795 464 819 q 371 771 413 771 q 307 782 340 771 l 138 839 q 51 942 51 871 q 81 1033 51 990 q 160 1076 111 1076 q 226 1058 194 1076 z "},"a":{"ha":867,"x_min":58,"x_max":800,"o":"m 313 -8 q 131 81 203 -8 q 58 326 58 171 q 130 578 58 485 q 313 672 201 672 q 521 593 425 672 q 642 663 558 663 q 758 630 717 663 q 800 510 800 597 l 800 149 q 765 33 800 65 q 643 0 731 0 q 522 51 551 0 q 313 -8 433 -8 m 501 460 q 440 500 478 500 q 382 447 404 500 q 360 326 360 394 q 381 213 360 263 q 439 163 401 163 q 501 200 478 163 l 501 460 z "},"b":{"ha":874,"x_min":67,"x_max":824,"o":"m 371 606 q 569 674 463 674 q 750 582 678 674 q 822 350 822 490 q 713 85 822 181 q 428 -10 603 -10 q 241 21 321 -10 q 116 113 161 51 q 69 260 71 174 l 67 783 q 108 910 67 869 q 219 950 150 950 q 334 913 297 950 q 371 796 371 876 l 371 606 m 372 213 q 442 165 397 165 q 500 213 479 165 q 521 321 521 260 q 515 386 521 354 q 500 444 510 418 q 475 485 490 469 q 440 501 460 501 q 372 450 397 501 q 372 347 372 432 q 372 213 372 261 z "},"c":{"ha":832,"x_min":56,"x_max":776,"o":"m 475 519 q 439 551 475 551 q 392 522 413 551 q 360 449 371 493 q 349 358 349 406 q 391 246 349 289 q 506 203 433 203 q 628 219 576 203 q 678 240 649 225 q 721 256 708 256 q 753 249 740 256 q 770 232 765 242 q 775 211 775 222 q 762 164 775 192 q 721 106 749 136 q 656 49 693 75 q 565 7 619 24 q 451 -10 511 -10 q 168 83 279 -10 q 57 336 57 175 q 108 516 57 439 q 247 633 158 593 q 451 672 336 672 q 633 647 561 672 q 735 578 704 621 q 765 475 765 535 q 755 421 765 449 q 723 365 744 393 q 660 320 701 338 q 563 303 618 303 q 522 306 538 303 q 488 317 506 308 q 463 347 471 326 q 454 400 454 368 q 465 467 454 428 q 475 519 475 507 z "},"d":{"ha":868,"x_min":57,"x_max":804,"o":"m 804 208 q 767 48 804 96 q 651 0 729 0 q 529 56 563 0 q 311 -10 439 -10 q 131 80 203 -10 q 58 325 58 169 q 129 577 58 483 q 311 671 200 671 q 499 607 411 671 l 499 785 q 540 910 499 869 q 651 951 582 951 q 766 921 728 951 q 804 797 804 890 l 804 208 m 501 200 l 500 460 q 439 499 476 499 q 397 472 415 499 q 368 407 378 446 q 358 325 358 368 q 379 211 358 261 q 438 161 400 161 q 451 163 444 161 q 464 166 458 164 q 475 172 469 168 q 485 179 481 175 q 493 189 489 183 q 501 200 497 194 z "},"e":{"ha":826,"x_min":54,"x_max":775,"o":"m 446 -8 q 166 79 276 -8 q 56 318 56 167 q 165 577 56 482 q 446 672 274 672 q 684 615 608 672 q 760 457 760 557 q 755 419 760 438 q 740 384 750 401 q 712 352 729 367 q 672 326 694 338 q 619 308 650 314 q 554 301 589 301 l 358 300 q 408 230 372 256 q 500 204 444 204 q 622 219 560 204 q 680 242 649 226 q 725 257 711 257 q 762 243 749 257 q 775 208 775 229 q 753 148 775 183 q 691 77 731 113 q 586 17 651 42 q 446 -8 521 -8 m 351 389 q 456 390 447 390 q 486 415 476 390 q 493 465 493 433 q 440 553 493 553 q 402 532 421 553 q 369 473 383 511 q 351 389 356 435 z "},"f":{"ha":653,"x_min":38,"x_max":633,"o":"m 471 731 q 442 621 442 707 q 571 603 535 621 q 607 528 607 586 q 568 466 607 481 q 442 451 529 451 l 442 208 q 405 45 442 90 q 289 0 368 0 q 175 44 211 0 q 139 199 139 88 l 140 451 q 38 532 38 453 q 142 619 38 614 q 194 874 143 799 q 389 950 244 950 q 569 903 504 950 q 633 807 633 856 q 616 770 633 786 q 567 754 599 754 q 471 731 499 754 z "},"g":{"ha":867,"x_min":63,"x_max":803,"o":"m 317 -8 q 135 81 207 -8 q 63 328 63 171 q 133 579 63 486 q 315 672 204 672 q 524 594 428 672 q 643 663 560 663 q 760 629 718 663 q 803 510 803 596 l 803 256 q 785 24 803 121 q 726 -146 768 -72 q 609 -256 683 -219 q 426 -292 535 -292 q 288 -271 351 -292 q 186 -219 224 -250 q 128 -158 149 -189 q 107 -106 107 -128 q 122 -61 107 -79 q 165 -43 138 -43 q 249 -79 182 -43 q 358 -115 317 -115 q 500 31 500 -115 q 317 -8 419 -8 m 506 200 l 504 463 q 444 501 481 501 q 401 475 419 501 q 373 410 382 449 q 364 328 364 371 q 385 213 364 263 q 443 164 406 164 q 506 200 481 164 z "},"h":{"ha":867,"x_min":65,"x_max":803,"o":"m 499 372 q 438 451 499 451 q 417 449 426 451 q 401 442 408 446 q 387 430 393 438 q 376 413 381 422 q 369 392 371 404 q 367 364 367 379 l 367 211 q 330 49 367 97 q 218 1 293 1 q 104 45 140 1 q 68 200 68 89 l 65 792 q 107 918 65 878 q 218 958 149 958 q 329 928 292 958 q 367 804 367 897 l 367 603 q 617 665 469 665 q 724 631 683 665 q 783 524 764 597 q 803 331 803 450 q 801 225 803 269 q 794 144 799 181 q 782 83 790 107 q 763 43 774 60 q 734 17 751 26 q 696 4 717 8 q 646 0 675 0 q 534 28 568 0 q 500 115 500 57 l 499 372 z "},"i":{"ha":424,"x_min":60,"x_max":363,"o":"m 60 856 q 99 931 60 901 q 211 961 139 961 q 363 856 363 961 q 324 774 363 797 q 211 750 286 750 q 103 775 146 750 q 60 856 60 800 m 361 149 q 326 33 361 65 q 204 0 292 0 q 92 38 122 0 q 63 164 63 76 l 63 506 q 101 619 63 576 q 203 663 139 663 q 319 630 278 663 q 361 510 361 597 l 361 149 z "},"j":{"ha":472,"x_min":-179,"x_max":400,"o":"m 400 517 l 400 65 q 340 -187 400 -90 q 150 -283 281 -283 q -88 -239 3 -283 q -179 -144 -179 -194 q -151 -91 -179 -107 q -51 -75 -122 -75 q 10 -72 -12 -75 q 55 -55 32 -68 q 88 -12 78 -42 q 99 67 99 18 l 99 496 q 141 622 99 582 q 253 663 183 663 q 358 620 317 663 q 400 517 400 578 m 94 856 q 134 931 94 901 q 246 961 174 961 q 397 856 397 961 q 359 774 397 797 q 246 750 321 750 q 138 775 181 750 q 94 856 94 800 z "},"k":{"ha":810,"x_min":65,"x_max":764,"o":"m 419 197 l 369 197 q 328 63 369 125 q 217 0 286 0 q 102 44 139 0 q 65 199 65 88 l 65 769 q 85 866 65 829 q 135 918 104 903 q 217 936 167 933 q 332 878 303 936 q 361 679 361 821 q 349 486 361 569 q 411 456 358 456 q 456 470 444 456 q 468 529 468 485 q 502 624 468 594 q 618 653 536 653 q 734 622 704 653 q 764 508 764 590 q 713 375 764 422 q 597 328 661 328 q 713 288 663 328 q 764 169 764 249 q 735 32 764 64 q 618 0 707 0 q 502 30 536 0 q 468 124 468 60 q 463 172 468 156 q 448 192 457 188 q 419 197 439 197 z "},"l":{"ha":433,"x_min":63,"x_max":369,"o":"m 369 210 q 332 49 369 97 q 217 0 294 0 q 103 44 139 0 q 67 199 67 88 l 64 785 q 72 849 64 821 q 92 896 79 876 q 125 928 106 915 q 167 946 144 940 q 217 951 190 951 q 331 921 293 951 q 369 797 369 890 l 369 210 z "},"m":{"ha":1257,"x_min":74,"x_max":1192,"o":"m 888 367 q 825 444 888 444 q 783 413 797 444 q 769 332 769 381 q 767 210 769 258 q 758 122 765 161 q 742 61 751 83 q 715 24 732 39 q 678 5 699 10 q 625 0 657 0 q 547 14 576 0 q 504 53 517 28 q 492 115 492 78 l 492 367 q 429 444 492 444 q 388 416 404 444 q 372 342 372 388 l 372 149 q 338 33 372 65 q 215 0 303 0 q 103 38 133 0 q 74 164 74 76 l 74 506 q 112 619 74 576 q 214 663 150 663 q 358 589 328 663 q 462 643 411 628 q 581 658 513 658 q 729 569 683 658 q 743 581 736 575 q 1006 658 850 658 q 1147 583 1104 658 q 1190 332 1190 508 q 1188 210 1190 258 q 1179 122 1186 161 q 1162 61 1172 83 q 1133 24 1151 39 q 1091 5 1114 10 q 1033 0 1068 0 q 948 14 981 0 q 901 53 915 28 q 888 115 888 78 l 888 367 z "},"n":{"ha":856,"x_min":61,"x_max":794,"o":"m 490 374 q 429 451 490 451 q 381 427 400 451 q 360 363 363 403 l 360 149 q 325 32 360 64 q 203 0 290 0 q 91 38 121 0 q 61 164 61 76 l 61 506 q 99 619 61 576 q 201 663 138 663 q 290 647 254 663 q 344 594 326 632 q 608 665 453 665 q 751 588 707 665 q 794 332 794 510 q 790 190 794 244 q 777 95 786 135 q 749 36 768 56 q 703 8 729 17 q 638 0 678 0 q 526 29 560 0 q 492 115 492 58 l 490 374 z "},"o":{"ha":876,"x_min":54,"x_max":824,"o":"m 513 329 q 494 456 513 401 q 442 511 476 511 q 400 483 418 511 q 374 415 382 456 q 365 329 365 375 q 385 205 365 258 q 440 151 404 151 q 494 204 476 151 q 513 329 513 257 m 440 -10 q 245 29 332 -10 q 106 146 158 68 q 54 328 54 224 q 163 579 54 486 q 440 672 271 672 q 717 579 610 672 q 824 328 824 486 q 715 81 824 171 q 440 -10 606 -10 z "},"p":{"ha":863,"x_min":64,"x_max":814,"o":"m 371 -81 q 333 -241 371 -193 q 218 -289 296 -289 q 104 -245 140 -289 q 68 -90 68 -201 l 65 496 q 107 622 65 582 q 218 663 149 663 q 306 649 272 663 q 356 597 339 636 q 561 672 451 672 q 743 579 672 672 q 814 326 814 486 q 742 81 814 171 q 560 -8 669 -8 q 371 39 454 -8 l 371 -81 m 371 201 q 433 163 394 163 q 492 213 471 163 q 513 326 513 263 q 490 447 513 394 q 432 500 468 500 q 371 460 394 500 l 371 201 z "},"q":{"ha":869,"x_min":57,"x_max":814,"o":"m 508 60 q 310 -8 417 -8 q 129 83 201 -8 q 57 315 57 175 q 172 577 57 483 q 468 671 286 671 q 717 602 625 671 q 810 406 810 533 l 813 -118 q 771 -244 813 -204 q 660 -285 729 -285 q 546 -244 585 -285 q 507 -131 507 -203 l 508 60 m 507 453 q 440 500 483 500 q 386 453 406 500 q 367 344 367 406 q 388 219 367 274 q 442 164 408 164 q 507 215 483 164 l 507 453 z "},"r":{"ha":656,"x_min":63,"x_max":644,"o":"m 363 149 q 328 33 363 65 q 204 0 293 0 q 93 38 122 0 q 64 164 64 76 l 64 506 q 81 588 64 553 q 129 643 97 624 q 204 663 161 663 q 343 601 310 663 q 499 663 424 663 q 644 524 644 663 q 613 433 644 468 q 529 399 581 399 q 480 411 499 399 q 445 436 461 424 q 408 449 429 449 q 363 428 378 449 l 363 149 z "},"s":{"ha":781,"x_min":56,"x_max":728,"o":"m 390 672 q 606 619 519 672 q 692 504 692 567 q 676 471 692 486 q 638 456 661 456 q 592 470 617 456 q 544 501 567 485 q 486 532 522 518 q 410 546 450 546 q 356 513 356 546 q 383 475 356 489 q 465 446 411 461 q 546 417 518 431 q 689 330 650 376 q 728 207 728 283 q 707 133 728 169 q 644 63 686 96 q 531 10 603 31 q 368 -10 460 -10 q 100 72 189 -10 q 57 156 57 113 q 74 197 57 182 q 124 213 92 213 q 221 181 156 213 q 342 150 286 150 q 418 188 418 150 q 378 219 418 207 q 272 247 338 231 q 168 289 207 264 q 83 355 107 315 q 58 451 58 394 q 151 610 58 549 q 390 672 243 672 z "},"t":{"ha":696,"x_min":39,"x_max":629,"o":"m 133 297 l 133 461 q 78 473 99 463 q 48 500 57 483 q 39 542 39 517 q 135 628 39 621 l 135 757 q 211 852 135 810 q 363 894 288 894 q 422 868 408 894 q 436 789 436 842 l 438 629 l 475 629 q 580 609 551 629 q 608 536 608 589 q 600 499 608 514 q 573 475 592 483 q 528 463 554 467 q 463 460 501 460 l 438 460 l 438 307 q 440 270 438 285 q 446 247 442 256 q 458 236 450 239 q 476 233 465 233 q 504 245 493 233 q 522 272 515 257 q 538 298 528 286 q 563 310 549 310 q 612 294 594 310 q 629 257 629 279 q 615 176 629 219 q 572 93 600 133 q 495 26 544 53 q 385 0 446 0 q 190 69 247 0 q 133 297 133 139 z "},"u":{"ha":868,"x_min":63,"x_max":797,"o":"m 368 293 q 429 214 368 214 q 466 227 450 214 q 490 264 482 240 q 499 318 499 288 l 499 504 q 515 587 499 551 q 564 642 532 622 q 639 661 596 661 q 756 628 714 661 q 797 508 797 596 l 797 147 q 763 31 797 63 q 640 -1 728 -1 q 576 6 603 -1 q 534 29 550 14 q 510 69 518 44 q 390 17 453 32 q 249 1 326 1 q 107 78 150 1 q 64 332 64 156 q 68 474 64 419 q 81 569 72 529 q 109 628 90 608 q 153 656 128 647 q 221 664 179 664 q 333 635 299 664 q 367 547 367 606 l 368 293 z "},"v":{"ha":857,"x_min":61,"x_max":793,"o":"m 426 208 q 478 231 467 208 q 489 315 489 254 l 490 539 q 505 608 490 582 q 554 649 519 635 q 647 663 589 663 q 708 654 685 663 q 750 627 732 646 q 776 570 768 608 q 789 478 785 532 q 793 343 793 425 q 769 208 793 268 q 709 110 746 149 q 624 47 672 72 q 526 10 575 21 q 428 0 478 0 q 331 10 379 0 q 233 47 282 21 q 146 110 183 72 q 85 208 108 149 q 61 343 61 268 q 74 545 61 479 q 116 637 86 611 q 207 663 146 663 q 329 633 293 663 q 365 539 365 603 l 367 317 q 367 284 367 294 q 368 258 367 274 q 374 236 369 243 q 384 222 378 229 q 401 211 390 214 q 426 208 411 208 z "},"w":{"ha":1236,"x_min":60,"x_max":1179,"o":"m 819 208 q 865 226 856 208 q 874 290 874 243 l 875 539 q 911 633 875 603 q 1033 663 947 663 q 1094 654 1071 663 q 1135 627 1118 646 q 1162 570 1153 608 q 1175 478 1171 532 q 1179 342 1179 425 q 1156 208 1179 268 q 1098 110 1133 147 q 1015 47 1063 72 q 921 10 968 21 q 826 0 874 0 q 619 71 714 0 q 414 0 526 0 q 320 10 367 0 q 226 47 274 21 q 142 110 178 72 q 83 208 106 147 q 60 342 60 268 q 72 545 60 479 q 114 637 85 611 q 206 663 143 663 q 299 649 264 663 q 348 608 333 635 q 363 539 363 582 l 364 292 q 365 262 364 271 q 368 240 365 253 q 376 222 371 226 q 392 213 382 217 q 417 208 401 208 q 482 240 472 208 q 469 419 469 324 q 475 545 469 500 q 499 618 481 590 q 546 654 518 646 q 625 663 574 663 q 697 654 671 663 q 740 618 724 646 q 763 545 757 590 q 768 419 768 500 q 757 239 768 322 q 819 208 767 208 z "},"x":{"ha":836,"x_min":49,"x_max":789,"o":"m 419 138 q 401 118 417 133 q 381 97 386 103 q 362 77 376 92 q 340 56 347 63 q 318 39 332 50 q 294 23 304 28 q 271 12 283 18 q 246 3 258 6 q 221 0 233 0 q 104 50 160 0 q 49 157 49 100 q 60 188 49 171 q 95 226 72 206 q 135 263 118 247 q 180 299 153 278 q 213 325 207 319 q 181 351 201 333 q 146 381 160 368 q 114 412 132 393 q 85 448 96 431 q 67 488 75 465 q 58 533 58 510 q 104 621 58 581 q 199 661 150 661 q 250 650 225 661 q 298 619 275 639 q 340 578 321 599 q 381 531 358 558 q 419 490 404 504 q 467 542 435 504 q 519 601 499 579 q 574 642 540 622 q 639 661 607 661 q 679 653 658 661 q 717 633 700 646 q 749 603 735 619 q 772 569 764 588 q 779 532 779 550 q 771 485 779 508 q 739 435 763 463 q 705 397 715 408 q 660 355 694 385 q 626 325 626 325 q 658 299 631 319 q 703 263 686 278 q 743 226 721 247 q 777 188 765 206 q 789 157 789 171 q 733 50 789 100 q 617 0 678 0 q 588 4 603 0 q 562 13 574 8 q 535 29 550 18 q 510 47 519 40 q 485 69 501 54 q 463 91 469 85 q 440 115 457 97 q 419 138 424 133 z "},"y":{"ha":843,"x_min":63,"x_max":783,"o":"m 783 392 q 769 60 783 154 q 735 -87 758 -25 q 668 -197 711 -149 q 558 -268 625 -244 q 400 -292 492 -292 q 263 -270 326 -292 q 163 -217 200 -249 q 106 -156 126 -186 q 85 -103 85 -125 q 99 -62 85 -81 q 139 -43 114 -43 q 181 -54 157 -43 q 228 -79 206 -65 q 281 -104 250 -93 q 340 -115 311 -115 q 447 -78 415 -115 q 478 29 478 -40 q 432 13 454 19 q 389 1 410 6 q 349 -4 368 -3 q 313 -6 331 -6 q 172 40 231 -6 q 88 153 114 86 q 63 299 63 221 q 65 431 63 376 q 74 527 67 485 q 90 594 81 569 q 115 635 99 619 q 153 657 132 651 q 203 663 174 663 q 326 633 290 663 q 361 539 361 603 l 363 315 q 363 283 363 293 q 365 257 363 272 q 370 235 367 242 q 380 220 374 228 q 397 210 386 213 q 422 207 407 207 q 474 230 464 207 q 485 314 485 253 l 486 539 q 501 608 486 582 q 550 649 515 635 q 644 663 585 663 q 706 651 681 663 q 747 620 732 639 q 770 565 763 601 q 781 490 778 528 q 783 392 783 453 z "},"z":{"ha":774,"x_min":50,"x_max":731,"o":"m 628 175 q 690 164 668 175 q 721 132 713 153 q 729 75 729 111 q 698 15 729 29 q 588 0 667 0 l 178 0 q 91 33 131 0 q 51 118 51 65 q 67 209 51 176 q 136 296 82 242 l 318 488 l 217 488 q 108 508 142 488 q 75 576 75 529 q 99 645 75 628 q 197 663 122 663 l 619 663 q 701 634 671 663 q 731 556 731 606 q 718 483 731 508 q 653 399 706 458 l 443 174 l 628 175 z "},"{":{"ha":763,"x_min":90,"x_max":672,"o":"m 503 900 q 400 444 503 472 q 503 -10 503 424 q 624 -35 576 -10 q 672 -115 672 -60 q 633 -190 672 -161 q 522 -219 594 -219 l 372 -219 q 235 -186 271 -219 q 199 -67 199 -153 l 199 344 q 90 447 90 360 q 119 513 90 486 q 199 549 147 540 l 199 958 q 235 1077 199 1043 q 372 1111 271 1111 l 522 1111 q 633 1082 594 1111 q 672 1006 672 1053 q 624 925 672 950 q 503 900 576 900 z "},"|":{"ha":471,"x_min":85,"x_max":389,"o":"m 389 39 m 389 39 q 236 -101 389 -101 q 153 -90 185 -101 q 103 -50 121 -79 q 85 28 85 -21 l 85 879 q 96 937 85 913 q 128 975 107 961 q 176 996 149 989 q 236 1003 203 1003 q 278 1001 260 1003 q 314 996 296 1000 q 345 984 332 992 q 368 965 358 976 q 383 935 378 953 q 389 892 389 917 l 389 39 z "},"}":{"ha":772,"x_min":100,"x_max":683,"o":"m 269 900 q 148 925 196 900 q 100 1006 100 950 q 139 1082 100 1053 q 250 1111 178 1111 l 400 1111 q 538 1077 501 1111 q 574 958 574 1043 l 574 549 q 654 513 626 540 q 682 447 682 486 q 574 344 682 360 l 574 -67 q 559 -157 574 -125 q 507 -204 544 -189 q 400 -219 469 -219 l 250 -219 q 139 -190 178 -219 q 100 -115 100 -161 q 148 -35 100 -60 q 269 -10 196 -10 q 372 444 269 424 q 269 900 269 472 z "},"~":{"ha":660,"x_min":-64,"x_max":725,"o":"m 214 171 q 174 88 214 122 q 74 54 133 54 q -35 94 -7 54 q -62 213 -62 135 q -43 315 -62 267 q 19 395 -24 363 q 121 428 63 428 q 192 421 156 428 q 260 403 229 414 q 319 381 290 393 q 372 356 349 368 q 411 333 394 343 q 438 317 428 322 l 446 310 q 487 392 446 357 q 586 428 528 428 q 695 388 667 428 q 724 271 724 347 q 675 119 724 185 q 539 54 626 54 q 428 72 482 54 q 342 113 375 90 q 275 153 310 135 q 214 171 240 171 z "},"":{"ha":778,"x_min":360,"x_max":854,"o":"m 663 625 l 663 190 q 626 27 663 72 q 510 -18 589 -18 q 396 26 432 -18 q 360 181 360 69 l 363 635 q 419 863 364 794 q 611 932 474 932 q 790 847 726 932 q 854 674 854 763 q 837 638 854 653 q 788 622 819 622 q 747 660 768 622 q 703 699 726 699 q 671 684 679 699 q 663 625 663 669 z "},"":{"ha":969,"x_min":336,"x_max":807,"o":"m 807 529 q 766 396 807 447 q 640 344 725 344 q 575 365 600 344 q 542 410 550 386 q 524 456 535 435 q 501 476 514 476 q 465 454 472 476 q 457 378 457 432 l 336 376 q 362 503 336 440 q 435 606 388 565 q 531 667 485 650 q 653 685 576 685 q 767 642 728 685 q 807 529 807 599 z "},"":{"ha":1081,"x_min":167,"x_max":725,"o":"m 472 293 q 533 214 472 214 q 584 243 565 214 q 603 318 603 272 l 725 318 q 628 78 725 153 q 354 0 517 0 q 212 78 256 0 q 168 332 168 156 q 172 474 168 419 q 185 569 176 529 q 214 628 194 608 q 259 656 233 647 q 325 664 285 664 q 437 634 403 664 q 471 547 471 604 q 472 409 471 497 q 472 293 472 321 z "},"":{"ha":633,"x_min":185,"x_max":492,"o":"m 492 190 q 474 67 492 114 q 423 1 456 21 q 339 -19 390 -19 q 273 -10 300 -19 q 226 22 246 0 q 198 83 207 44 q 189 179 189 122 l 186 765 q 228 892 186 851 q 339 932 269 932 q 400 926 375 932 q 447 906 425 921 q 481 858 469 890 q 492 778 492 826 l 492 190 z "},"":{"ha":1081,"x_min":319,"x_max":878,"o":"m 572 372 q 511 450 572 450 q 476 437 492 450 q 451 400 460 424 q 442 347 442 376 l 321 346 q 417 586 321 511 q 692 664 528 664 q 834 586 790 664 q 878 331 878 508 q 874 188 878 243 q 860 94 869 133 q 831 35 850 54 q 787 7 813 15 q 719 -1 761 -1 q 608 28 642 -1 q 574 114 574 57 l 572 372 z "},"":{"ha":1117,"x_min":161,"x_max":765,"o":"m 415 -8 q 235 81 307 -8 q 163 326 163 171 q 233 578 163 485 q 415 672 304 672 q 529 650 474 672 q 626 592 585 628 q 700 512 668 556 q 749 423 732 468 q 765 339 765 378 q 718 151 765 231 q 592 31 671 71 q 415 -8 514 -8 m 635 326 q 626 409 635 371 q 595 474 617 447 q 543 500 574 500 q 485 447 507 500 q 464 326 464 394 q 484 213 464 263 q 543 163 504 163 q 611 211 588 163 q 635 326 635 260 z "},"":{"ha":1117,"x_min":161,"x_max":765,"o":"m 511 -8 q 334 31 413 -8 q 209 151 256 71 q 163 339 163 231 q 179 423 163 378 q 228 512 196 468 q 301 592 260 556 q 398 650 343 628 q 511 672 453 672 q 694 578 622 672 q 765 326 765 485 q 693 81 765 171 q 511 -8 621 -8 m 293 326 q 316 211 293 260 q 385 163 339 163 q 443 213 422 163 q 464 326 464 263 q 442 447 464 394 q 383 500 419 500 q 333 474 354 500 q 302 409 311 447 q 293 326 293 371 z "},"":{"ha":872,"x_min":107,"x_max":676,"o":"m 543 685 q 647 665 618 685 q 676 592 676 644 q 642 531 676 547 q 529 515 608 515 l 219 515 q 133 535 158 515 q 107 597 107 556 q 228 685 107 685 l 543 685 z "},"¡":{"ha":474,"x_min":78,"x_max":396,"o":"m 78 856 q 118 931 78 901 q 232 960 158 960 q 396 856 396 960 q 232 749 396 749 q 122 774 165 749 q 78 856 78 800 m 383 115 q 347 20 383 50 q 226 -10 311 -10 q 115 26 146 -10 q 85 131 85 61 q 113 356 85 197 q 140 581 140 514 q 160 667 140 640 q 229 693 179 693 q 304 667 281 693 q 328 585 328 642 q 356 351 328 517 q 383 115 383 186 z "},"¢":{"ha":832,"x_min":56,"x_max":776,"o":"m 475 599 q 439 631 475 631 q 392 602 413 631 q 360 530 371 574 q 349 438 349 486 q 391 326 349 369 q 506 283 433 283 q 628 299 576 283 q 678 320 649 304 q 721 336 708 336 q 762 322 749 336 q 775 292 775 308 q 717 181 775 246 q 567 88 660 117 l 567 3 q 551 -83 567 -51 q 507 -126 535 -114 q 433 -137 479 -137 q 335 -109 367 -137 q 304 -7 304 -81 l 304 90 q 124 209 190 125 q 57 417 57 293 q 123 617 57 535 q 304 733 189 700 l 306 824 q 324 894 306 865 q 369 934 342 922 q 436 946 397 946 q 533 924 500 946 q 567 835 567 901 l 567 744 q 765 554 765 710 q 755 500 765 528 q 723 445 744 472 q 660 400 701 418 q 563 382 618 382 q 522 385 538 382 q 488 397 506 388 q 463 427 471 407 q 454 479 454 447 q 465 547 454 508 q 475 599 475 586 z "},"£":{"ha":772,"x_min":56,"x_max":703,"o":"m 511 621 l 511 578 l 568 578 q 643 559 621 578 q 665 493 665 540 q 647 425 665 442 q 568 408 628 408 l 513 408 l 513 225 l 588 225 q 674 201 650 225 q 697 113 697 176 q 669 24 697 49 q 575 0 640 0 l 144 0 q 56 110 56 0 q 72 182 56 158 q 129 218 89 206 q 194 248 179 233 q 210 296 210 263 l 210 408 l 167 408 q 74 490 74 408 q 97 554 74 531 q 167 578 119 578 l 211 578 l 211 619 q 263 874 213 799 q 458 950 314 950 q 638 903 574 950 q 703 807 703 856 q 685 770 703 786 q 636 754 668 754 q 540 731 568 754 q 511 621 511 707 z "},"¤":{"ha":906,"x_min":0,"x_max":894,"o":"m 556 439 q 545 496 556 469 q 511 540 535 522 q 454 558 488 558 q 396 540 421 558 q 360 496 371 522 q 349 439 349 469 q 376 358 349 393 q 454 322 404 322 q 530 357 504 322 q 556 439 556 392 m 82 313 q 58 436 58 369 q 83 565 58 507 l 69 575 q 0 663 0 622 q 34 738 0 700 q 97 776 68 776 q 171 744 125 776 l 215 714 q 453 772 315 772 q 685 717 586 772 l 725 744 q 797 776 771 776 q 861 738 828 776 q 894 663 894 700 q 826 575 894 622 l 819 571 q 846 436 846 510 q 819 307 846 367 l 847 289 q 894 217 894 256 q 863 140 894 179 q 799 100 831 100 q 742 121 772 100 l 682 163 q 453 110 585 110 q 218 165 318 110 l 153 121 q 96 100 124 100 q 53 119 75 100 q 15 165 31 138 q 0 217 0 193 q 49 289 0 256 l 82 313 z "},"¥":{"ha":1004,"x_min":57,"x_max":935,"o":"m 747 232 q 822 216 799 232 q 844 160 844 200 q 823 105 844 119 q 747 90 801 90 l 636 90 q 489 0 603 0 q 397 21 431 0 q 346 90 363 42 l 222 90 q 129 160 129 90 q 149 214 129 196 q 222 232 168 232 l 332 232 l 332 311 l 222 311 q 129 381 129 311 q 136 419 129 404 q 164 443 143 433 q 222 453 185 453 l 306 453 l 117 674 q 58 789 58 740 q 117 910 58 865 q 215 951 172 951 q 322 897 275 951 l 492 700 l 633 865 q 785 950 704 950 q 878 917 844 950 q 935 807 935 860 q 915 745 935 778 q 853 661 896 713 l 682 453 l 747 453 q 822 437 800 453 q 844 381 844 421 q 842 356 844 367 q 835 338 840 346 q 822 324 829 329 q 803 317 815 319 q 778 313 792 314 q 747 311 765 311 l 653 311 l 653 232 l 747 232 z "},"¦":{"ha":471,"x_min":85,"x_max":389,"o":"m 389 101 q 236 -39 389 -39 q 153 -28 185 -39 q 103 13 121 -17 q 85 90 85 42 l 85 292 q 126 385 85 356 q 236 415 167 415 q 351 394 313 415 q 389 304 389 372 l 389 101 m 389 689 q 236 549 389 549 q 122 577 158 549 q 85 678 85 606 l 85 879 q 126 973 85 943 q 236 1003 167 1003 q 351 981 313 1003 q 389 892 389 960 l 389 689 z "},"§":{"ha":1111,"x_min":46,"x_max":1061,"o":"m 717 451 q 705 476 717 465 q 661 506 693 488 q 579 555 622 528 q 517 594 536 582 q 477 615 499 607 q 438 624 456 624 q 396 581 396 624 q 438 506 396 547 q 540 435 479 464 q 650 406 600 406 q 698 417 679 406 q 717 451 717 429 m 249 803 q 271 931 249 872 q 337 1038 293 990 q 453 1112 381 1085 q 622 1139 526 1139 q 896 1072 786 1139 q 1006 926 1006 1004 q 988 881 1006 897 q 947 864 969 864 q 875 890 922 864 q 769 941 828 915 q 661 967 711 967 q 581 900 581 967 q 603 852 581 875 q 656 814 626 829 q 741 770 686 799 q 835 717 796 742 q 899 676 878 690 q 949 642 919 663 q 992 608 979 621 q 1021 574 1004 594 q 1044 535 1038 554 q 1055 492 1050 517 q 1060 439 1060 468 q 1009 288 1060 353 q 897 200 958 222 q 900 156 900 179 q 888 65 900 107 q 846 -13 875 24 q 772 -76 817 -50 q 656 -118 726 -103 q 497 -133 586 -133 q 316 -110 403 -133 q 172 -51 229 -86 q 80 25 114 -15 q 46 100 46 65 q 66 152 46 131 q 126 174 86 174 q 261 137 154 174 q 433 100 368 100 q 496 143 496 100 q 488 169 496 158 q 468 190 481 181 q 431 211 456 199 q 378 237 406 224 q 306 273 351 250 q 217 322 261 296 q 128 386 163 353 q 78 460 94 419 q 61 550 61 500 q 74 629 61 592 q 103 691 86 667 q 147 738 119 715 q 197 774 175 761 q 249 803 218 788 z "},"¨":{"ha":628,"x_min":0,"x_max":625,"o":"m 335 1117 q 372 1190 335 1161 q 479 1218 410 1218 q 625 1117 625 1218 q 588 1038 625 1060 q 479 1015 550 1015 q 376 1040 417 1015 q 335 1117 335 1064 m 0 1117 q 38 1190 0 1161 q 144 1218 75 1218 q 290 1117 290 1218 q 253 1038 290 1060 q 144 1015 217 1015 q 41 1040 82 1015 q 0 1117 0 1064 z "},"©":{"ha":743,"x_min":-6,"x_max":751,"o":"m 385 813 q 391 841 385 824 q 397 864 397 858 q 376 888 397 888 q 344 859 357 888 q 331 796 331 831 q 353 735 331 758 q 415 713 376 713 q 489 721 458 713 q 516 734 500 725 q 539 743 532 743 q 569 734 558 743 q 579 713 579 725 q 524 625 579 674 q 383 576 468 576 q 215 632 281 576 q 149 783 149 688 q 214 928 149 875 q 383 982 279 982 q 569 865 569 982 q 540 795 569 828 q 449 763 511 763 q 416 765 428 763 q 394 779 404 768 q 385 813 385 790 m 168 968 q 125 930 168 968 q 82 782 82 892 q 168 596 82 672 q 376 519 254 519 q 581 596 497 519 q 665 782 665 672 q 581 968 665 892 q 376 1044 497 1044 q 168 968 254 1044 m 106 535 q 50 586 106 535 q -6 782 -6 638 q 106 1028 -6 926 q 376 1131 218 1131 q 642 1028 532 1131 q 751 782 751 926 q 642 535 751 638 q 376 433 532 433 q 106 535 218 433 z "},"ª":{"ha":867,"x_min":169,"x_max":689,"o":"m 347 479 q 220 542 271 479 q 169 714 169 606 q 219 891 169 825 q 347 957 269 957 q 493 901 426 957 q 578 950 519 950 q 660 927 631 950 q 689 843 689 904 l 689 589 q 665 508 689 531 q 578 486 640 486 q 494 521 515 486 q 347 479 432 479 m 479 808 q 436 836 463 836 q 396 799 411 836 q 381 714 381 761 q 395 635 381 669 q 436 600 410 600 q 479 626 463 600 l 479 808 z "},"«":{"ha":1110,"x_min":69,"x_max":1076,"o":"m 406 90 l 124 300 q 71 407 71 338 q 119 510 71 472 l 361 707 q 493 764 435 764 q 554 732 524 764 q 585 660 585 700 q 580 635 585 647 q 564 608 575 622 q 537 581 553 594 q 497 547 521 567 l 331 411 l 500 282 q 571 218 556 243 q 586 161 586 193 q 556 89 586 121 q 496 57 525 57 q 406 90 453 57 m 894 90 l 613 300 q 560 407 560 338 q 608 510 560 472 l 851 707 q 983 764 925 764 q 1044 732 1014 764 q 1075 660 1075 700 q 1065 625 1075 642 q 1038 590 1056 608 q 986 547 1019 572 l 821 411 l 990 282 q 1061 218 1046 243 q 1076 161 1076 193 q 1062 110 1076 135 q 1026 71 1047 85 q 985 57 1004 57 q 894 90 942 57 z "},"¬":{"ha":776,"x_min":31,"x_max":751,"o":"m 750 236 q 726 137 750 163 q 640 111 703 111 q 594 119 614 111 q 562 142 575 126 q 542 185 549 158 q 535 249 535 213 l 535 361 l 144 361 q 32 458 32 361 q 153 563 32 563 l 614 563 q 661 560 642 563 q 696 551 681 557 q 750 439 750 529 l 750 236 z "},"­":{"ha":1522,"x_min":0,"x_max":0,"o":""},"®":{"ha":763,"x_min":4,"x_max":761,"o":"m 410 833 q 418 838 410 833 q 426 867 426 843 q 412 899 426 890 q 356 907 397 907 l 356 824 q 410 833 394 824 m 356 675 q 289 589 356 589 q 240 607 256 589 q 224 671 224 625 l 224 911 q 242 962 224 944 q 289 979 260 979 l 394 979 q 508 947 465 979 q 551 863 551 915 q 483 769 551 789 q 534 743 511 768 q 557 681 557 718 q 542 607 557 625 q 493 589 528 589 q 428 646 428 589 q 418 714 428 697 q 388 731 408 731 l 356 731 l 356 675 m 178 968 q 135 930 178 968 q 92 782 92 892 q 178 596 92 672 q 386 519 264 519 q 590 596 506 519 q 675 782 675 672 q 590 968 675 892 q 386 1044 506 1044 q 178 968 264 1044 m 115 535 q 60 586 115 535 q 4 782 4 638 q 115 1028 4 926 q 386 1131 226 1131 q 651 1028 542 1131 q 761 782 761 926 q 651 535 761 638 q 386 433 542 433 q 115 535 226 433 z "},"¯":{"ha":660,"x_min":47,"x_max":608,"o":"m 47 832 q 85 922 47 893 q 182 950 124 950 l 471 950 q 578 918 547 950 q 608 829 608 886 q 573 750 608 779 q 482 721 538 721 l 201 721 q 83 744 118 721 q 47 832 47 768 z "},"°":{"ha":508,"x_min":0,"x_max":506,"o":"m 306 772 q 292 815 306 797 q 254 833 279 833 q 215 815 229 833 q 200 773 200 796 q 214 733 200 750 q 254 715 228 715 q 283 724 271 715 q 301 745 296 732 q 306 772 306 758 m 253 561 q 72 617 144 561 q 0 771 0 674 q 71 928 0 871 q 253 986 142 986 q 434 928 364 986 q 504 771 504 871 q 485 682 504 722 q 431 616 465 642 q 351 576 397 590 q 253 561 306 561 z "},"±":{"ha":767,"x_min":94,"x_max":671,"o":"m 538 615 q 640 592 611 615 q 668 508 668 568 q 634 438 668 458 q 525 418 600 418 l 476 418 l 476 340 q 382 231 476 231 q 279 349 279 231 l 279 418 l 204 418 q 94 514 94 418 q 119 588 94 561 q 208 615 143 615 l 279 615 l 279 674 q 303 776 279 747 q 386 804 328 804 q 440 788 421 804 q 468 742 460 772 q 476 661 476 711 l 476 615 l 538 615 m 575 182 q 649 160 628 182 q 671 85 671 138 q 645 21 671 39 q 564 3 619 3 l 229 3 q 128 89 128 3 q 224 182 128 182 l 575 182 z "},"²":{"ha":808,"x_min":160,"x_max":660,"o":"m 469 563 l 576 563 q 658 471 658 563 q 648 416 658 436 q 612 385 638 396 q 542 375 586 375 l 278 375 q 185 393 210 375 q 160 471 160 411 q 162 496 160 485 q 169 518 164 507 q 185 539 175 529 q 208 557 194 549 q 324 638 286 610 q 390 699 361 667 q 426 760 418 732 q 433 832 433 789 q 400 886 433 886 q 363 822 363 886 q 340 776 363 786 q 271 765 317 765 q 186 792 208 765 q 164 883 164 819 q 224 988 164 946 q 392 1031 285 1031 q 656 829 656 1031 q 645 744 656 782 q 619 680 635 706 q 576 631 603 654 q 526 593 550 607 q 469 563 503 579 z "},"³":{"ha":814,"x_min":150,"x_max":658,"o":"m 431 819 q 342 867 431 867 q 292 863 324 867 q 246 860 260 860 q 176 944 176 860 q 379 1031 176 1031 q 574 988 510 1031 q 639 876 639 944 q 556 722 639 779 q 615 683 594 701 q 647 635 636 664 q 658 565 658 607 q 592 428 658 481 q 413 375 525 375 q 212 403 272 375 q 151 490 151 432 q 171 558 151 540 q 225 575 190 575 q 280 572 243 575 q 336 568 317 568 q 442 607 442 568 q 438 628 442 619 q 422 642 433 636 q 392 651 411 649 q 346 653 374 653 q 265 667 289 653 q 242 722 242 682 q 321 782 242 782 q 399 788 374 782 q 427 799 424 793 q 431 819 431 806 z "},"´":{"ha":515,"x_min":50,"x_max":465,"o":"m 289 1058 q 356 1076 319 1076 q 434 1033 404 1076 q 464 942 464 990 q 378 839 464 872 l 208 782 q 144 771 174 771 q 95 782 117 771 q 63 812 74 793 q 51 854 51 831 q 107 943 51 904 q 129 958 107 943 l 289 1058 z "},"µ":{"ha":868,"x_min":63,"x_max":797,"o":"m 368 293 q 429 214 368 214 q 479 243 460 214 q 499 318 499 272 l 499 504 q 537 618 499 575 q 639 661 575 661 q 756 628 714 661 q 797 508 797 596 l 797 147 q 763 31 797 63 q 640 -1 728 -1 q 510 69 535 -1 q 367 -1 443 19 l 367 -122 q 336 -248 367 -210 q 221 -286 306 -286 q 111 -224 144 -286 q 72 -22 78 -161 q 64 361 64 203 q 64 435 64 408 q 66 496 64 461 q 72 549 68 531 q 84 590 76 568 q 103 624 92 613 q 131 645 115 635 q 169 660 147 656 q 221 664 192 664 q 333 635 299 664 q 367 547 367 606 q 367 410 367 499 q 368 293 368 321 z "},"¶":{"ha":1389,"x_min":29,"x_max":1364,"o":"m 493 164 q 274 205 376 164 q 100 335 171 246 q 29 544 29 424 q 155 849 29 747 q 494 950 281 950 l 1253 950 q 1341 929 1318 950 q 1364 853 1364 908 q 1331 788 1364 803 q 1222 772 1297 772 l 1222 149 q 1188 33 1222 65 q 1065 0 1153 0 q 953 38 983 0 q 924 164 924 76 l 924 772 l 792 772 l 792 149 q 757 33 792 65 q 635 0 722 0 q 523 38 553 0 q 493 164 493 76 z "},"·":{"ha":438,"x_min":61,"x_max":364,"o":"m 61 325 q 101 401 61 372 q 213 431 140 431 q 364 325 364 431 q 325 242 364 265 q 213 219 286 219 q 104 244 147 219 q 61 325 61 269 z "},"¸":{"ha":832,"x_min":190,"x_max":565,"o":"m 507 -50 q 565 -153 565 -79 q 507 -290 565 -237 q 369 -342 449 -342 q 319 -336 347 -342 q 260 -320 290 -331 q 210 -290 231 -310 q 190 -243 190 -269 q 213 -181 190 -211 q 260 -151 236 -151 q 289 -160 269 -151 q 315 -168 308 -168 q 338 -157 328 -168 q 347 -131 347 -146 q 320 -98 347 -118 q 293 -62 293 -78 q 304 -28 293 -54 q 326 19 315 -1 l 338 42 l 518 42 q 489 -32 489 -15 q 507 -50 489 -42 z "},"¹":{"ha":603,"x_min":117,"x_max":450,"o":"m 450 529 q 422 417 450 450 q 336 383 394 383 q 253 413 279 383 q 226 521 228 443 l 225 883 q 148 901 178 883 q 118 957 118 918 q 145 1010 118 990 q 224 1031 172 1031 q 277 1031 242 1031 q 328 1031 313 1031 q 403 1019 376 1031 q 440 986 429 1008 q 450 924 450 964 l 450 529 z "},"º":{"ha":876,"x_min":169,"x_max":708,"o":"m 490 711 q 478 799 490 761 q 440 838 465 838 q 402 799 417 838 q 388 711 388 760 q 401 624 388 661 q 440 586 415 586 q 478 623 465 586 q 490 711 490 660 m 632 537 q 594 505 632 537 q 440 474 556 474 q 247 537 324 474 q 169 708 169 600 q 245 885 169 819 q 440 950 321 950 q 633 885 558 950 q 708 708 708 821 q 632 537 708 600 z "},"»":{"ha":1158,"x_min":68,"x_max":1075,"o":"m 740 90 q 650 57 693 57 q 589 89 619 57 q 558 161 558 121 q 574 218 558 193 q 644 282 589 243 l 814 411 l 649 547 q 581 609 600 585 q 561 660 561 633 q 592 732 561 700 q 651 764 622 764 q 785 707 711 764 l 1026 510 q 1075 407 1075 472 q 1022 300 1075 338 l 740 90 m 250 90 q 160 57 203 57 q 100 89 131 57 q 69 161 69 121 q 85 218 69 193 q 154 282 100 243 l 325 411 l 158 547 q 90 609 110 585 q 71 660 71 633 q 85 711 71 686 q 122 750 100 736 q 163 764 143 764 q 294 707 221 764 l 536 510 q 585 407 585 472 q 532 300 585 338 l 250 90 z "},"¼":{"ha":1435,"x_min":47,"x_max":1371,"o":"m 369 546 q 342 437 369 469 q 258 404 315 404 q 200 416 222 404 q 165 458 178 428 q 153 539 153 488 l 151 889 q 47 960 47 889 q 74 1012 47 992 q 150 1032 101 1032 q 202 1031 168 1032 q 251 1031 236 1031 q 344 1008 319 1031 q 368 928 368 986 l 369 546 m 1190 24 q 1110 55 1135 24 q 1085 161 1085 86 l 910 161 q 820 190 850 161 q 790 265 790 219 q 815 354 790 315 q 965 579 882 458 q 1100 651 1014 651 l 1182 650 q 1275 627 1250 650 q 1300 547 1300 604 l 1300 299 q 1355 279 1340 296 q 1369 228 1369 263 q 1353 179 1369 193 q 1300 163 1338 165 q 1273 56 1300 88 q 1190 24 1246 24 m 1083 294 l 1086 494 l 960 294 l 1083 294 m 489 90 q 480 76 488 88 q 471 63 472 65 q 463 53 469 61 q 453 42 457 44 q 444 35 450 40 q 434 29 439 31 q 422 26 429 28 q 407 25 415 25 q 346 38 376 25 q 296 74 315 51 q 276 122 276 97 q 286 164 276 149 l 797 913 q 833 953 818 942 q 876 965 849 965 q 938 953 907 965 q 990 919 969 940 q 1011 874 1011 897 q 1003 839 1011 850 l 489 90 z "},"½":{"ha":1504,"x_min":47,"x_max":1364,"o":"m 1179 183 l 1285 183 q 1364 94 1364 183 q 1339 24 1364 44 q 1250 3 1314 3 l 994 3 q 905 20 929 3 q 881 94 881 38 q 891 142 881 124 q 928 179 901 161 q 1107 319 1068 274 q 1146 444 1146 365 q 1114 497 1146 497 q 1078 436 1078 497 q 1065 399 1078 411 q 1034 383 1051 386 q 989 379 1017 379 q 907 406 928 379 q 886 494 886 432 q 944 596 886 556 q 1106 636 1001 636 q 1361 442 1361 636 q 1347 344 1361 386 q 1305 272 1333 301 q 1249 223 1276 242 q 1179 183 1222 204 m 369 546 q 342 437 369 469 q 258 404 315 404 q 200 416 222 404 q 165 458 178 428 q 153 539 153 488 l 151 889 q 47 960 47 889 q 74 1012 47 992 q 150 1032 101 1032 q 202 1031 168 1032 q 251 1031 236 1031 q 344 1008 319 1031 q 368 928 368 986 l 369 546 m 489 90 q 480 76 488 88 q 471 63 472 65 q 463 53 469 61 q 453 42 457 44 q 444 35 450 40 q 434 29 439 31 q 422 26 429 28 q 407 25 415 25 q 346 38 376 25 q 296 74 315 51 q 276 122 276 97 q 286 164 276 149 l 797 913 q 833 953 818 942 q 876 965 849 965 q 938 953 907 965 q 990 919 969 940 q 1011 874 1011 897 q 1003 839 1011 850 l 489 90 z "},"¾":{"ha":1435,"x_min":17,"x_max":1404,"o":"m 288 818 q 201 864 288 864 q 153 860 183 864 q 108 857 124 857 q 42 939 42 857 q 238 1022 42 1022 q 427 981 364 1022 q 490 872 490 939 q 408 724 490 779 q 485 663 464 694 q 507 572 507 632 q 443 439 507 490 q 271 388 379 388 q 76 416 135 388 q 18 500 18 444 q 37 565 18 547 q 89 582 56 582 q 142 578 106 582 q 196 575 178 575 q 299 613 299 575 q 279 647 299 638 q 206 657 260 657 q 128 671 150 657 q 106 724 106 685 q 182 782 106 782 q 256 787 232 782 q 284 798 281 792 q 288 818 288 804 m 1224 -6 q 1163 8 1186 -6 q 1128 51 1140 21 q 1117 132 1117 81 l 943 132 q 889 140 913 132 q 851 163 865 149 q 829 196 836 178 q 822 236 822 214 q 849 325 822 286 q 999 550 915 429 q 1133 622 1047 622 l 1215 621 q 1308 598 1283 621 q 1332 518 1332 575 l 1332 269 q 1388 249 1372 265 q 1403 199 1403 233 q 1395 161 1403 175 q 1373 141 1388 147 q 1332 133 1358 135 q 1305 26 1332 58 q 1224 -6 1278 -6 m 1117 265 l 1119 465 l 993 265 l 1117 265 m 561 90 q 552 76 560 88 q 542 63 544 65 q 534 53 540 61 q 525 42 528 44 q 516 35 522 40 q 505 29 510 31 q 493 26 500 28 q 479 25 486 25 q 390 55 432 25 q 347 122 347 85 q 358 164 347 149 l 869 913 q 892 942 883 932 q 915 958 900 951 q 949 965 929 965 q 1040 938 996 965 q 1083 874 1083 910 q 1075 839 1083 850 l 561 90 z "},"¿":{"ha":810,"x_min":53,"x_max":750,"o":"m 585 590 q 544 666 585 636 q 432 696 504 696 q 345 684 382 696 q 288 649 308 672 q 267 590 267 625 q 432 485 267 485 q 541 509 497 485 q 585 590 585 533 m 53 -24 q 149 -211 53 -149 q 425 -274 244 -274 q 672 -228 593 -274 q 750 -103 750 -183 q 740 -54 750 -79 q 708 -3 729 -29 q 644 38 686 22 q 547 54 603 54 q 458 40 488 54 q 428 -17 428 26 q 439 -60 428 -35 q 450 -93 450 -86 q 414 -128 450 -128 q 359 -87 381 -128 q 338 7 338 -46 q 357 99 338 54 q 403 176 376 143 q 458 241 431 210 q 504 304 485 272 q 524 367 524 336 q 422 439 524 439 q 318 401 381 439 q 197 303 256 364 q 95 154 138 243 q 53 -24 53 65 z "},"À":{"ha":989,"x_min":60,"x_max":932,"o":"m 497 725 q 409 690 438 725 q 381 567 381 656 l 381 403 l 611 403 l 611 569 q 583 690 611 656 q 497 725 554 725 m 611 211 l 381 211 l 381 138 q 343 33 381 67 q 214 0 306 0 q 150 11 175 0 q 106 49 125 22 q 78 126 88 75 q 65 248 69 176 q 60 429 60 319 q 75 582 60 511 q 115 706 90 653 q 176 801 140 758 q 250 871 211 843 q 333 917 289 899 q 418 944 376 936 q 500 951 460 951 q 615 935 558 951 q 731 881 672 919 q 833 784 789 842 q 904 635 876 726 q 932 429 932 543 q 929 274 932 338 q 919 160 926 210 q 902 81 913 110 q 874 33 892 51 q 833 7 856 14 q 778 0 810 0 q 679 16 717 0 q 626 61 642 32 q 611 138 611 90 l 611 211 m 396 1339 l 571 1228 q 579 1222 574 1226 q 609 1202 599 1210 q 633 1181 619 1194 q 652 1151 646 1167 q 658 1114 658 1135 q 630 1049 658 1075 q 554 1022 601 1022 q 485 1035 522 1022 l 297 1097 q 201 1211 201 1133 q 235 1311 201 1264 q 322 1358 268 1358 q 396 1339 363 1358 z "},"Á":{"ha":989,"x_min":60,"x_max":932,"o":"m 497 725 q 409 690 438 725 q 381 567 381 656 l 381 403 l 611 403 l 611 569 q 583 690 611 656 q 497 725 554 725 m 611 211 l 381 211 l 381 138 q 343 33 381 67 q 214 0 306 0 q 150 11 175 0 q 106 49 125 22 q 78 126 88 75 q 65 248 69 176 q 60 429 60 319 q 75 582 60 511 q 115 706 90 653 q 176 801 140 758 q 250 871 211 843 q 333 917 289 899 q 418 944 376 936 q 500 951 460 951 q 615 935 558 951 q 731 881 672 919 q 833 784 789 842 q 904 635 876 726 q 932 429 932 543 q 929 274 932 338 q 919 160 926 210 q 902 81 913 110 q 874 33 892 51 q 833 7 856 14 q 778 0 810 0 q 679 16 717 0 q 626 61 642 32 q 611 138 611 90 l 611 211 m 606 1357 q 678 1376 638 1376 q 765 1329 732 1376 q 799 1229 799 1282 q 703 1115 799 1151 l 517 1053 q 446 1040 478 1040 q 372 1067 400 1040 q 343 1132 343 1093 q 356 1181 343 1158 q 381 1213 368 1203 q 421 1240 394 1224 q 429 1246 426 1244 l 606 1357 z "},"Â":{"ha":989,"x_min":60,"x_max":932,"o":"m 497 725 q 409 690 438 725 q 381 567 381 656 l 381 403 l 611 403 l 611 569 q 583 690 611 656 q 497 725 554 725 m 611 211 l 381 211 l 381 138 q 343 33 381 67 q 214 0 306 0 q 150 11 175 0 q 106 49 125 22 q 78 126 88 75 q 65 248 69 176 q 60 429 60 319 q 75 582 60 511 q 115 706 90 653 q 176 801 140 758 q 250 871 211 843 q 333 917 289 899 q 418 944 376 936 q 500 951 460 951 q 615 935 558 951 q 731 881 672 919 q 833 784 789 842 q 904 635 876 726 q 932 429 932 543 q 929 274 932 338 q 919 160 926 210 q 902 81 913 110 q 874 33 892 51 q 833 7 856 14 q 778 0 810 0 q 679 16 717 0 q 626 61 642 32 q 611 138 611 90 l 611 211 m 703 1258 q 776 1136 776 1183 q 744 1066 776 1096 q 672 1036 711 1036 q 593 1081 636 1036 q 555 1124 576 1097 q 523 1160 533 1150 q 501 1169 513 1169 q 478 1158 490 1169 q 447 1122 465 1146 q 417 1085 429 1097 q 332 1039 372 1039 q 278 1052 303 1039 q 240 1088 254 1065 q 226 1136 226 1110 q 228 1155 226 1146 q 233 1172 229 1164 q 242 1188 238 1181 q 253 1203 246 1194 q 263 1217 260 1213 q 275 1231 267 1222 q 288 1244 283 1240 q 500 1363 389 1363 q 565 1353 535 1363 q 623 1326 596 1344 q 665 1294 650 1307 q 703 1258 679 1282 z "},"Ã":{"ha":989,"x_min":60,"x_max":932,"o":"m 497 725 q 409 690 438 725 q 381 567 381 656 l 381 403 l 611 403 l 611 569 q 583 690 611 656 q 497 725 554 725 m 611 211 l 381 211 l 381 138 q 343 33 381 67 q 214 0 306 0 q 150 11 175 0 q 106 49 125 22 q 78 126 88 75 q 65 248 69 176 q 60 429 60 319 q 75 582 60 511 q 115 706 90 653 q 176 801 140 758 q 250 871 211 843 q 333 917 289 899 q 418 944 376 936 q 500 951 460 951 q 615 935 558 951 q 731 881 672 919 q 833 784 789 842 q 904 635 876 726 q 932 429 932 543 q 929 274 932 338 q 919 160 926 210 q 902 81 913 110 q 874 33 892 51 q 833 7 856 14 q 778 0 810 0 q 679 16 717 0 q 626 61 642 32 q 611 138 611 90 l 611 211 m 422 1126 q 392 1065 422 1090 q 321 1040 363 1040 q 269 1049 290 1040 q 238 1074 249 1057 q 224 1109 228 1090 q 221 1156 221 1128 q 256 1265 221 1218 q 354 1311 292 1311 q 590 1226 468 1311 q 620 1286 590 1261 q 693 1311 650 1311 q 772 1283 751 1311 q 793 1197 793 1254 q 758 1088 793 1136 q 658 1040 722 1040 q 578 1053 617 1040 q 515 1083 539 1067 q 466 1113 492 1099 q 422 1126 440 1126 z "},"Ä":{"ha":989,"x_min":60,"x_max":932,"o":"m 497 725 q 409 690 438 725 q 381 567 381 656 l 381 403 l 611 403 l 611 569 q 583 690 611 656 q 497 725 554 725 m 611 211 l 381 211 l 381 138 q 343 33 381 67 q 214 0 306 0 q 150 11 175 0 q 106 49 125 22 q 78 126 88 75 q 65 248 69 176 q 60 429 60 319 q 75 582 60 511 q 115 706 90 653 q 176 801 140 758 q 250 871 211 843 q 333 917 289 899 q 418 944 376 936 q 500 951 460 951 q 615 935 558 951 q 731 881 672 919 q 833 784 789 842 q 904 635 876 726 q 932 429 932 543 q 929 274 932 338 q 919 160 926 210 q 902 81 913 110 q 874 33 892 51 q 833 7 856 14 q 778 0 810 0 q 679 16 717 0 q 626 61 642 32 q 611 138 611 90 l 611 211 m 531 1143 q 568 1216 531 1188 q 675 1244 606 1244 q 821 1143 821 1244 q 784 1064 821 1086 q 675 1042 747 1042 q 572 1066 613 1042 q 531 1143 531 1090 m 196 1143 q 234 1216 196 1188 q 340 1244 272 1244 q 486 1143 486 1244 q 449 1064 486 1086 q 340 1042 413 1042 q 237 1066 278 1042 q 196 1143 196 1090 z "},"Å":{"ha":989,"x_min":60,"x_max":932,"o":"m 497 725 q 409 690 438 725 q 381 567 381 656 l 381 403 l 611 403 l 611 569 q 583 690 611 656 q 497 725 554 725 m 611 211 l 381 211 l 381 138 q 343 33 381 67 q 214 0 306 0 q 150 11 175 0 q 106 49 125 22 q 78 126 88 75 q 65 248 69 176 q 60 429 60 319 q 75 582 60 511 q 115 706 90 653 q 176 801 140 758 q 250 871 211 843 q 333 917 289 899 q 418 944 376 936 q 500 951 460 951 q 615 935 558 951 q 731 881 672 919 q 833 784 789 842 q 904 635 876 726 q 932 429 932 543 q 929 274 932 338 q 919 160 926 210 q 902 81 913 110 q 874 33 892 51 q 833 7 856 14 q 778 0 810 0 q 679 16 717 0 q 626 61 642 32 q 611 138 611 90 l 611 211 m 554 1221 q 543 1272 554 1250 q 511 1294 532 1294 q 478 1272 490 1294 q 467 1222 467 1250 q 478 1172 467 1193 q 511 1150 489 1150 q 535 1160 525 1150 q 550 1187 546 1171 q 554 1221 554 1203 m 673 1081 q 641 1056 673 1081 q 510 1031 608 1031 q 347 1081 413 1031 q 282 1219 282 1132 q 346 1360 282 1308 q 510 1413 410 1413 q 674 1360 611 1413 q 738 1219 738 1308 q 673 1081 738 1132 z "},"Æ":{"ha":1308,"x_min":65,"x_max":1283,"o":"m 565 217 l 376 218 l 376 103 q 337 25 374 50 q 219 0 300 0 q 99 44 133 0 q 65 217 65 89 q 75 429 65 299 q 116 633 85 543 q 194 783 147 724 q 306 880 242 842 q 438 935 369 918 q 588 951 507 951 l 1124 951 q 1244 926 1204 951 q 1283 836 1283 900 q 1249 751 1283 775 q 1138 726 1215 726 l 883 726 l 883 564 l 1074 564 q 1177 540 1147 564 q 1207 460 1207 517 q 1198 419 1207 436 q 1171 392 1189 403 q 1126 377 1153 382 q 1061 372 1099 372 l 885 372 l 885 225 l 1138 224 q 1249 201 1215 224 q 1283 119 1283 178 q 1244 26 1283 53 q 1124 0 1204 0 l 724 0 l 722 0 q 603 48 640 0 q 565 217 567 96 m 568 396 l 567 724 q 463 688 507 724 q 408 565 418 653 q 394 396 401 511 l 568 396 z "},"Ç":{"ha":1088,"x_min":71,"x_max":1018,"o":"m 664 -90 q 721 -192 721 -119 q 663 -328 721 -276 q 526 -381 606 -381 q 474 -376 503 -381 q 416 -360 446 -371 q 367 -328 386 -349 q 347 -283 347 -308 q 369 -221 347 -250 q 415 -192 392 -192 q 435 -196 424 -192 q 456 -203 446 -200 q 472 -207 465 -207 q 494 -197 485 -207 q 504 -171 504 -186 q 477 -137 504 -157 q 450 -103 450 -117 q 490 -3 450 -83 q 186 147 301 21 q 71 474 71 272 q 206 829 71 699 q 558 960 340 960 q 764 922 669 960 q 914 818 858 885 q 969 672 969 751 q 944 560 969 614 q 867 469 918 506 q 750 432 815 432 q 650 463 694 432 q 606 550 606 493 q 631 624 606 576 q 657 690 657 671 q 633 740 657 719 q 575 761 608 761 q 465 685 508 761 q 422 514 422 610 q 485 327 422 401 q 653 253 549 253 q 751 273 704 253 q 828 317 799 293 q 888 362 857 342 q 943 382 919 382 q 996 358 974 382 q 1018 307 1018 333 q 1004 249 1018 282 q 961 176 990 215 q 892 103 932 138 q 795 40 853 68 q 672 0 738 11 q 646 -72 646 -56 q 664 -90 646 -81 z "},"È":{"ha":933,"x_min":96,"x_max":864,"o":"m 654 564 q 758 540 728 564 q 788 460 788 517 q 772 409 788 428 q 724 381 756 390 q 642 372 692 372 l 417 372 l 417 225 l 718 224 q 830 201 796 224 q 864 119 864 178 q 824 26 864 53 q 704 0 785 0 l 254 0 q 134 44 172 0 q 96 199 96 88 l 96 785 q 254 951 96 951 l 704 951 q 790 942 757 951 q 844 906 824 932 q 864 836 864 881 q 830 751 864 775 q 718 726 796 726 l 415 726 l 415 564 l 654 564 m 381 1339 l 556 1228 q 564 1222 558 1226 q 594 1202 583 1210 q 617 1181 604 1194 q 637 1151 631 1167 q 643 1114 643 1135 q 614 1049 643 1075 q 539 1022 585 1022 q 469 1035 507 1022 l 282 1097 q 186 1211 186 1133 q 219 1311 186 1264 q 307 1358 253 1358 q 381 1339 347 1358 z "},"É":{"ha":933,"x_min":96,"x_max":864,"o":"m 654 564 q 758 540 728 564 q 788 460 788 517 q 772 409 788 428 q 724 381 756 390 q 642 372 692 372 l 417 372 l 417 225 l 718 224 q 830 201 796 224 q 864 119 864 178 q 824 26 864 53 q 704 0 785 0 l 254 0 q 134 44 172 0 q 96 199 96 88 l 96 785 q 254 951 96 951 l 704 951 q 790 942 757 951 q 844 906 824 932 q 864 836 864 881 q 830 751 864 775 q 718 726 796 726 l 415 726 l 415 564 l 654 564 m 536 1357 q 610 1376 569 1376 q 697 1329 664 1376 q 731 1229 731 1282 q 635 1115 731 1151 l 447 1053 q 378 1040 410 1040 q 323 1053 347 1040 q 286 1086 299 1065 q 274 1132 274 1107 q 287 1181 274 1158 q 313 1213 300 1203 q 353 1240 326 1224 q 360 1246 358 1244 l 536 1357 z "},"Ê":{"ha":933,"x_min":96,"x_max":864,"o":"m 654 564 q 758 540 728 564 q 788 460 788 517 q 772 409 788 428 q 724 381 756 390 q 642 372 692 372 l 417 372 l 417 225 l 718 224 q 830 201 796 224 q 864 119 864 178 q 824 26 864 53 q 704 0 785 0 l 254 0 q 134 44 172 0 q 96 199 96 88 l 96 785 q 254 951 96 951 l 704 951 q 790 942 757 951 q 844 906 824 932 q 864 836 864 881 q 830 751 864 775 q 718 726 796 726 l 415 726 l 415 564 l 654 564 m 678 1258 q 751 1136 751 1183 q 719 1066 751 1096 q 647 1036 686 1036 q 568 1081 611 1036 q 530 1124 551 1097 q 498 1160 508 1150 q 476 1169 488 1169 q 452 1158 464 1169 q 422 1122 440 1146 q 392 1085 404 1097 q 307 1039 347 1039 q 253 1052 278 1039 q 215 1088 229 1065 q 201 1136 201 1110 q 203 1155 201 1146 q 208 1172 204 1164 q 216 1188 213 1181 q 226 1203 219 1194 q 238 1217 233 1213 q 250 1231 242 1222 q 263 1244 258 1240 q 475 1363 364 1363 q 540 1353 510 1363 q 598 1326 571 1344 q 640 1294 625 1307 q 678 1258 654 1282 z "},"Ë":{"ha":933,"x_min":96,"x_max":864,"o":"m 654 564 q 758 540 728 564 q 788 460 788 517 q 772 409 788 428 q 724 381 756 390 q 642 372 692 372 l 417 372 l 417 225 l 718 224 q 830 201 796 224 q 864 119 864 178 q 824 26 864 53 q 704 0 785 0 l 254 0 q 134 44 172 0 q 96 199 96 88 l 96 785 q 254 951 96 951 l 704 951 q 790 942 757 951 q 844 906 824 932 q 864 836 864 881 q 830 751 864 775 q 718 726 796 726 l 415 726 l 415 564 l 654 564 m 493 1147 q 531 1220 493 1192 q 638 1249 568 1249 q 783 1147 783 1249 q 746 1068 783 1090 q 638 1046 708 1046 q 534 1070 575 1046 q 493 1147 493 1094 m 158 1147 q 196 1220 158 1192 q 303 1249 233 1249 q 449 1147 449 1249 q 411 1068 449 1090 q 303 1046 374 1046 q 199 1070 240 1046 q 158 1147 158 1094 z "},"Ì":{"ha":506,"x_min":-36,"x_max":421,"o":"m 417 208 q 376 50 417 100 q 254 0 336 0 q 167 17 200 0 q 116 78 135 35 q 97 197 97 122 l 97 785 q 254 951 97 951 q 376 921 335 951 q 417 797 417 890 l 417 208 m 158 1339 l 333 1228 q 342 1222 336 1226 q 381 1195 368 1206 q 408 1163 394 1185 q 421 1114 421 1140 q 392 1049 421 1075 q 317 1022 364 1022 q 247 1035 285 1022 l 60 1097 q -36 1211 -36 1133 q -3 1311 -36 1264 q 85 1358 31 1358 q 158 1339 125 1358 z "},"Í":{"ha":506,"x_min":86,"x_max":543,"o":"m 417 208 q 376 50 417 100 q 254 0 336 0 q 167 17 200 0 q 116 78 135 35 q 97 197 97 122 l 97 785 q 254 951 97 951 q 376 921 335 951 q 417 797 417 890 l 417 208 m 349 1357 q 422 1376 382 1376 q 510 1329 476 1376 q 543 1229 543 1282 q 447 1115 543 1151 l 260 1053 q 190 1040 222 1040 q 135 1053 160 1040 q 99 1086 111 1065 q 86 1132 86 1107 q 99 1181 86 1158 q 126 1213 113 1203 q 165 1240 139 1224 q 174 1246 171 1244 l 349 1357 z "},"Î":{"ha":506,"x_min":-10,"x_max":543,"o":"m 417 208 q 376 50 417 100 q 254 0 336 0 q 167 17 200 0 q 116 78 135 35 q 97 197 97 122 l 97 785 q 254 951 97 951 q 376 921 335 951 q 417 797 417 890 l 417 208 m 468 1258 q 543 1136 543 1183 q 510 1066 543 1096 q 438 1036 476 1036 q 358 1081 401 1036 q 320 1124 342 1097 q 288 1160 299 1150 q 267 1169 278 1169 q 243 1158 256 1169 q 213 1122 231 1146 q 182 1085 194 1097 q 97 1039 138 1039 q 44 1052 68 1039 q 6 1088 19 1065 q -8 1136 -8 1110 q -6 1158 -8 1147 q 1 1177 -3 1169 q 13 1196 4 1185 q 24 1212 21 1207 q 39 1229 28 1217 q 53 1244 50 1242 q 265 1363 154 1363 q 331 1353 300 1363 q 388 1326 361 1344 q 430 1294 415 1307 q 468 1258 444 1282 z "},"Ï":{"ha":506,"x_min":-40,"x_max":585,"o":"m 417 208 q 376 50 417 100 q 254 0 336 0 q 167 17 200 0 q 116 78 135 35 q 97 197 97 122 l 97 785 q 254 951 97 951 q 376 921 335 951 q 417 797 417 890 l 417 208 m 294 1146 q 332 1219 294 1190 q 439 1247 369 1247 q 585 1146 585 1247 q 547 1067 585 1089 q 439 1044 510 1044 q 335 1069 376 1044 q 294 1146 294 1093 m -40 1146 q -3 1219 -40 1190 q 104 1247 35 1247 q 250 1146 250 1247 q 213 1067 250 1089 q 104 1044 176 1044 q 1 1069 42 1044 q -40 1146 -40 1093 z "},"Ð":{"ha":1000,"x_min":-18,"x_max":936,"o":"m 457 950 q 805 825 674 950 q 936 481 936 700 q 923 343 936 410 q 879 213 910 276 q 803 103 849 150 q 686 28 757 57 q 526 0 615 0 l 253 0 q 131 43 168 0 q 94 199 94 86 l 94 364 q -17 454 -17 364 q 94 551 -17 547 l 94 785 q 253 950 94 950 l 457 950 m 415 189 q 478 197 451 189 q 530 224 506 204 q 569 278 554 244 q 594 363 585 311 q 603 486 603 415 q 589 620 603 565 q 549 703 575 675 q 491 744 522 732 q 415 757 460 756 l 415 551 q 479 538 456 549 q 513 505 503 526 q 524 449 524 483 q 517 413 524 428 q 497 388 511 399 q 463 372 483 378 q 415 365 443 367 l 415 189 z "},"Ñ":{"ha":1074,"x_min":93,"x_max":981,"o":"m 981 132 q 944 35 981 71 q 839 0 908 0 q 806 4 822 0 q 774 15 789 8 q 742 33 760 21 q 710 54 724 44 q 678 82 697 64 q 645 112 658 100 q 610 145 632 124 q 574 179 588 167 l 319 419 l 319 118 q 294 25 319 50 q 213 0 268 0 q 122 28 151 0 q 93 121 93 56 l 93 792 q 133 911 93 871 q 249 951 174 951 q 287 949 269 951 q 318 941 304 946 q 347 926 332 936 q 374 906 361 917 q 406 878 388 896 l 757 528 l 757 831 q 772 898 757 871 q 810 938 786 925 q 868 950 835 950 q 932 938 907 950 q 969 900 957 926 q 981 832 981 874 l 981 132 m 447 1126 q 433 1083 447 1103 q 397 1051 419 1063 q 344 1040 374 1040 q 294 1049 314 1040 q 263 1074 274 1057 q 249 1109 253 1090 q 246 1156 246 1128 q 281 1265 246 1218 q 379 1311 317 1311 q 615 1226 493 1311 q 645 1286 615 1261 q 718 1311 675 1311 q 780 1296 757 1311 q 810 1258 803 1281 q 818 1197 818 1235 q 782 1088 818 1136 q 683 1040 746 1040 q 603 1053 642 1040 q 540 1083 564 1067 q 491 1113 517 1099 q 447 1126 465 1126 z "},"Ò":{"ha":1118,"x_min":71,"x_max":1046,"o":"m 558 194 q 623 219 594 194 q 668 283 651 243 q 694 370 685 322 q 703 469 703 418 q 688 603 703 540 q 638 711 672 667 q 558 756 604 756 q 481 711 514 756 q 431 603 447 667 q 414 469 414 539 q 430 339 414 400 q 480 236 446 278 q 558 194 514 194 m 558 -8 q 368 24 457 -8 q 213 115 279 56 q 110 267 147 175 q 72 469 72 358 q 208 827 72 694 q 558 960 343 960 q 910 827 774 960 q 1046 469 1046 694 q 980 211 1046 321 q 804 47 914 101 q 558 -8 694 -8 m 432 1339 l 608 1228 q 615 1222 611 1226 q 646 1202 636 1210 q 669 1181 656 1194 q 688 1151 682 1167 q 694 1114 694 1135 q 666 1049 694 1075 q 590 1022 638 1022 q 521 1035 558 1022 l 335 1097 q 239 1211 239 1133 q 272 1311 239 1264 q 360 1358 304 1358 q 432 1339 399 1358 z "},"Ó":{"ha":1118,"x_min":71,"x_max":1046,"o":"m 558 194 q 623 219 594 194 q 668 283 651 243 q 694 370 685 322 q 703 469 703 418 q 688 603 703 540 q 638 711 672 667 q 558 756 604 756 q 481 711 514 756 q 431 603 447 667 q 414 469 414 539 q 430 339 414 400 q 480 236 446 278 q 558 194 514 194 m 558 -8 q 368 24 457 -8 q 213 115 279 56 q 110 267 147 175 q 72 469 72 358 q 208 827 72 694 q 558 960 343 960 q 910 827 774 960 q 1046 469 1046 694 q 980 211 1046 321 q 804 47 914 101 q 558 -8 694 -8 m 657 1357 q 731 1376 690 1376 q 818 1329 785 1376 q 851 1229 851 1282 q 756 1115 851 1151 l 568 1053 q 499 1040 531 1040 q 444 1053 468 1040 q 407 1086 419 1065 q 394 1132 394 1107 q 408 1181 394 1158 q 434 1213 421 1203 q 474 1240 447 1224 q 482 1246 479 1244 l 657 1357 z "},"Ô":{"ha":1118,"x_min":71,"x_max":1046,"o":"m 558 194 q 623 219 594 194 q 668 283 651 243 q 694 370 685 322 q 703 469 703 418 q 688 603 703 540 q 638 711 672 667 q 558 756 604 756 q 481 711 514 756 q 431 603 447 667 q 414 469 414 539 q 430 339 414 400 q 480 236 446 278 q 558 194 514 194 m 558 -8 q 368 24 457 -8 q 213 115 279 56 q 110 267 147 175 q 72 469 72 358 q 208 827 72 694 q 558 960 343 960 q 910 827 774 960 q 1046 469 1046 694 q 980 211 1046 321 q 804 47 914 101 q 558 -8 694 -8 m 765 1258 q 840 1136 840 1183 q 824 1086 840 1110 q 785 1049 808 1063 q 735 1036 761 1036 q 656 1081 700 1036 q 618 1124 639 1097 q 586 1160 597 1150 q 564 1169 575 1169 q 540 1158 553 1169 q 510 1122 528 1146 q 479 1085 492 1097 q 394 1039 435 1039 q 342 1052 367 1039 q 303 1088 318 1065 q 289 1136 289 1110 q 291 1155 289 1146 q 297 1172 293 1164 q 305 1188 301 1181 q 315 1203 308 1194 q 326 1217 322 1213 q 339 1231 331 1222 q 350 1244 347 1240 q 563 1363 451 1363 q 629 1353 599 1363 q 686 1326 660 1344 q 727 1294 713 1307 q 765 1258 742 1282 z "},"Õ":{"ha":1118,"x_min":71,"x_max":1046,"o":"m 558 194 q 623 219 594 194 q 668 283 651 243 q 694 370 685 322 q 703 469 703 418 q 688 603 703 540 q 638 711 672 667 q 558 756 604 756 q 481 711 514 756 q 431 603 447 667 q 414 469 414 539 q 430 339 414 400 q 480 236 446 278 q 558 194 514 194 m 558 -8 q 368 24 457 -8 q 213 115 279 56 q 110 267 147 175 q 72 469 72 358 q 208 827 72 694 q 558 960 343 960 q 910 827 774 960 q 1046 469 1046 694 q 980 211 1046 321 q 804 47 914 101 q 558 -8 694 -8 m 483 1126 q 470 1083 483 1103 q 433 1051 457 1063 q 382 1040 410 1040 q 331 1049 351 1040 q 301 1074 311 1057 q 286 1109 290 1090 q 282 1156 282 1128 q 291 1212 282 1185 q 316 1262 300 1239 q 358 1298 332 1285 q 417 1311 385 1311 q 653 1226 529 1311 q 683 1286 653 1261 q 754 1311 713 1311 q 833 1283 813 1311 q 854 1197 854 1254 q 819 1088 854 1136 q 719 1040 783 1040 q 640 1053 678 1040 q 577 1083 601 1067 q 528 1113 553 1099 q 483 1126 503 1126 z "},"Ö":{"ha":1118,"x_min":71,"x_max":1046,"o":"m 558 194 q 623 219 594 194 q 668 283 651 243 q 694 370 685 322 q 703 469 703 418 q 688 603 703 540 q 638 711 672 667 q 558 756 604 756 q 481 711 514 756 q 431 603 447 667 q 414 469 414 539 q 430 339 414 400 q 480 236 446 278 q 558 194 514 194 m 558 -8 q 368 24 457 -8 q 213 115 279 56 q 110 267 147 175 q 72 469 72 358 q 208 827 72 694 q 558 960 343 960 q 910 827 774 960 q 1046 469 1046 694 q 980 211 1046 321 q 804 47 914 101 q 558 -8 694 -8 m 589 1147 q 626 1220 589 1192 q 733 1249 664 1249 q 879 1147 879 1249 q 842 1068 879 1090 q 733 1046 804 1046 q 630 1070 671 1046 q 589 1147 589 1094 m 254 1147 q 292 1220 254 1192 q 399 1249 329 1249 q 544 1147 544 1249 q 508 1068 544 1090 q 399 1046 471 1046 q 295 1070 336 1046 q 254 1147 254 1094 z "},"×":{"ha":836,"x_min":85,"x_max":753,"o":"m 419 157 q 405 141 415 153 q 389 124 394 129 q 372 108 383 118 q 355 91 361 97 q 338 76 349 85 q 319 62 326 67 q 301 51 311 57 q 281 41 290 44 q 261 35 272 38 q 240 33 250 33 q 136 78 186 33 q 86 175 86 122 q 97 202 86 186 q 127 237 107 218 q 163 269 147 256 q 203 301 179 282 q 233 325 228 321 q 199 353 224 333 q 161 388 175 374 q 130 422 147 401 q 103 465 113 442 q 94 513 94 488 q 106 555 94 533 q 136 592 118 576 q 177 618 154 608 q 221 628 200 628 q 280 610 250 628 q 328 574 310 593 q 376 521 347 554 q 419 474 406 488 q 449 506 432 486 q 478 540 465 525 q 508 573 490 556 q 542 601 526 590 q 578 620 558 613 q 617 628 597 628 q 676 610 646 628 q 724 565 706 593 q 743 511 743 538 q 735 469 743 490 q 707 425 728 449 q 676 390 686 401 q 636 352 667 379 q 606 325 606 325 q 634 301 610 321 q 674 269 658 282 q 710 237 690 256 q 741 202 731 218 q 751 175 751 186 q 728 107 751 140 q 668 53 704 74 q 597 33 632 33 q 572 37 585 33 q 548 44 558 40 q 524 59 538 49 q 501 76 510 69 q 478 96 493 82 q 458 115 464 110 q 438 137 453 121 q 419 157 422 153 z "},"Ø":{"ha":1118,"x_min":18,"x_max":1056,"o":"m 415 490 l 642 707 q 558 756 607 756 q 458 676 497 756 q 415 490 419 596 m 558 194 q 623 219 594 194 q 668 283 651 243 q 694 370 685 322 q 703 469 703 418 q 703 484 703 476 q 701 499 703 492 l 458 268 q 502 214 476 233 q 558 194 528 194 m 863 915 q 957 969 919 969 q 1022 942 989 969 q 1056 881 1056 914 q 994 776 1056 835 l 969 753 q 1046 469 1046 633 q 980 211 1046 321 q 804 47 914 101 q 558 -8 694 -8 q 260 79 385 -8 l 196 19 q 111 -25 149 -25 q 49 8 78 -25 q 19 75 19 40 q 60 154 19 115 l 131 222 q 72 469 72 329 q 208 827 72 694 q 558 960 343 960 q 832 888 715 960 l 863 915 z "},"Ù":{"ha":1024,"x_min":81,"x_max":936,"o":"m 936 785 l 936 371 q 838 80 936 168 q 508 -8 740 -8 q 184 86 288 -8 q 81 371 81 181 l 81 785 q 124 905 81 858 q 235 951 168 951 q 359 921 317 951 q 401 797 401 890 l 401 344 q 429 253 403 279 q 508 226 456 226 q 594 256 574 226 q 615 344 615 286 l 615 799 q 627 878 615 846 q 663 925 639 910 q 713 946 688 940 q 775 951 739 951 q 896 913 856 951 q 936 785 936 874 m 411 1339 l 588 1228 q 594 1222 589 1226 q 634 1195 621 1206 q 660 1163 647 1185 q 674 1114 674 1140 q 645 1049 674 1075 q 569 1022 617 1022 q 500 1035 538 1022 l 313 1097 q 217 1211 217 1133 q 250 1311 217 1264 q 338 1358 283 1358 q 411 1339 378 1358 z "},"Ú":{"ha":1024,"x_min":81,"x_max":936,"o":"m 936 785 l 936 371 q 838 80 936 168 q 508 -8 740 -8 q 184 86 288 -8 q 81 371 81 181 l 81 785 q 124 905 81 858 q 235 951 168 951 q 359 921 317 951 q 401 797 401 890 l 401 344 q 429 253 403 279 q 508 226 456 226 q 594 256 574 226 q 615 344 615 286 l 615 799 q 627 878 615 846 q 663 925 639 910 q 713 946 688 940 q 775 951 739 951 q 896 913 856 951 q 936 785 936 874 m 632 1357 q 706 1376 665 1376 q 793 1329 760 1376 q 826 1229 826 1282 q 731 1115 826 1151 l 543 1053 q 474 1040 506 1040 q 419 1053 443 1040 q 382 1086 394 1065 q 369 1132 369 1107 q 383 1181 369 1158 q 409 1213 396 1203 q 449 1240 422 1224 q 457 1246 454 1244 l 632 1357 z "},"Û":{"ha":1024,"x_min":81,"x_max":936,"o":"m 936 785 l 936 371 q 838 80 936 168 q 508 -8 740 -8 q 184 86 288 -8 q 81 371 81 181 l 81 785 q 124 905 81 858 q 235 951 168 951 q 359 921 317 951 q 401 797 401 890 l 401 344 q 429 253 403 279 q 508 226 456 226 q 594 256 574 226 q 615 344 615 286 l 615 799 q 627 878 615 846 q 663 925 639 910 q 713 946 688 940 q 775 951 739 951 q 896 913 856 951 q 936 785 936 874 m 714 1258 q 789 1136 789 1183 q 773 1086 789 1110 q 733 1049 757 1063 q 683 1036 708 1036 q 604 1081 647 1036 q 566 1124 588 1097 q 534 1160 544 1150 q 513 1169 524 1169 q 489 1158 501 1169 q 458 1122 476 1146 q 428 1085 440 1097 q 343 1039 383 1039 q 269 1067 300 1039 q 238 1136 238 1096 q 240 1158 238 1147 q 247 1177 243 1169 q 258 1196 250 1185 q 271 1212 267 1207 q 285 1229 275 1217 q 299 1244 296 1242 q 511 1363 400 1363 q 557 1358 535 1363 q 599 1345 579 1354 q 633 1328 618 1336 q 665 1305 647 1319 q 690 1282 682 1290 q 714 1258 699 1274 z "},"Ü":{"ha":1024,"x_min":81,"x_max":936,"o":"m 936 785 l 936 371 q 838 80 936 168 q 508 -8 740 -8 q 184 86 288 -8 q 81 371 81 181 l 81 785 q 124 905 81 858 q 235 951 168 951 q 359 921 317 951 q 401 797 401 890 l 401 344 q 429 253 403 279 q 508 226 456 226 q 594 256 574 226 q 615 344 615 286 l 615 799 q 627 878 615 846 q 663 925 639 910 q 713 946 688 940 q 775 951 739 951 q 896 913 856 951 q 936 785 936 874 m 528 1146 q 565 1219 528 1190 q 672 1247 603 1247 q 818 1146 818 1247 q 781 1067 818 1089 q 672 1044 743 1044 q 569 1069 610 1044 q 528 1146 528 1093 m 193 1146 q 231 1219 193 1190 q 338 1247 268 1247 q 483 1146 483 1247 q 447 1067 483 1089 q 338 1044 410 1044 q 234 1069 275 1044 q 193 1146 193 1093 z "},"Ý":{"ha":988,"x_min":58,"x_max":936,"o":"m 653 208 q 633 85 653 132 q 579 19 614 39 q 489 0 544 0 q 371 44 408 0 q 332 199 333 88 l 331 424 l 117 674 q 58 789 58 740 q 117 910 58 865 q 215 951 172 951 q 322 897 275 951 l 492 700 l 633 865 q 785 950 704 950 q 878 917 844 950 q 935 807 935 860 q 915 745 935 778 q 853 661 896 713 l 653 417 l 653 208 m 583 1357 q 657 1376 617 1376 q 744 1329 711 1376 q 778 1229 778 1282 q 682 1115 778 1151 l 494 1053 q 425 1040 457 1040 q 370 1053 394 1040 q 333 1086 346 1065 q 321 1132 321 1107 q 334 1181 321 1158 q 360 1213 347 1203 q 400 1240 374 1224 q 408 1246 406 1244 l 583 1357 z "},"Þ":{"ha":903,"x_min":97,"x_max":815,"o":"m 415 824 q 707 719 600 817 q 814 472 814 622 q 706 230 814 325 q 410 131 597 135 q 254 0 385 0 q 135 43 174 0 q 97 197 97 86 l 97 785 q 254 951 97 951 q 369 926 329 951 q 415 824 410 900 m 417 374 q 508 404 471 379 q 546 471 546 429 q 508 540 546 514 q 417 572 471 567 l 417 374 z "},"ß":{"ha":972,"x_min":65,"x_max":935,"o":"m 489 976 q 627 963 561 976 q 753 918 693 949 q 848 830 813 888 q 883 696 883 772 q 814 515 883 592 q 908 417 881 468 q 935 271 935 365 q 853 74 935 150 q 636 -1 772 -1 q 481 40 528 -1 q 435 164 435 82 q 465 269 435 246 q 561 292 496 292 q 650 349 650 292 q 574 410 650 410 q 479 435 508 410 q 450 515 450 461 q 474 583 450 557 q 539 608 497 608 q 614 621 593 608 q 635 667 635 633 q 600 719 635 701 q 522 736 565 736 q 415 703 461 736 q 369 594 369 669 l 369 181 q 332 41 369 82 q 217 0 294 0 q 103 44 139 0 q 65 199 67 88 l 65 631 q 190 888 65 799 q 489 976 314 976 z "},"à":{"ha":867,"x_min":58,"x_max":800,"o":"m 313 -8 q 131 81 203 -8 q 58 326 58 171 q 92 511 58 432 q 182 631 125 590 q 313 672 239 672 q 521 593 425 672 q 642 663 558 663 q 758 630 717 663 q 800 510 800 597 l 800 149 q 765 33 800 65 q 643 0 731 0 q 522 51 551 0 q 313 -8 433 -8 m 501 460 q 440 500 478 500 q 382 447 404 500 q 360 326 360 394 q 381 213 360 263 q 439 163 401 163 q 501 200 478 163 l 501 460 m 390 1046 l 550 946 q 565 936 553 944 q 579 926 576 928 q 592 916 582 924 q 604 904 601 908 q 613 892 607 900 q 622 878 619 885 q 626 861 624 871 q 628 842 628 851 q 602 783 628 807 q 535 758 576 758 q 471 769 504 758 l 301 826 q 215 929 215 858 q 245 1021 215 978 q 324 1064 275 1064 q 390 1046 358 1064 z "},"á":{"ha":867,"x_min":58,"x_max":800,"o":"m 313 -8 q 131 81 203 -8 q 58 326 58 171 q 92 511 58 432 q 182 631 125 590 q 313 672 239 672 q 521 593 425 672 q 642 663 558 663 q 758 630 717 663 q 800 510 800 597 l 800 149 q 765 33 800 65 q 643 0 731 0 q 522 51 551 0 q 313 -8 433 -8 m 501 460 q 440 500 478 500 q 382 447 404 500 q 360 326 360 394 q 381 213 360 263 q 439 163 401 163 q 501 200 478 163 l 501 460 m 522 1046 q 589 1063 553 1063 q 669 1019 639 1063 q 699 929 699 976 q 611 826 699 860 l 442 769 q 379 758 408 758 q 328 769 350 758 q 296 799 307 781 q 285 842 285 818 q 297 885 285 865 q 320 915 308 906 q 356 940 332 924 q 363 944 361 943 l 522 1046 z "},"â":{"ha":867,"x_min":58,"x_max":800,"o":"m 313 -8 q 131 81 203 -8 q 58 326 58 171 q 92 511 58 432 q 182 631 125 590 q 313 672 239 672 q 521 593 425 672 q 642 663 558 663 q 758 630 717 663 q 800 510 800 597 l 800 149 q 765 33 800 65 q 643 0 731 0 q 522 51 551 0 q 313 -8 433 -8 m 501 460 q 440 500 478 500 q 382 447 404 500 q 360 326 360 394 q 381 213 360 263 q 439 163 401 163 q 501 200 478 163 l 501 460 m 653 975 q 724 860 724 904 q 692 792 724 821 q 624 764 661 764 q 549 806 589 764 q 531 825 542 814 q 515 842 519 836 q 502 855 510 847 q 490 866 494 863 q 481 873 486 869 q 471 878 475 876 q 461 879 467 879 q 442 873 453 879 q 425 859 432 867 q 403 835 418 851 q 381 810 389 819 q 300 767 338 767 q 229 794 258 767 q 200 860 200 821 q 203 880 200 869 q 208 898 206 890 q 219 916 211 906 q 231 931 228 926 q 245 948 235 936 q 258 963 256 960 q 460 1074 354 1074 q 543 1056 503 1074 q 603 1022 583 1038 q 653 975 622 1006 z "},"ã":{"ha":867,"x_min":58,"x_max":800,"o":"m 313 -8 q 131 81 203 -8 q 58 326 58 171 q 92 511 58 432 q 182 631 125 590 q 313 672 239 672 q 521 593 425 672 q 642 663 558 663 q 758 630 717 663 q 800 510 800 597 l 800 149 q 765 33 800 65 q 643 0 731 0 q 522 51 551 0 q 313 -8 433 -8 m 501 460 q 440 500 478 500 q 382 447 404 500 q 360 326 360 394 q 381 213 360 263 q 439 163 401 163 q 501 200 478 163 l 501 460 m 381 851 q 368 810 381 829 q 333 781 356 792 q 283 769 311 769 q 224 785 246 769 q 195 822 201 800 q 189 881 189 844 q 203 950 189 917 q 247 1006 217 983 q 317 1028 276 1028 q 425 1008 368 1028 q 511 967 482 988 l 542 946 q 570 1004 542 981 q 639 1028 599 1028 q 698 1013 676 1028 q 726 977 719 999 q 733 919 733 956 q 720 849 733 882 q 677 793 707 817 q 606 769 647 769 q 511 790 556 769 q 434 831 467 811 q 381 851 401 851 z "},"ä":{"ha":867,"x_min":58,"x_max":800,"o":"m 313 -8 q 131 81 203 -8 q 58 326 58 171 q 92 511 58 432 q 182 631 125 590 q 313 672 239 672 q 521 593 425 672 q 642 663 558 663 q 758 630 717 663 q 800 510 800 597 l 800 149 q 765 33 800 65 q 643 0 731 0 q 522 51 551 0 q 313 -8 433 -8 m 501 460 q 440 500 478 500 q 382 447 404 500 q 360 326 360 394 q 381 213 360 263 q 439 163 401 163 q 501 200 478 163 l 501 460 m 489 840 q 527 913 489 885 q 633 942 565 942 q 779 840 779 942 q 742 761 779 783 q 633 739 706 739 q 530 763 571 739 q 489 840 489 788 m 156 840 q 193 913 156 885 q 300 942 231 942 q 446 840 446 942 q 408 761 446 783 q 300 739 371 739 q 197 763 238 739 q 156 840 156 788 z "},"å":{"ha":867,"x_min":58,"x_max":800,"o":"m 313 -8 q 131 81 203 -8 q 58 326 58 171 q 92 511 58 432 q 182 631 125 590 q 313 672 239 672 q 521 593 425 672 q 642 663 558 663 q 758 630 717 663 q 800 510 800 597 l 800 149 q 765 33 800 65 q 643 0 731 0 q 522 51 551 0 q 313 -8 433 -8 m 501 460 q 440 500 478 500 q 382 447 404 500 q 360 326 360 394 q 381 213 360 263 q 439 163 401 163 q 501 200 478 163 l 501 460 m 493 967 q 483 1018 493 996 q 451 1040 472 1040 q 418 1018 431 1040 q 406 967 406 996 q 417 917 406 939 q 451 896 429 896 q 476 907 465 896 q 490 933 486 918 q 493 967 493 949 m 613 827 q 581 802 613 827 q 451 776 549 776 q 288 827 353 776 q 222 965 222 878 q 286 1106 222 1054 q 450 1158 350 1158 q 613 1106 550 1158 q 676 965 676 1054 q 613 827 676 878 z "},"æ":{"ha":1258,"x_min":56,"x_max":1206,"o":"m 782 389 q 886 390 878 390 q 917 415 906 390 q 924 465 924 433 q 871 553 924 553 q 815 506 842 553 q 782 389 788 458 m 510 194 q 486 318 486 251 q 513 461 486 396 q 451 500 489 500 q 393 447 415 500 q 371 326 371 394 q 392 213 371 263 q 450 163 413 163 q 510 194 486 163 m 588 571 q 714 646 647 619 q 876 672 781 672 q 1115 615 1039 672 q 1190 457 1190 557 q 1138 349 1190 394 q 985 301 1086 303 l 789 300 q 839 230 803 256 q 931 204 875 204 q 1053 219 990 204 q 1110 242 1079 226 q 1156 257 1142 257 q 1192 243 1179 257 q 1206 208 1206 229 q 1183 148 1206 183 q 1122 77 1161 113 q 1017 17 1082 42 q 876 -8 951 -8 q 710 15 776 -8 q 583 93 644 39 q 310 -8 504 -8 q 129 81 203 -8 q 56 325 56 171 q 127 577 56 483 q 310 671 199 671 q 449 647 386 671 q 588 571 511 624 z "},"ç":{"ha":832,"x_min":56,"x_max":776,"o":"m 538 -83 q 594 -186 594 -112 q 536 -323 594 -271 q 400 -375 478 -375 q 348 -369 376 -375 q 290 -353 319 -364 q 240 -323 260 -343 q 221 -276 221 -303 q 243 -215 221 -244 q 289 -185 265 -185 q 308 -189 297 -185 q 329 -197 319 -193 q 346 -201 339 -201 q 368 -190 358 -201 q 378 -164 378 -179 q 350 -131 378 -151 q 322 -96 322 -111 q 361 -3 322 -79 q 140 110 224 21 q 57 336 57 199 q 167 582 57 492 q 451 672 276 672 q 690 619 614 672 q 765 475 765 567 q 755 421 765 449 q 723 365 744 393 q 660 320 701 338 q 563 303 618 303 q 522 306 538 303 q 488 317 506 308 q 463 347 471 326 q 454 400 454 368 q 465 467 454 428 q 475 519 475 507 q 439 551 475 551 q 374 492 400 551 q 349 358 349 433 q 367 278 349 313 q 422 223 386 243 q 506 203 458 203 q 628 219 576 203 q 678 240 649 225 q 721 256 708 256 q 762 242 749 256 q 775 211 775 229 q 710 94 775 163 q 544 1 646 26 q 519 -65 519 -50 q 538 -83 519 -75 z "},"è":{"ha":826,"x_min":54,"x_max":775,"o":"m 446 -8 q 166 79 276 -8 q 56 318 56 167 q 165 577 56 482 q 446 672 274 672 q 684 615 608 672 q 760 457 760 557 q 708 349 760 394 q 554 301 656 303 l 358 300 q 408 230 372 256 q 500 204 444 204 q 622 219 560 204 q 680 242 649 226 q 725 257 711 257 q 762 243 749 257 q 775 208 775 229 q 753 148 775 183 q 691 77 731 113 q 586 17 651 42 q 446 -8 521 -8 m 351 389 q 456 390 447 390 q 486 415 476 390 q 493 465 493 433 q 440 553 493 553 q 384 506 411 553 q 351 389 357 458 m 371 1046 l 531 946 q 545 936 533 944 q 560 926 557 928 q 572 916 563 924 q 585 904 582 908 q 594 892 588 900 q 602 878 600 885 q 606 861 604 871 q 608 842 608 851 q 583 783 608 807 q 515 758 557 758 q 451 769 485 758 l 282 826 q 196 929 196 858 q 226 1021 196 978 q 304 1064 256 1064 q 371 1046 339 1064 z "},"é":{"ha":826,"x_min":54,"x_max":775,"o":"m 446 -8 q 166 79 276 -8 q 56 318 56 167 q 165 577 56 482 q 446 672 274 672 q 684 615 608 672 q 760 457 760 557 q 708 349 760 394 q 554 301 656 303 l 358 300 q 408 230 372 256 q 500 204 444 204 q 622 219 560 204 q 680 242 649 226 q 725 257 711 257 q 762 243 749 257 q 775 208 775 229 q 753 148 775 183 q 691 77 731 113 q 586 17 651 42 q 446 -8 521 -8 m 351 389 q 456 390 447 390 q 486 415 476 390 q 493 465 493 433 q 440 553 493 553 q 384 506 411 553 q 351 389 357 458 m 513 1046 q 578 1064 542 1064 q 658 1021 628 1064 q 688 929 688 978 q 601 826 688 860 l 432 769 q 368 758 397 758 q 300 783 326 758 q 274 842 274 807 q 285 885 274 865 q 310 915 297 906 q 346 940 322 925 q 353 946 350 943 l 513 1046 z "},"ê":{"ha":826,"x_min":54,"x_max":775,"o":"m 446 -8 q 166 79 276 -8 q 56 318 56 167 q 165 577 56 482 q 446 672 274 672 q 684 615 608 672 q 760 457 760 557 q 708 349 760 394 q 554 301 656 303 l 358 300 q 408 230 372 256 q 500 204 444 204 q 622 219 560 204 q 680 242 649 226 q 725 257 711 257 q 762 243 749 257 q 775 208 775 229 q 753 148 775 183 q 691 77 731 113 q 586 17 651 42 q 446 -8 521 -8 m 351 389 q 456 390 447 390 q 486 415 476 390 q 493 465 493 433 q 440 553 493 553 q 384 506 411 553 q 351 389 357 458 m 618 975 q 689 860 689 904 q 658 792 689 821 q 589 764 626 764 q 514 806 554 764 q 496 825 507 814 q 480 842 485 836 q 467 855 475 847 q 456 866 460 863 q 446 873 451 869 q 436 878 440 876 q 426 879 432 879 q 408 873 418 879 q 390 859 397 867 q 369 835 383 851 q 346 810 354 819 q 265 767 303 767 q 194 794 224 767 q 165 860 165 821 q 168 880 165 869 q 174 898 171 890 q 185 916 178 906 q 197 931 193 926 q 210 948 200 936 q 224 963 221 960 q 425 1074 319 1074 q 508 1056 468 1074 q 568 1022 549 1038 q 618 975 588 1006 z "},"ë":{"ha":826,"x_min":54,"x_max":775,"o":"m 446 -8 q 166 79 276 -8 q 56 318 56 167 q 165 577 56 482 q 446 672 274 672 q 684 615 608 672 q 760 457 760 557 q 708 349 760 394 q 554 301 656 303 l 358 300 q 408 230 372 256 q 500 204 444 204 q 622 219 560 204 q 680 242 649 226 q 725 257 711 257 q 762 243 749 257 q 775 208 775 229 q 753 148 775 183 q 691 77 731 113 q 586 17 651 42 q 446 -8 521 -8 m 351 389 q 456 390 447 390 q 486 415 476 390 q 493 465 493 433 q 440 553 493 553 q 384 506 411 553 q 351 389 357 458 m 456 840 q 494 913 456 885 q 600 942 532 942 q 746 840 746 942 q 709 761 746 783 q 600 739 672 739 q 497 763 538 739 q 456 840 456 788 m 122 840 q 160 913 122 885 q 267 942 197 942 q 413 840 413 942 q 375 761 413 783 q 267 739 338 739 q 163 763 204 739 q 122 840 122 788 z "},"ì":{"ha":393,"x_min":-57,"x_max":357,"o":"m 346 149 q 311 33 346 65 q 189 0 276 0 q 77 38 107 0 q 47 164 47 76 l 47 506 q 64 588 47 553 q 113 643 81 624 q 188 663 144 663 q 304 630 263 663 q 346 510 346 597 l 346 149 m 118 1046 l 278 946 q 292 936 281 944 q 307 926 304 928 q 319 916 310 924 q 332 904 329 908 q 341 892 335 900 q 349 876 347 883 q 353 860 351 869 q 356 842 356 851 q 330 782 356 806 q 263 758 304 758 q 199 769 232 758 l 29 826 q -57 929 -57 858 q -27 1020 -57 976 q 51 1064 3 1064 q 118 1046 88 1064 z "},"í":{"ha":393,"x_min":36,"x_max":451,"o":"m 346 149 q 311 33 346 65 q 189 0 276 0 q 77 38 107 0 q 47 164 47 76 l 47 506 q 64 588 47 553 q 113 643 81 624 q 188 663 144 663 q 304 630 263 663 q 346 510 346 597 l 346 149 m 275 1046 q 340 1063 306 1063 q 420 1019 390 1063 q 450 929 450 976 q 364 826 450 860 l 194 769 q 131 758 160 758 q 63 782 89 758 q 36 842 36 806 q 49 885 36 865 q 73 915 61 906 q 108 940 85 924 q 115 944 113 943 l 275 1046 z "},"î":{"ha":393,"x_min":-58,"x_max":467,"o":"m 346 149 q 311 33 346 65 q 189 0 276 0 q 77 38 107 0 q 47 164 47 76 l 47 506 q 64 588 47 553 q 113 643 81 624 q 188 663 144 663 q 304 630 263 663 q 346 510 346 597 l 346 149 m 396 975 q 467 860 467 904 q 451 811 467 833 q 413 776 436 789 q 367 763 390 763 q 292 806 333 763 q 274 825 285 814 q 258 842 263 836 q 245 855 253 847 q 233 865 238 863 q 224 872 229 868 q 214 878 218 876 q 204 879 210 879 q 190 876 197 879 q 175 865 183 872 q 160 850 167 857 q 142 831 153 843 q 124 810 132 818 q 43 765 81 765 q -28 793 1 765 q -57 860 -57 821 q -54 880 -57 869 q -48 897 -51 890 q -37 915 -44 904 q -26 931 -29 926 q -12 947 -22 935 q 1 961 -1 958 q 203 1074 97 1074 q 286 1056 246 1074 q 346 1021 326 1038 q 396 975 365 1004 z "},"ï":{"ha":393,"x_min":-111,"x_max":515,"o":"m 346 149 q 311 33 346 65 q 189 0 276 0 q 77 38 107 0 q 47 164 47 76 l 47 506 q 64 588 47 553 q 113 643 81 624 q 188 663 144 663 q 304 630 263 663 q 346 510 346 597 l 346 149 m 224 844 q 262 917 224 889 q 368 946 300 946 q 514 844 514 946 q 477 765 514 788 q 368 743 440 743 q 265 767 306 743 q 224 844 224 792 m -110 844 q -72 917 -110 889 q 35 946 -35 946 q 181 844 181 946 q 143 765 181 788 q 35 743 106 743 q -69 767 -28 743 q -110 844 -110 792 z "},"ð":{"ha":878,"x_min":61,"x_max":832,"o":"m 657 1042 q 739 985 739 1042 q 715 936 739 957 q 628 894 692 915 q 775 663 718 799 q 832 404 832 528 q 718 90 832 203 q 447 -10 617 -10 q 171 81 281 -10 q 61 328 61 171 q 115 518 61 439 q 261 635 169 597 q 472 674 353 674 q 367 786 429 758 q 194 725 250 725 q 129 778 129 725 q 257 865 129 842 q 190 915 217 886 q 163 969 163 943 q 272 1054 163 1054 q 385 1032 332 1054 q 504 969 438 1010 q 543 994 517 976 q 583 1019 569 1011 q 618 1034 597 1026 q 657 1042 639 1042 m 513 329 q 494 456 513 401 q 442 511 476 511 q 400 483 418 511 q 374 415 382 456 q 365 329 365 375 q 385 205 365 258 q 440 151 404 151 q 482 178 465 151 q 506 244 499 206 q 513 329 513 283 z "},"ñ":{"ha":856,"x_min":61,"x_max":794,"o":"m 490 374 q 429 451 490 451 q 381 427 400 451 q 360 363 363 403 l 360 149 q 325 32 360 64 q 203 0 290 0 q 91 38 121 0 q 61 164 61 76 l 61 506 q 99 619 61 576 q 201 663 138 663 q 344 594 313 663 q 608 665 453 665 q 751 588 707 665 q 794 332 794 510 q 790 190 794 244 q 777 95 786 135 q 749 36 768 56 q 703 8 729 17 q 638 0 678 0 q 526 29 560 0 q 492 115 492 58 l 490 374 m 333 851 q 306 793 333 817 q 238 769 278 769 q 161 797 181 769 q 142 879 142 825 q 150 933 142 907 q 174 980 158 958 q 214 1015 189 1001 q 269 1028 239 1028 q 378 1007 322 1028 q 465 967 435 986 l 494 946 q 523 1004 494 981 q 592 1028 551 1028 q 667 1000 647 1028 q 686 919 686 972 q 673 849 686 882 q 630 792 660 815 q 558 769 600 769 q 483 782 519 769 q 423 810 446 794 q 376 838 400 825 q 333 851 351 851 z "},"ò":{"ha":876,"x_min":54,"x_max":824,"o":"m 513 329 q 494 456 513 401 q 442 511 476 511 q 385 456 406 511 q 365 329 365 400 q 385 205 365 258 q 440 151 404 151 q 474 167 460 151 q 496 208 488 182 q 508 265 504 233 q 513 329 513 296 m 440 -10 q 245 29 332 -10 q 106 146 158 68 q 54 328 54 224 q 163 579 54 486 q 440 672 271 672 q 717 579 610 672 q 824 328 824 486 q 715 81 824 171 q 440 -10 606 -10 m 376 1046 l 536 946 q 551 936 539 944 q 565 926 563 928 q 578 916 568 924 q 590 904 588 908 q 599 892 593 900 q 608 876 606 883 q 612 860 610 869 q 614 842 614 851 q 588 782 614 806 q 521 758 563 758 q 457 769 490 758 l 288 826 q 201 929 201 858 q 231 1020 201 976 q 310 1064 261 1064 q 376 1046 346 1064 z "},"ó":{"ha":876,"x_min":54,"x_max":824,"o":"m 513 329 q 494 456 513 401 q 442 511 476 511 q 385 456 406 511 q 365 329 365 400 q 385 205 365 258 q 440 151 404 151 q 474 167 460 151 q 496 208 488 182 q 508 265 504 233 q 513 329 513 296 m 440 -10 q 245 29 332 -10 q 106 146 158 68 q 54 328 54 224 q 163 579 54 486 q 440 672 271 672 q 717 579 610 672 q 824 328 824 486 q 715 81 824 171 q 440 -10 606 -10 m 553 1046 q 618 1063 583 1063 q 698 1019 668 1063 q 728 929 728 976 q 642 826 728 860 l 472 769 q 408 758 438 758 q 359 769 381 758 q 326 799 338 781 q 314 842 314 818 q 326 885 314 865 q 351 915 339 906 q 386 940 363 924 q 393 944 390 943 l 553 1046 z "},"ô":{"ha":876,"x_min":54,"x_max":824,"o":"m 513 329 q 494 456 513 401 q 442 511 476 511 q 385 456 406 511 q 365 329 365 400 q 385 205 365 258 q 440 151 404 151 q 474 167 460 151 q 496 208 488 182 q 508 265 504 233 q 513 329 513 296 m 440 -10 q 245 29 332 -10 q 106 146 158 68 q 54 328 54 224 q 163 579 54 486 q 440 672 271 672 q 717 579 610 672 q 824 328 824 486 q 715 81 824 171 q 440 -10 606 -10 m 628 975 q 699 860 699 904 q 683 811 699 833 q 645 776 668 789 q 599 763 622 763 q 524 806 565 763 q 508 822 517 813 q 494 838 499 832 q 482 850 489 843 q 471 860 475 857 q 462 868 467 864 q 453 874 457 872 q 444 878 449 876 q 436 879 440 879 q 422 876 429 879 q 407 865 415 872 q 392 850 399 857 q 374 831 385 843 q 356 810 364 818 q 275 765 313 765 q 204 793 233 765 q 175 860 175 821 q 178 880 175 869 q 184 897 181 890 q 195 915 188 904 q 206 931 203 926 q 220 947 210 935 q 233 961 231 958 q 435 1074 329 1074 q 488 1067 463 1074 q 531 1051 513 1060 q 569 1027 549 1043 q 600 1001 590 1011 q 628 975 610 992 z "},"õ":{"ha":876,"x_min":54,"x_max":824,"o":"m 513 329 q 494 456 513 401 q 442 511 476 511 q 385 456 406 511 q 365 329 365 400 q 385 205 365 258 q 440 151 404 151 q 474 167 460 151 q 496 208 488 182 q 508 265 504 233 q 513 329 513 296 m 440 -10 q 245 29 332 -10 q 106 146 158 68 q 54 328 54 224 q 163 579 54 486 q 440 672 271 672 q 717 579 610 672 q 824 328 824 486 q 715 81 824 171 q 440 -10 606 -10 m 356 851 q 348 819 356 835 q 328 793 340 804 q 297 776 315 782 q 258 769 279 769 q 183 797 203 769 q 164 879 164 825 q 172 933 164 907 q 196 980 181 958 q 236 1015 211 1001 q 292 1028 261 1028 q 401 1007 344 1028 q 486 967 457 986 l 517 946 q 545 1004 517 981 q 614 1028 574 1028 q 689 1000 669 1028 q 708 919 708 972 q 695 849 708 882 q 652 792 682 815 q 581 769 622 769 q 486 790 531 769 q 410 831 442 810 q 356 851 378 851 z "},"ö":{"ha":876,"x_min":54,"x_max":824,"o":"m 513 329 q 494 456 513 401 q 442 511 476 511 q 385 456 406 511 q 365 329 365 400 q 385 205 365 258 q 440 151 404 151 q 474 167 460 151 q 496 208 488 182 q 508 265 504 233 q 513 329 513 296 m 440 -10 q 245 29 332 -10 q 106 146 158 68 q 54 328 54 224 q 163 579 54 486 q 440 672 271 672 q 717 579 610 672 q 824 328 824 486 q 715 81 824 171 q 440 -10 606 -10 m 474 840 q 512 913 474 885 q 618 940 550 940 q 764 840 764 940 q 727 761 764 783 q 618 739 690 739 q 515 763 556 739 q 474 840 474 786 m 140 840 q 178 913 140 885 q 285 940 215 940 q 431 840 431 940 q 393 761 431 783 q 285 739 356 739 q 181 763 222 739 q 140 840 140 786 z "},"÷":{"ha":619,"x_min":6,"x_max":614,"o":"m 507 431 q 590 406 567 431 q 614 322 614 382 q 585 251 614 271 q 494 231 557 231 l 118 231 q 6 328 6 231 q 113 431 6 431 l 507 431 m 179 579 q 215 648 179 621 q 314 675 250 675 q 451 579 451 675 q 417 505 451 526 q 314 483 382 483 q 217 506 256 483 q 179 579 179 529 m 179 86 q 215 155 179 128 q 314 182 250 182 q 451 86 451 182 q 417 12 451 33 q 314 -10 382 -10 q 217 13 256 -10 q 179 86 179 36 z "},"ø":{"ha":876,"x_min":54,"x_max":824,"o":"m 365 322 l 376 332 l 493 446 l 497 450 q 441 511 476 511 q 385 456 406 511 q 365 329 365 400 q 365 326 365 328 q 365 322 365 324 m 383 207 q 440 151 406 151 q 474 167 460 151 q 496 208 488 182 q 508 265 504 233 q 513 329 513 296 l 513 331 l 513 332 l 510 329 l 399 222 l 383 207 m 693 646 q 757 681 728 681 q 799 666 782 681 q 817 629 817 651 q 772 560 817 600 l 751 542 q 824 328 824 454 q 715 81 824 171 q 440 -10 606 -10 q 222 42 317 -10 l 189 8 q 128 -25 158 -25 q 89 -6 107 -25 q 71 32 71 13 q 78 60 71 49 q 101 86 85 71 l 132 113 q 54 328 54 200 q 163 579 54 486 q 440 672 271 672 q 561 658 504 672 q 664 617 618 644 l 693 646 z "},"ù":{"ha":868,"x_min":63,"x_max":797,"o":"m 368 293 q 429 214 368 214 q 479 243 460 214 q 499 318 499 272 l 499 504 q 508 568 499 539 q 536 618 518 597 q 581 650 554 639 q 639 661 607 661 q 756 628 714 661 q 797 508 797 596 l 797 147 q 763 31 797 63 q 640 -1 728 -1 q 510 69 535 -1 q 249 1 404 1 q 107 78 150 1 q 64 332 64 156 q 68 474 64 419 q 81 569 72 529 q 109 628 90 608 q 153 656 128 647 q 221 664 179 664 q 333 635 299 664 q 367 547 367 606 l 368 293 m 365 1046 l 525 946 q 539 936 526 944 q 553 926 551 928 q 565 916 556 924 q 578 904 575 908 q 588 892 582 900 q 597 876 594 883 q 601 860 599 869 q 603 842 603 851 q 577 782 603 806 q 510 758 551 758 q 446 769 479 758 l 276 826 q 190 929 190 858 q 220 1020 190 976 q 299 1064 250 1064 q 365 1046 333 1064 z "},"ú":{"ha":868,"x_min":63,"x_max":797,"o":"m 368 293 q 429 214 368 214 q 479 243 460 214 q 499 318 499 272 l 499 504 q 508 568 499 539 q 536 618 518 597 q 581 650 554 639 q 639 661 607 661 q 756 628 714 661 q 797 508 797 596 l 797 147 q 763 31 797 63 q 640 -1 728 -1 q 510 69 535 -1 q 249 1 404 1 q 107 78 150 1 q 64 332 64 156 q 68 474 64 419 q 81 569 72 529 q 109 628 90 608 q 153 656 128 647 q 221 664 179 664 q 333 635 299 664 q 367 547 367 606 l 368 293 m 508 1046 q 574 1063 538 1063 q 653 1019 624 1063 q 683 929 683 976 q 597 826 683 860 l 428 769 q 364 758 393 758 q 296 782 322 758 q 269 842 269 806 q 281 885 269 865 q 306 915 293 906 q 342 940 318 924 q 349 944 346 943 l 508 1046 z "},"û":{"ha":868,"x_min":63,"x_max":797,"o":"m 368 293 q 429 214 368 214 q 479 243 460 214 q 499 318 499 272 l 499 504 q 508 568 499 539 q 536 618 518 597 q 581 650 554 639 q 639 661 607 661 q 756 628 714 661 q 797 508 797 596 l 797 147 q 763 31 797 63 q 640 -1 728 -1 q 510 69 535 -1 q 249 1 404 1 q 107 78 150 1 q 64 332 64 156 q 68 474 64 419 q 81 569 72 529 q 109 628 90 608 q 153 656 128 647 q 221 664 179 664 q 333 635 299 664 q 367 547 367 606 l 368 293 m 633 975 q 704 860 704 904 q 689 811 704 833 q 651 776 674 789 q 604 763 628 763 q 529 806 569 763 q 511 825 522 814 q 495 842 500 836 q 483 855 490 847 q 471 865 475 863 q 461 872 467 868 q 451 878 456 876 q 442 879 447 879 q 430 876 436 879 q 418 869 424 874 q 405 857 413 864 q 392 844 397 850 q 377 827 386 838 q 361 810 368 817 q 281 765 318 765 q 210 793 239 765 q 181 860 181 821 q 183 880 181 869 q 189 897 186 890 q 200 915 192 904 q 212 931 208 926 q 226 947 215 935 q 238 961 236 958 q 440 1074 335 1074 q 492 1067 467 1074 q 536 1051 518 1060 q 575 1027 554 1043 q 606 1001 596 1011 q 633 975 615 992 z "},"ü":{"ha":868,"x_min":63,"x_max":797,"o":"m 368 293 q 429 214 368 214 q 479 243 460 214 q 499 318 499 272 l 499 504 q 508 568 499 539 q 536 618 518 597 q 581 650 554 639 q 639 661 607 661 q 756 628 714 661 q 797 508 797 596 l 797 147 q 763 31 797 63 q 640 -1 728 -1 q 510 69 535 -1 q 249 1 404 1 q 107 78 150 1 q 64 332 64 156 q 68 474 64 419 q 81 569 72 529 q 109 628 90 608 q 153 656 128 647 q 221 664 179 664 q 333 635 299 664 q 367 547 367 606 l 368 293 m 467 840 q 505 913 467 885 q 611 940 543 940 q 757 840 757 940 q 720 761 757 783 q 611 739 683 739 q 508 763 549 739 q 467 840 467 786 m 133 840 q 171 913 133 885 q 278 940 208 940 q 422 840 422 940 q 385 761 422 783 q 278 739 349 739 q 174 763 215 739 q 133 840 133 786 z "},"ý":{"ha":843,"x_min":63,"x_max":783,"o":"m 783 392 q 769 60 783 154 q 735 -87 758 -25 q 668 -197 711 -149 q 558 -268 625 -244 q 400 -292 492 -292 q 263 -270 326 -292 q 163 -217 200 -249 q 106 -156 126 -186 q 85 -103 85 -125 q 99 -62 85 -81 q 139 -43 114 -43 q 194 -61 161 -43 q 265 -97 226 -79 q 340 -115 304 -115 q 447 -78 415 -115 q 478 29 478 -40 q 313 -6 393 -6 q 202 21 251 -6 q 123 91 153 47 q 78 188 93 135 q 63 299 63 240 q 74 529 63 454 q 115 633 86 604 q 203 663 143 663 q 326 633 290 663 q 361 539 361 603 l 363 315 q 363 283 363 293 q 365 257 363 272 q 370 235 367 242 q 380 220 374 228 q 397 210 386 213 q 422 207 407 207 q 474 230 464 207 q 485 314 485 253 l 486 539 q 522 633 486 603 q 644 663 557 663 q 706 651 681 663 q 747 620 732 639 q 770 565 763 601 q 781 490 778 528 q 783 392 783 453 m 519 1046 q 585 1063 549 1063 q 665 1019 635 1063 q 694 929 694 976 q 608 826 694 860 l 439 769 q 375 758 404 758 q 326 769 347 758 q 292 799 304 781 q 281 842 281 818 q 292 885 281 865 q 317 915 304 906 q 353 940 329 924 q 360 944 357 943 l 519 1046 z "},"þ":{"ha":903,"x_min":83,"x_max":838,"o":"m 403 472 l 403 189 q 457 163 425 163 q 515 213 494 163 q 536 326 536 263 q 514 447 536 394 q 456 500 492 500 q 403 472 425 500 m 403 -67 q 363 -225 403 -175 q 240 -275 322 -275 q 122 -231 160 -275 q 83 -78 83 -187 l 83 824 q 240 990 83 990 q 362 960 321 990 q 403 836 403 929 l 403 614 q 583 672 489 672 q 766 578 694 672 q 838 326 838 485 q 765 81 838 171 q 583 -8 693 -8 q 403 33 482 -8 l 403 -67 z "},"ÿ":{"ha":843,"x_min":63,"x_max":783,"o":"m 783 392 q 769 60 783 154 q 735 -87 758 -25 q 668 -197 711 -149 q 558 -268 625 -244 q 400 -292 492 -292 q 263 -270 326 -292 q 163 -217 200 -249 q 106 -156 126 -186 q 85 -103 85 -125 q 99 -62 85 -81 q 139 -43 114 -43 q 194 -61 161 -43 q 265 -97 226 -79 q 340 -115 304 -115 q 447 -78 415 -115 q 478 29 478 -40 q 313 -6 393 -6 q 202 21 251 -6 q 123 91 153 47 q 78 188 93 135 q 63 299 63 240 q 74 529 63 454 q 115 633 86 604 q 203 663 143 663 q 326 633 290 663 q 361 539 361 603 l 363 315 q 363 283 363 293 q 365 257 363 272 q 370 235 367 242 q 380 220 374 228 q 397 210 386 213 q 422 207 407 207 q 474 230 464 207 q 485 314 485 253 l 486 539 q 522 633 486 603 q 644 663 557 663 q 706 651 681 663 q 747 620 732 639 q 770 565 763 601 q 781 490 778 528 q 783 392 783 453 m 453 840 q 491 913 453 885 q 597 940 529 940 q 743 840 743 940 q 706 761 743 783 q 597 739 669 739 q 494 763 535 739 q 453 840 453 786 m 119 840 q 157 913 119 885 q 264 940 194 940 q 408 840 408 940 q 372 761 408 783 q 264 739 335 739 q 160 763 201 739 q 119 840 119 786 z "},"Ā":{"ha":989,"x_min":60,"x_max":932,"o":"m 497 725 q 409 690 438 725 q 381 567 381 656 l 381 403 l 611 403 l 611 569 q 583 690 611 656 q 497 725 554 725 m 611 211 l 381 211 l 381 138 q 343 33 381 67 q 214 0 306 0 q 150 11 175 0 q 106 49 125 22 q 78 126 88 75 q 65 248 69 176 q 60 429 60 319 q 75 582 60 511 q 115 706 90 653 q 176 801 140 758 q 250 871 211 843 q 333 917 289 899 q 418 944 376 936 q 500 951 460 951 q 615 935 558 951 q 731 881 672 919 q 833 784 789 842 q 904 635 876 726 q 932 429 932 543 q 929 274 932 338 q 919 160 926 210 q 902 81 913 110 q 874 33 892 51 q 833 7 856 14 q 778 0 810 0 q 679 16 717 0 q 626 61 642 32 q 611 138 611 90 l 611 211 m 221 1165 q 259 1255 221 1226 q 356 1283 297 1283 l 644 1283 q 751 1251 721 1283 q 782 1163 782 1219 q 772 1116 782 1136 q 746 1082 763 1096 q 706 1061 729 1068 q 656 1054 683 1054 l 376 1054 q 257 1078 293 1054 q 221 1165 221 1101 z "},"ā":{"ha":867,"x_min":58,"x_max":800,"o":"m 313 -8 q 131 81 203 -8 q 58 326 58 171 q 92 511 58 432 q 182 631 125 590 q 313 672 239 672 q 521 593 425 672 q 642 663 558 663 q 758 630 717 663 q 800 510 800 597 l 800 149 q 765 33 800 65 q 643 0 731 0 q 522 51 551 0 q 313 -8 433 -8 m 501 460 q 440 500 478 500 q 382 447 404 500 q 360 326 360 394 q 381 213 360 263 q 439 163 401 163 q 501 200 478 163 l 501 460 m 203 867 q 237 948 203 922 q 324 974 271 974 l 585 974 q 681 944 653 972 q 708 864 708 915 q 676 792 708 818 q 594 767 643 767 l 342 767 q 263 775 292 767 q 219 806 235 783 q 203 867 203 828 z "},"Ă":{"ha":989,"x_min":60,"x_max":932,"o":"m 497 725 q 409 690 438 725 q 381 567 381 656 l 381 403 l 611 403 l 611 569 q 583 690 611 656 q 497 725 554 725 m 611 211 l 381 211 l 381 138 q 343 33 381 67 q 214 0 306 0 q 150 11 175 0 q 106 49 125 22 q 78 126 88 75 q 65 248 69 176 q 60 429 60 319 q 75 582 60 511 q 115 706 90 653 q 176 801 140 758 q 250 871 211 843 q 333 917 289 899 q 418 944 376 936 q 500 951 460 951 q 615 935 558 951 q 731 881 672 919 q 833 784 789 842 q 904 635 876 726 q 932 429 932 543 q 929 274 932 338 q 919 160 926 210 q 902 81 913 110 q 874 33 892 51 q 833 7 856 14 q 778 0 810 0 q 679 16 717 0 q 626 61 642 32 q 611 138 611 90 l 611 211 m 499 1225 q 550 1297 550 1225 q 661 1371 550 1371 q 786 1268 786 1371 q 499 1044 786 1044 q 384 1056 433 1044 q 294 1091 335 1067 q 233 1160 254 1115 q 211 1268 211 1206 q 336 1371 211 1371 q 447 1297 447 1371 q 458 1242 447 1260 q 499 1225 469 1225 z "},"ă":{"ha":867,"x_min":58,"x_max":800,"o":"m 313 -8 q 131 81 203 -8 q 58 326 58 171 q 92 511 58 432 q 182 631 125 590 q 313 672 239 672 q 521 593 425 672 q 642 663 558 663 q 758 630 717 663 q 800 510 800 597 l 800 149 q 765 33 800 65 q 643 0 731 0 q 522 51 551 0 q 313 -8 433 -8 m 501 460 q 440 500 478 500 q 382 447 404 500 q 360 326 360 394 q 381 213 360 263 q 439 163 401 163 q 501 200 478 163 l 501 460 m 461 921 q 507 986 507 921 q 607 1053 507 1053 q 719 961 719 1053 q 461 758 719 758 q 271 804 339 758 q 203 961 203 850 q 315 1053 203 1053 q 415 986 415 1053 q 425 937 415 953 q 461 921 435 921 z "},"Ą":{"ha":989,"x_min":60,"x_max":1032,"o":"m 497 725 q 409 690 438 725 q 381 567 381 656 l 381 403 l 611 403 l 611 569 q 583 690 611 656 q 497 725 554 725 m 611 211 l 381 211 l 381 138 q 343 33 381 67 q 214 0 306 0 q 150 11 175 0 q 106 49 125 22 q 78 126 88 75 q 65 248 69 176 q 60 429 60 319 q 75 582 60 511 q 115 706 90 653 q 176 801 140 758 q 250 871 211 843 q 333 917 289 899 q 418 944 376 936 q 500 951 460 951 q 615 935 558 951 q 731 881 672 919 q 833 784 789 842 q 904 635 876 726 q 932 429 932 543 q 893 63 932 139 q 849 14 876 28 q 817 -124 817 -74 q 828 -161 817 -146 q 857 -176 839 -176 q 901 -155 874 -176 q 949 -133 928 -133 q 972 -139 960 -133 q 994 -153 983 -144 q 1013 -174 1004 -162 q 1026 -198 1021 -185 q 1031 -222 1031 -211 q 1017 -274 1031 -249 q 925 -347 988 -324 q 808 -371 863 -371 q 665 -322 726 -371 q 603 -190 603 -272 q 682 15 603 -92 q 611 138 611 42 l 611 211 z "},"ą":{"ha":867,"x_min":58,"x_max":888,"o":"m 313 -8 q 131 81 203 -8 q 58 326 58 171 q 92 511 58 432 q 182 631 125 590 q 313 672 239 672 q 521 593 425 672 q 642 663 558 663 q 758 630 717 663 q 800 510 800 597 l 800 149 q 783 55 800 88 q 725 10 765 22 q 687 -93 701 -37 q 672 -175 672 -149 q 684 -212 672 -197 q 713 -228 696 -228 q 758 -206 731 -228 q 806 -185 785 -185 q 834 -193 819 -185 q 860 -214 849 -201 q 880 -242 872 -226 q 888 -274 888 -258 q 872 -325 888 -300 q 782 -399 844 -375 q 665 -422 719 -422 q 522 -373 583 -422 q 460 -242 460 -324 q 492 -115 460 -182 q 576 8 524 -49 q 522 51 539 21 q 313 -8 433 -8 m 501 460 q 440 500 478 500 q 382 447 404 500 q 360 326 360 394 q 381 213 360 263 q 439 163 401 163 q 501 200 478 163 l 501 460 z "},"Ć":{"ha":1088,"x_min":71,"x_max":1018,"o":"m 657 690 q 633 740 657 719 q 575 761 608 761 q 465 685 508 761 q 422 514 422 610 q 485 327 422 401 q 653 253 549 253 q 751 273 704 253 q 828 317 799 293 q 888 362 857 342 q 943 382 919 382 q 996 358 974 382 q 1018 307 1018 333 q 1001 239 1018 278 q 946 156 983 200 q 858 76 908 113 q 734 15 808 39 q 578 -10 660 -10 q 319 46 432 -10 q 138 213 206 101 q 71 474 71 324 q 206 829 71 699 q 558 960 340 960 q 764 922 669 960 q 914 818 858 885 q 969 672 969 751 q 944 560 969 614 q 867 469 918 506 q 750 432 815 432 q 650 463 694 432 q 606 550 606 493 q 631 624 606 576 q 657 690 657 671 m 594 1357 q 668 1376 628 1376 q 756 1329 722 1376 q 789 1229 789 1282 q 693 1115 789 1151 l 506 1053 q 436 1040 468 1040 q 381 1053 406 1040 q 344 1086 357 1065 q 332 1132 332 1107 q 345 1181 332 1158 q 372 1213 358 1203 q 411 1240 385 1224 q 419 1246 417 1244 l 594 1357 z "},"ć":{"ha":832,"x_min":56,"x_max":776,"o":"m 475 519 q 439 551 475 551 q 374 492 400 551 q 349 358 349 433 q 367 278 349 313 q 422 223 386 243 q 506 203 458 203 q 628 219 576 203 q 678 240 649 225 q 721 256 708 256 q 762 242 749 256 q 775 211 775 229 q 762 164 775 192 q 721 106 749 136 q 656 49 693 75 q 565 7 619 24 q 451 -10 511 -10 q 251 30 339 -10 q 110 149 163 69 q 57 336 57 229 q 167 582 57 492 q 451 672 276 672 q 690 619 614 672 q 765 475 765 567 q 755 421 765 449 q 723 365 744 393 q 660 320 701 338 q 563 303 618 303 q 522 306 538 303 q 488 317 506 308 q 463 347 471 326 q 454 400 454 368 q 465 467 454 428 q 475 519 475 507 m 503 1058 q 569 1076 533 1076 q 648 1033 618 1076 q 678 942 678 990 q 592 839 678 872 l 422 782 q 358 771 388 771 q 291 795 317 771 q 265 854 265 819 q 277 898 265 878 q 301 928 289 918 q 336 953 313 938 q 343 958 340 956 l 503 1058 z "},"Ĉ":{"ha":1088,"x_min":71,"x_max":1018,"o":"m 657 690 q 633 740 657 719 q 575 761 608 761 q 465 685 508 761 q 422 514 422 610 q 485 327 422 401 q 653 253 549 253 q 751 273 704 253 q 828 317 799 293 q 888 362 857 342 q 943 382 919 382 q 996 358 974 382 q 1018 307 1018 333 q 1001 239 1018 278 q 946 156 983 200 q 858 76 908 113 q 734 15 808 39 q 578 -10 660 -10 q 319 46 432 -10 q 138 213 206 101 q 71 474 71 324 q 206 829 71 699 q 558 960 340 960 q 764 922 669 960 q 914 818 858 885 q 969 672 969 751 q 944 560 969 614 q 867 469 918 506 q 750 432 815 432 q 650 463 694 432 q 606 550 606 493 q 631 624 606 576 q 657 690 657 671 m 767 1258 q 842 1136 842 1183 q 826 1086 842 1110 q 787 1049 811 1063 q 738 1036 763 1036 q 658 1081 701 1036 q 620 1124 642 1097 q 588 1160 599 1150 q 567 1169 576 1169 q 542 1158 554 1169 q 511 1122 529 1146 q 481 1085 493 1097 q 396 1039 436 1039 q 322 1067 353 1039 q 290 1136 290 1096 q 294 1158 290 1147 q 301 1177 297 1169 q 312 1196 304 1185 q 324 1212 319 1207 q 339 1229 328 1217 q 351 1244 350 1242 q 565 1363 453 1363 q 610 1358 589 1363 q 651 1345 632 1354 q 685 1328 671 1336 q 717 1305 700 1319 q 743 1282 735 1290 q 767 1258 751 1274 z "},"ĉ":{"ha":832,"x_min":56,"x_max":776,"o":"m 475 519 q 439 551 475 551 q 374 492 400 551 q 349 358 349 433 q 367 278 349 313 q 422 223 386 243 q 506 203 458 203 q 628 219 576 203 q 678 240 649 225 q 721 256 708 256 q 762 242 749 256 q 775 211 775 229 q 762 164 775 192 q 721 106 749 136 q 656 49 693 75 q 565 7 619 24 q 451 -10 511 -10 q 251 30 339 -10 q 110 149 163 69 q 57 336 57 229 q 167 582 57 492 q 451 672 276 672 q 690 619 614 672 q 765 475 765 567 q 755 421 765 449 q 723 365 744 393 q 660 320 701 338 q 563 303 618 303 q 522 306 538 303 q 488 317 506 308 q 463 347 471 326 q 454 400 454 368 q 465 467 454 428 q 475 519 475 507 m 625 976 q 696 860 696 906 q 665 792 696 821 q 596 764 633 764 q 521 807 561 764 q 503 826 514 814 q 487 843 492 838 q 474 856 482 849 q 463 866 467 863 q 453 873 458 869 q 443 878 447 876 q 433 879 439 879 q 415 873 425 879 q 397 860 404 867 q 376 836 390 853 q 353 811 361 819 q 272 767 310 767 q 201 794 231 767 q 172 860 172 822 q 175 881 172 871 q 181 899 178 892 q 192 917 185 906 q 203 932 200 928 q 217 948 207 936 q 231 963 228 960 q 432 1075 326 1075 q 515 1057 475 1075 q 575 1022 556 1039 q 625 976 594 1006 z "},"Č":{"ha":1088,"x_min":71,"x_max":1018,"o":"m 657 690 q 633 740 657 719 q 575 761 608 761 q 465 685 508 761 q 422 514 422 610 q 485 327 422 401 q 653 253 549 253 q 751 273 704 253 q 828 317 799 293 q 888 362 857 342 q 943 382 919 382 q 996 358 974 382 q 1018 307 1018 333 q 1001 239 1018 278 q 946 156 983 200 q 858 76 908 113 q 734 15 808 39 q 578 -10 660 -10 q 319 46 432 -10 q 138 213 206 101 q 71 474 71 324 q 206 829 71 699 q 558 960 340 960 q 764 922 669 960 q 914 818 858 885 q 969 672 969 751 q 944 560 969 614 q 867 469 918 506 q 750 432 815 432 q 650 463 694 432 q 606 550 606 493 q 631 624 606 576 q 657 690 657 671 m 765 1153 q 739 1127 749 1136 q 710 1102 729 1118 q 675 1076 692 1086 q 637 1057 658 1067 q 591 1042 615 1047 q 540 1038 567 1038 q 304 1168 417 1038 q 291 1183 300 1172 q 277 1199 282 1193 q 265 1214 272 1204 q 253 1231 257 1224 q 244 1249 249 1239 q 238 1268 240 1258 q 236 1289 236 1278 q 271 1365 236 1333 q 354 1397 306 1397 q 447 1346 399 1397 q 474 1317 457 1336 q 500 1289 492 1297 q 520 1273 508 1281 q 542 1265 532 1265 q 553 1267 547 1265 q 565 1273 558 1268 q 576 1281 571 1278 q 590 1294 581 1285 q 605 1309 599 1303 q 624 1328 611 1315 q 644 1351 636 1342 q 732 1401 692 1401 q 812 1367 775 1401 q 849 1289 849 1333 q 765 1153 849 1236 z "},"č":{"ha":832,"x_min":56,"x_max":776,"o":"m 475 519 q 439 551 475 551 q 374 492 400 551 q 349 358 349 433 q 367 278 349 313 q 422 223 386 243 q 506 203 458 203 q 628 219 576 203 q 678 240 649 225 q 721 256 708 256 q 762 242 749 256 q 775 211 775 229 q 762 164 775 192 q 721 106 749 136 q 656 49 693 75 q 565 7 619 24 q 451 -10 511 -10 q 251 30 339 -10 q 110 149 163 69 q 57 336 57 229 q 167 582 57 492 q 451 672 276 672 q 690 619 614 672 q 765 475 765 567 q 755 421 765 449 q 723 365 744 393 q 660 320 701 338 q 563 303 618 303 q 522 306 538 303 q 488 317 506 308 q 463 347 471 326 q 454 400 454 368 q 465 467 454 428 q 475 519 475 507 m 647 878 q 609 842 624 856 q 567 810 594 829 q 510 783 540 792 q 444 775 479 775 q 232 893 333 775 q 222 903 228 896 q 213 914 217 910 q 204 924 210 918 q 195 935 199 931 q 188 947 192 940 q 181 960 183 954 q 175 972 178 965 q 172 986 172 979 q 171 1000 171 993 q 202 1069 171 1040 q 276 1099 233 1099 q 361 1051 317 1099 q 381 1031 369 1043 q 399 1010 392 1018 q 415 995 406 1003 q 431 983 424 988 q 446 979 438 979 q 456 981 451 979 q 466 986 460 982 q 476 994 472 990 q 488 1005 481 997 q 501 1019 496 1013 q 518 1037 507 1025 q 538 1057 529 1049 q 617 1101 581 1101 q 688 1072 656 1101 q 721 1000 721 1042 q 647 878 721 953 z "},"Ď":{"ha":1000,"x_min":94,"x_max":936,"o":"m 415 189 q 493 202 461 189 q 551 247 525 215 q 590 339 576 279 q 603 486 603 399 q 593 598 603 550 q 568 676 583 646 q 528 724 553 706 q 477 749 504 742 q 415 757 450 757 l 415 189 m 457 950 q 805 825 674 950 q 936 481 936 700 q 923 343 936 410 q 879 213 910 276 q 803 103 849 150 q 686 28 757 57 q 526 0 615 0 l 253 0 q 131 43 168 0 q 94 199 94 86 l 94 785 q 253 950 94 950 l 457 950 m 692 1153 q 650 1113 667 1128 q 603 1078 633 1099 q 540 1047 574 1057 q 467 1038 506 1038 q 231 1168 343 1038 q 216 1185 228 1172 q 199 1204 204 1199 q 185 1222 194 1210 q 173 1243 176 1235 q 166 1264 169 1251 q 163 1289 163 1276 q 178 1343 163 1318 q 222 1383 194 1368 q 281 1397 249 1397 q 374 1346 325 1397 q 401 1317 383 1336 q 426 1289 418 1297 q 447 1273 435 1281 q 468 1265 458 1265 q 479 1267 474 1265 q 491 1273 485 1268 q 502 1281 497 1278 q 516 1294 507 1285 q 531 1309 525 1303 q 550 1328 538 1315 q 571 1351 563 1342 q 658 1401 618 1401 q 738 1367 701 1401 q 775 1289 775 1333 q 692 1153 775 1236 z "},"ď":{"ha":1243,"x_min":57,"x_max":1193,"o":"m 804 208 q 767 48 804 96 q 651 0 729 0 q 529 56 563 0 q 311 -10 439 -10 q 131 80 203 -10 q 58 325 58 169 q 129 577 58 483 q 311 671 200 671 q 499 607 411 671 l 499 785 q 540 910 499 869 q 651 951 582 951 q 766 921 728 951 q 804 797 804 890 l 804 208 m 501 200 l 500 460 q 439 499 476 499 q 381 446 403 499 q 358 325 358 393 q 379 211 358 261 q 438 161 400 161 q 501 200 478 161 m 874 840 q 913 917 874 888 q 1024 946 951 946 q 1146 915 1099 946 q 1193 814 1193 885 q 1182 740 1193 775 q 1152 676 1171 704 q 1109 625 1133 649 q 1058 585 1085 601 q 1006 556 1032 568 q 956 539 979 544 q 914 533 932 533 q 874 548 889 533 q 860 585 860 563 q 881 625 860 615 q 947 660 924 646 q 990 692 971 675 q 1024 735 1008 710 q 916 760 958 735 q 874 840 874 785 z "},"Đ":{"ha":1000,"x_min":-18,"x_max":936,"o":"m 457 950 q 805 825 674 950 q 936 481 936 700 q 923 343 936 410 q 879 213 910 276 q 803 103 849 150 q 686 28 757 57 q 526 0 615 0 l 253 0 q 131 43 168 0 q 94 199 94 86 l 94 357 q -17 454 -17 358 q 94 558 -17 554 l 94 785 q 253 950 94 950 l 457 950 m 415 189 q 478 197 451 189 q 530 224 506 204 q 569 278 554 244 q 594 363 585 311 q 603 486 603 415 q 589 620 603 565 q 549 703 575 675 q 491 744 522 732 q 415 757 460 756 l 415 558 q 499 529 475 554 q 524 449 524 504 q 512 400 524 419 q 476 371 500 381 q 415 358 453 361 l 415 189 z "},"đ":{"ha":868,"x_min":57,"x_max":860,"o":"m 804 208 q 767 48 804 96 q 651 0 729 0 q 529 56 563 0 q 311 -10 439 -10 q 131 80 203 -10 q 58 325 58 169 q 129 577 58 483 q 311 671 200 671 q 499 607 411 671 l 499 753 q 437 746 469 750 q 385 740 404 742 q 365 738 367 738 q 317 756 336 738 q 299 804 299 775 q 383 886 299 886 l 522 886 q 651 951 560 951 q 739 938 706 951 q 789 886 772 924 q 860 807 860 881 q 846 757 860 774 q 804 738 832 740 l 804 208 m 501 200 l 500 460 q 439 499 476 499 q 381 446 403 499 q 358 325 358 393 q 379 211 358 261 q 438 161 400 161 q 501 200 478 161 z "},"Ē":{"ha":933,"x_min":96,"x_max":864,"o":"m 654 564 q 758 540 728 564 q 788 460 788 517 q 772 409 788 428 q 724 381 756 390 q 642 372 692 372 l 417 372 l 417 225 l 718 224 q 830 201 796 224 q 864 119 864 178 q 824 26 864 53 q 704 0 785 0 l 254 0 q 134 44 172 0 q 96 199 96 88 l 96 785 q 254 951 96 951 l 704 951 q 790 942 757 951 q 844 906 824 932 q 864 836 864 881 q 830 751 864 775 q 718 726 796 726 l 415 726 l 415 564 l 654 564 m 192 1165 q 230 1255 192 1226 q 326 1283 268 1283 l 615 1283 q 722 1251 692 1283 q 753 1163 753 1219 q 743 1116 753 1136 q 716 1082 733 1096 q 676 1061 699 1068 q 626 1054 653 1054 l 346 1054 q 228 1078 264 1054 q 192 1165 192 1101 z "},"ē":{"ha":826,"x_min":54,"x_max":775,"o":"m 446 -8 q 166 79 276 -8 q 56 318 56 167 q 165 577 56 482 q 446 672 274 672 q 684 615 608 672 q 760 457 760 557 q 708 349 760 394 q 554 301 656 303 l 358 300 q 408 230 372 256 q 500 204 444 204 q 622 219 560 204 q 680 242 649 226 q 725 257 711 257 q 762 243 749 257 q 775 208 775 229 q 753 148 775 183 q 691 77 731 113 q 586 17 651 42 q 446 -8 521 -8 m 351 389 q 456 390 447 390 q 486 415 476 390 q 493 465 493 433 q 440 553 493 553 q 384 506 411 553 q 351 389 357 458 m 185 867 q 219 948 185 922 q 306 974 254 974 l 567 974 q 641 958 613 974 q 680 920 669 943 q 690 864 690 897 q 658 793 690 819 q 576 767 625 767 l 324 767 q 245 775 274 767 q 201 806 217 783 q 185 867 185 828 z "},"Ĕ":{"ha":933,"x_min":96,"x_max":864,"o":"m 654 564 q 758 540 728 564 q 788 460 788 517 q 772 409 788 428 q 724 381 756 390 q 642 372 692 372 l 417 372 l 417 225 l 718 224 q 830 201 796 224 q 864 119 864 178 q 824 26 864 53 q 704 0 785 0 l 254 0 q 134 44 172 0 q 96 199 96 88 l 96 785 q 254 951 96 951 l 704 951 q 790 942 757 951 q 844 906 824 932 q 864 836 864 881 q 830 751 864 775 q 718 726 796 726 l 415 726 l 415 564 l 654 564 m 475 1225 q 528 1297 528 1225 q 638 1371 528 1371 q 764 1268 764 1371 q 475 1044 764 1044 q 361 1056 411 1044 q 271 1091 311 1067 q 210 1160 231 1115 q 189 1268 189 1206 q 314 1371 189 1371 q 425 1297 425 1371 q 436 1242 425 1260 q 475 1225 447 1225 z "},"ĕ":{"ha":826,"x_min":54,"x_max":775,"o":"m 446 -8 q 166 79 276 -8 q 56 318 56 167 q 165 577 56 482 q 446 672 274 672 q 684 615 608 672 q 760 457 760 557 q 708 349 760 394 q 554 301 656 303 l 358 300 q 408 230 372 256 q 500 204 444 204 q 622 219 560 204 q 680 242 649 226 q 725 257 711 257 q 762 243 749 257 q 775 208 775 229 q 753 148 775 183 q 691 77 731 113 q 586 17 651 42 q 446 -8 521 -8 m 351 389 q 456 390 447 390 q 486 415 476 390 q 493 465 493 433 q 440 553 493 553 q 384 506 411 553 q 351 389 357 458 m 446 921 q 492 986 492 921 q 592 1053 492 1053 q 704 961 704 1053 q 446 758 704 758 q 256 804 324 758 q 188 961 188 850 q 300 1053 188 1053 q 400 986 400 1053 q 410 937 400 953 q 446 921 419 921 z "},"Ė":{"ha":933,"x_min":96,"x_max":864,"o":"m 654 564 q 758 540 728 564 q 788 460 788 517 q 772 409 788 428 q 724 381 756 390 q 642 372 692 372 l 417 372 l 417 225 l 718 224 q 830 201 796 224 q 864 119 864 178 q 824 26 864 53 q 704 0 785 0 l 254 0 q 134 44 172 0 q 96 199 96 88 l 96 785 q 254 951 96 951 l 704 951 q 790 942 757 951 q 844 906 824 932 q 864 836 864 881 q 830 751 864 775 q 718 726 796 726 l 415 726 l 415 564 l 654 564 m 306 1146 q 345 1222 306 1193 q 457 1251 385 1251 q 608 1146 608 1251 q 569 1064 608 1088 q 457 1040 531 1040 q 349 1065 392 1040 q 306 1146 306 1090 z "},"ė":{"ha":826,"x_min":54,"x_max":775,"o":"m 446 -8 q 166 79 276 -8 q 56 318 56 167 q 165 577 56 482 q 446 672 274 672 q 684 615 608 672 q 760 457 760 557 q 708 349 760 394 q 554 301 656 303 l 358 300 q 408 230 372 256 q 500 204 444 204 q 622 219 560 204 q 680 242 649 226 q 725 257 711 257 q 762 243 749 257 q 775 208 775 229 q 753 148 775 183 q 691 77 731 113 q 586 17 651 42 q 446 -8 521 -8 m 351 389 q 456 390 447 390 q 486 415 476 390 q 493 465 493 433 q 440 553 493 553 q 384 506 411 553 q 351 389 357 458 m 278 861 q 317 938 278 908 q 428 967 357 967 q 581 861 581 967 q 542 779 581 803 q 428 756 503 756 q 321 781 364 756 q 278 861 278 806 z "},"Ę":{"ha":933,"x_min":96,"x_max":1024,"o":"m 654 564 q 758 540 728 564 q 788 460 788 517 q 772 409 788 428 q 724 381 756 390 q 642 372 692 372 l 417 372 l 417 225 l 718 224 q 830 201 796 224 q 864 119 864 178 q 863 97 864 108 l 864 97 q 863 94 863 96 q 839 40 857 61 q 808 -94 808 -46 q 820 -131 808 -115 q 849 -147 832 -147 q 893 -126 867 -147 q 942 -104 919 -104 q 997 -133 969 -104 q 1024 -193 1024 -162 q 1008 -244 1024 -219 q 918 -317 981 -293 q 801 -342 856 -342 q 702 -320 749 -342 q 626 -257 656 -299 q 596 -161 596 -215 q 646 0 596 -85 l 254 0 q 134 44 172 0 q 96 199 96 88 l 96 785 q 254 951 96 951 l 704 951 q 790 942 757 951 q 844 906 824 932 q 864 836 864 881 q 830 751 864 775 q 718 726 796 726 l 415 726 l 415 564 l 654 564 z "},"ę":{"ha":826,"x_min":54,"x_max":815,"o":"m 629 36 q 600 -94 600 -47 q 612 -131 600 -115 q 640 -147 624 -147 q 685 -126 658 -147 q 733 -104 711 -104 q 788 -133 761 -104 q 815 -193 815 -162 q 800 -244 815 -219 q 710 -317 772 -293 q 593 -342 647 -342 q 494 -320 540 -342 q 417 -257 447 -299 q 388 -161 388 -215 q 432 -8 388 -89 q 162 83 268 -4 q 56 318 56 169 q 165 577 56 482 q 446 672 274 672 q 684 615 608 672 q 760 457 760 557 q 708 349 760 394 q 554 301 656 303 l 358 300 q 408 230 372 256 q 500 204 444 204 q 622 219 560 204 q 680 242 649 226 q 725 257 711 257 q 762 243 749 257 q 775 208 775 229 q 735 122 775 174 q 629 36 696 71 m 351 389 q 456 390 447 390 q 486 415 476 390 q 493 465 493 433 q 440 553 493 553 q 384 506 411 553 q 351 389 357 458 z "},"Ě":{"ha":933,"x_min":96,"x_max":864,"o":"m 654 564 q 758 540 728 564 q 788 460 788 517 q 772 409 788 428 q 724 381 756 390 q 642 372 692 372 l 417 372 l 417 225 l 718 224 q 830 201 796 224 q 864 119 864 178 q 824 26 864 53 q 704 0 785 0 l 254 0 q 134 44 172 0 q 96 199 96 88 l 96 785 q 254 951 96 951 l 704 951 q 790 942 757 951 q 844 906 824 932 q 864 836 864 881 q 830 751 864 775 q 718 726 796 726 l 415 726 l 415 564 l 654 564 m 683 1153 q 642 1113 658 1128 q 595 1078 625 1099 q 531 1047 565 1057 q 458 1038 497 1038 q 222 1168 335 1038 q 207 1185 219 1172 q 190 1204 194 1199 q 177 1222 186 1210 q 165 1243 168 1235 q 158 1264 161 1251 q 154 1289 154 1276 q 163 1331 154 1310 q 188 1366 172 1351 q 226 1389 204 1381 q 271 1397 247 1397 q 365 1346 317 1397 q 392 1317 375 1336 q 418 1289 410 1297 q 438 1273 426 1281 q 460 1265 450 1265 q 471 1267 465 1265 q 483 1273 476 1268 q 494 1281 489 1278 q 508 1294 499 1285 q 523 1309 517 1303 q 541 1328 529 1315 q 563 1351 553 1342 q 650 1401 610 1401 q 730 1367 693 1401 q 767 1289 767 1333 q 683 1153 767 1236 z "},"ě":{"ha":826,"x_min":54,"x_max":775,"o":"m 446 -8 q 166 79 276 -8 q 56 318 56 167 q 165 577 56 482 q 446 672 274 672 q 684 615 608 672 q 760 457 760 557 q 708 349 760 394 q 554 301 656 303 l 358 300 q 408 230 372 256 q 500 204 444 204 q 622 219 560 204 q 680 242 649 226 q 725 257 711 257 q 762 243 749 257 q 775 208 775 229 q 753 148 775 183 q 691 77 731 113 q 586 17 651 42 q 446 -8 521 -8 m 351 389 q 456 390 447 390 q 486 415 476 390 q 493 465 493 433 q 440 553 493 553 q 384 506 411 553 q 351 389 357 458 m 619 878 q 590 849 600 860 q 558 822 579 839 q 517 797 536 806 q 472 781 499 789 q 417 774 444 774 q 204 892 306 774 q 190 907 201 894 q 176 924 179 919 q 164 940 172 929 q 152 959 156 951 q 146 978 149 967 q 143 1000 143 989 q 157 1049 143 1026 q 195 1085 171 1071 q 249 1099 219 1099 q 333 1051 289 1099 q 357 1026 342 1043 q 380 1001 372 1008 q 398 986 388 993 q 418 979 408 979 q 428 981 424 979 q 438 985 432 982 q 449 993 444 989 q 460 1005 453 997 q 474 1018 468 1013 q 490 1035 479 1024 q 510 1056 501 1047 q 589 1101 553 1101 q 660 1071 628 1101 q 693 1000 693 1040 q 619 878 693 953 z "},"Ğ":{"ha":1086,"x_min":71,"x_max":1018,"o":"m 628 718 q 571 761 628 761 q 471 696 513 761 q 429 478 429 631 q 477 272 429 336 q 590 207 525 207 q 646 226 624 207 q 668 281 668 246 q 592 306 619 281 q 564 365 564 331 q 590 440 564 415 q 681 465 617 465 l 849 465 q 974 431 929 465 q 1018 308 1018 396 q 896 85 1018 181 q 606 -10 774 -10 q 331 46 451 -10 q 141 212 211 101 q 71 474 71 322 q 207 829 71 699 q 568 960 343 960 q 760 940 678 960 q 889 886 842 921 q 958 810 936 851 q 981 719 981 768 q 972 669 981 693 q 942 620 964 644 q 876 581 921 596 q 769 565 832 565 q 653 592 678 565 q 628 718 628 619 m 544 1225 q 597 1297 597 1225 q 707 1371 597 1371 q 833 1268 833 1371 q 544 1044 833 1044 q 431 1056 481 1044 q 342 1091 382 1067 q 280 1160 301 1115 q 258 1268 258 1206 q 383 1371 258 1371 q 494 1297 494 1371 q 506 1242 494 1260 q 544 1225 517 1225 z "},"ğ":{"ha":867,"x_min":63,"x_max":803,"o":"m 317 -8 q 135 81 207 -8 q 63 328 63 171 q 133 579 63 486 q 315 672 204 672 q 524 594 428 672 q 643 663 560 663 q 760 629 718 663 q 803 510 803 596 l 803 256 q 785 24 803 121 q 726 -146 768 -72 q 609 -256 683 -219 q 426 -292 535 -292 q 288 -271 351 -292 q 186 -219 224 -250 q 128 -158 149 -189 q 107 -106 107 -128 q 122 -61 107 -79 q 165 -43 138 -43 q 249 -79 182 -43 q 358 -115 317 -115 q 500 31 500 -115 q 317 -8 419 -8 m 506 200 l 504 463 q 444 501 481 501 q 410 486 425 501 q 385 446 394 471 q 369 390 375 421 q 364 328 364 358 q 385 213 364 263 q 443 164 406 164 q 506 200 481 164 m 453 922 q 500 988 500 922 q 599 1053 500 1053 q 713 961 713 1053 q 453 760 713 760 q 263 805 332 760 q 194 961 194 850 q 308 1053 194 1053 q 407 988 407 1053 q 417 938 407 954 q 453 922 428 922 z "},"Ġ":{"ha":1086,"x_min":71,"x_max":1018,"o":"m 628 718 q 571 761 628 761 q 471 696 513 761 q 429 478 429 631 q 477 272 429 336 q 590 207 525 207 q 646 226 624 207 q 668 281 668 246 q 592 306 619 281 q 564 365 564 331 q 590 440 564 415 q 681 465 617 465 l 849 465 q 974 431 929 465 q 1018 308 1018 396 q 896 85 1018 181 q 606 -10 774 -10 q 331 46 451 -10 q 141 212 211 101 q 71 474 71 322 q 207 829 71 699 q 568 960 343 960 q 760 940 678 960 q 889 886 842 921 q 958 810 936 851 q 981 719 981 768 q 972 669 981 693 q 942 620 964 644 q 876 581 921 596 q 769 565 832 565 q 653 592 678 565 q 628 718 628 619 m 421 1150 q 460 1225 421 1196 q 571 1254 500 1254 q 724 1150 724 1254 q 685 1067 724 1090 q 571 1043 646 1043 q 464 1069 507 1043 q 421 1150 421 1094 z "},"ġ":{"ha":867,"x_min":63,"x_max":803,"o":"m 317 -8 q 135 81 207 -8 q 63 328 63 171 q 133 579 63 486 q 315 672 204 672 q 524 594 428 672 q 643 663 560 663 q 760 629 718 663 q 803 510 803 596 l 803 256 q 785 24 803 121 q 726 -146 768 -72 q 609 -256 683 -219 q 426 -292 535 -292 q 288 -271 351 -292 q 186 -219 224 -250 q 128 -158 149 -189 q 107 -106 107 -128 q 122 -61 107 -79 q 165 -43 138 -43 q 249 -79 182 -43 q 358 -115 317 -115 q 500 31 500 -115 q 317 -8 419 -8 m 506 200 l 504 463 q 444 501 481 501 q 410 486 425 501 q 385 446 394 471 q 369 390 375 421 q 364 328 364 358 q 385 213 364 263 q 443 164 406 164 q 506 200 481 164 m 343 863 q 383 938 343 908 q 494 967 422 967 q 646 863 646 967 q 607 779 646 803 q 494 756 568 756 q 386 781 429 756 q 343 863 343 807 z "},"Ģ":{"ha":1086,"x_min":71,"x_max":1018,"o":"m 628 718 q 571 761 628 761 q 471 696 513 761 q 429 478 429 631 q 477 272 429 336 q 590 207 525 207 q 646 226 624 207 q 668 281 668 246 q 592 306 619 281 q 564 365 564 331 q 590 440 564 415 q 681 465 617 465 l 849 465 q 974 431 929 465 q 1018 308 1018 396 q 896 85 1018 181 q 606 -10 774 -10 q 331 46 451 -10 q 141 212 211 101 q 71 474 71 322 q 207 829 71 699 q 568 960 343 960 q 760 940 678 960 q 889 886 842 921 q 958 810 936 851 q 981 719 981 768 q 972 669 981 693 q 942 620 964 644 q 876 581 921 596 q 769 565 832 565 q 653 592 678 565 q 628 718 628 619 m 435 -197 q 474 -122 435 -151 q 585 -93 513 -93 q 707 -124 660 -93 q 754 -225 754 -154 q 745 -290 754 -258 q 722 -347 736 -322 q 688 -395 707 -372 q 646 -435 668 -418 q 600 -465 624 -451 q 553 -487 576 -479 q 510 -500 531 -496 q 474 -504 490 -504 q 435 -490 450 -504 q 421 -454 421 -476 q 442 -414 421 -424 q 533 -362 504 -383 q 585 -304 561 -340 q 477 -278 519 -304 q 435 -197 435 -253 z "},"ģ":{"ha":867,"x_min":63,"x_max":803,"o":"m 317 -8 q 135 81 207 -8 q 63 328 63 171 q 133 579 63 486 q 315 672 204 672 q 524 594 428 672 q 643 663 560 663 q 760 629 718 663 q 803 510 803 596 l 803 256 q 785 24 803 121 q 726 -146 768 -72 q 609 -256 683 -219 q 426 -292 535 -292 q 288 -271 351 -292 q 186 -219 224 -250 q 128 -158 149 -189 q 107 -106 107 -128 q 122 -61 107 -79 q 165 -43 138 -43 q 249 -79 182 -43 q 358 -115 317 -115 q 500 31 500 -115 q 317 -8 419 -8 m 506 200 l 504 463 q 444 501 481 501 q 410 486 425 501 q 385 446 394 471 q 369 390 375 421 q 364 328 364 358 q 385 213 364 263 q 443 164 406 164 q 506 200 481 164 m 610 835 q 571 758 610 788 q 460 729 532 729 q 338 760 385 729 q 290 863 290 790 q 311 963 290 915 q 365 1041 332 1010 q 435 1096 397 1072 q 508 1131 474 1119 q 569 1142 543 1142 q 609 1127 594 1142 q 624 1090 624 1113 q 603 1051 624 1061 q 537 1015 561 1031 q 494 983 513 1000 q 460 940 475 965 q 567 915 525 940 q 610 835 610 890 z "},"Ĩ":{"ha":506,"x_min":-25,"x_max":549,"o":"m 417 208 q 376 50 417 100 q 254 0 336 0 q 167 17 200 0 q 116 78 135 35 q 97 197 97 122 l 97 785 q 254 951 97 951 q 376 921 335 951 q 417 797 417 890 l 417 208 m 178 1126 q 148 1065 178 1090 q 76 1040 118 1040 q 25 1049 46 1040 q -6 1074 4 1057 q -20 1109 -17 1090 q -24 1156 -24 1128 q 12 1265 -24 1218 q 110 1311 47 1311 q 346 1226 224 1311 q 376 1286 346 1261 q 449 1311 407 1311 q 528 1283 507 1311 q 549 1197 549 1254 q 534 1124 549 1158 q 488 1065 519 1089 q 414 1040 457 1040 q 333 1053 372 1040 q 271 1083 294 1067 q 222 1113 247 1099 q 178 1126 196 1126 z "},"ĩ":{"ha":393,"x_min":-83,"x_max":463,"o":"m 346 149 q 311 33 346 65 q 189 0 276 0 q 77 38 107 0 q 47 164 47 76 l 47 506 q 64 588 47 553 q 113 643 81 624 q 188 663 144 663 q 304 630 263 663 q 346 510 346 597 l 346 149 m 108 851 q 81 793 108 817 q 11 769 53 769 q -64 797 -44 769 q -83 879 -83 825 q -75 933 -83 907 q -51 980 -67 958 q -11 1015 -36 1001 q 44 1028 14 1028 q 113 1019 78 1028 q 174 999 147 1011 q 224 974 201 986 q 258 954 246 963 l 269 946 q 298 1004 269 981 q 367 1028 326 1028 q 442 1000 422 1028 q 461 919 461 972 q 448 849 461 882 q 405 792 435 815 q 333 769 375 769 q 239 790 283 769 q 163 831 194 810 q 108 851 131 851 z "},"Ī":{"ha":506,"x_min":-24,"x_max":538,"o":"m 417 208 q 376 50 417 100 q 254 0 336 0 q 167 17 200 0 q 116 78 135 35 q 97 197 97 122 l 97 785 q 254 951 97 951 q 376 921 335 951 q 417 797 417 890 l 417 208 m -24 1165 q 15 1255 -24 1226 q 111 1283 53 1283 l 400 1283 q 507 1251 476 1283 q 538 1163 538 1219 q 521 1104 538 1129 q 476 1067 504 1079 q 411 1054 447 1054 l 131 1054 q 13 1078 49 1054 q -24 1165 -24 1101 z "},"ī":{"ha":393,"x_min":-61,"x_max":444,"o":"m 346 149 q 311 33 346 65 q 189 0 276 0 q 77 38 107 0 q 47 164 47 76 l 47 506 q 64 588 47 553 q 113 643 81 624 q 188 663 144 663 q 304 630 263 663 q 346 510 346 597 l 346 149 m -61 867 q -26 948 -61 922 q 61 974 8 974 l 321 974 q 417 944 389 974 q 444 864 444 915 q 413 792 444 818 q 331 767 381 767 l 78 767 q -28 788 4 767 q -61 867 -61 808 z "},"Į":{"ha":506,"x_min":97,"x_max":560,"o":"m 186 8 q 119 68 142 24 q 97 197 97 113 l 97 785 q 254 951 97 951 q 376 921 335 951 q 417 797 417 890 l 417 208 q 382 58 417 110 q 344 -94 344 -36 q 356 -131 344 -115 q 385 -147 368 -147 q 429 -126 403 -147 q 478 -104 456 -104 q 533 -133 506 -104 q 560 -193 560 -162 q 544 -244 560 -219 q 454 -317 517 -293 q 338 -342 392 -342 q 193 -292 254 -342 q 132 -161 132 -242 q 186 8 132 -81 z "},"į":{"ha":424,"x_min":60,"x_max":519,"o":"m 144 7 q 81 57 99 19 q 63 164 63 94 l 63 506 q 101 619 63 576 q 203 663 139 663 q 319 630 278 663 q 361 510 361 597 l 361 149 q 360 121 361 133 q 357 97 360 108 l 360 97 q 356 89 358 93 q 338 44 350 63 q 304 -94 304 -43 q 316 -131 304 -115 q 344 -147 328 -147 q 389 -126 363 -147 q 438 -104 415 -104 q 492 -133 465 -104 q 519 -193 519 -162 q 504 -244 519 -219 q 414 -317 476 -293 q 297 -342 351 -342 q 153 -292 214 -342 q 92 -161 92 -242 q 144 7 92 -82 m 60 856 q 99 931 60 901 q 211 961 139 961 q 363 856 363 961 q 324 774 363 797 q 211 750 286 750 q 103 775 146 750 q 60 856 60 800 z "},"İ":{"ha":475,"x_min":97,"x_max":417,"o":"m 103 1146 q 142 1222 103 1192 q 254 1251 182 1251 q 406 1146 406 1251 q 367 1064 406 1088 q 254 1040 329 1040 q 146 1065 189 1040 q 103 1146 103 1090 m 417 208 q 376 50 417 100 q 254 0 336 0 q 167 17 200 0 q 116 78 135 35 q 97 197 97 122 l 97 785 q 254 951 97 951 q 376 921 335 951 q 417 797 417 890 l 417 208 z "},"ı":{"ha":393,"x_min":46,"x_max":346,"o":"m 346 149 q 311 33 346 65 q 189 0 276 0 q 101 19 132 0 q 58 72 69 38 q 47 164 47 106 l 47 506 q 85 619 47 576 q 188 663 124 663 q 304 630 263 663 q 346 510 346 597 l 346 149 z "},"Ķ":{"ha":1001,"x_min":92,"x_max":924,"o":"m 735 457 q 864 385 806 449 q 922 224 922 322 q 908 81 922 128 q 861 17 894 35 q 760 0 828 0 q 640 33 678 0 q 601 138 601 67 q 597 240 601 199 q 584 305 592 281 q 561 342 576 329 q 531 358 546 354 q 492 361 517 361 l 418 361 l 418 207 q 375 48 418 96 q 249 0 332 0 q 130 45 168 0 q 92 197 92 90 l 92 776 q 124 908 92 864 q 231 951 157 951 q 288 949 264 951 q 337 936 313 946 q 376 910 361 926 q 401 867 392 894 q 411 800 411 839 q 410 703 411 757 q 410 628 410 650 q 419 597 410 610 q 447 577 428 585 q 493 569 465 569 q 573 617 553 569 q 593 810 593 664 q 632 917 593 882 q 757 951 671 951 q 836 942 806 951 q 884 913 867 933 q 908 863 901 892 q 914 786 914 833 q 860 549 914 633 q 735 457 807 465 m 331 -189 q 369 -113 331 -143 q 481 -83 408 -83 q 603 -115 556 -83 q 650 -217 650 -146 q 639 -291 650 -256 q 609 -353 628 -326 q 566 -404 590 -381 q 515 -444 542 -428 q 463 -473 489 -461 q 413 -490 436 -485 q 371 -496 389 -496 q 331 -482 346 -496 q 317 -444 317 -468 q 338 -406 317 -415 q 428 -353 400 -375 q 481 -294 457 -332 q 407 -285 439 -294 q 353 -251 375 -276 q 331 -189 331 -226 z "},"ķ":{"ha":810,"x_min":65,"x_max":764,"o":"m 419 197 l 369 197 q 328 63 369 125 q 217 0 286 0 q 102 44 139 0 q 65 199 65 88 l 65 769 q 103 895 65 858 q 217 936 142 932 q 332 878 303 936 q 361 679 361 821 q 349 486 361 569 q 411 456 358 456 q 456 470 444 456 q 468 529 468 485 q 502 624 468 594 q 618 653 536 653 q 691 646 663 653 q 735 621 719 639 q 758 576 751 603 q 764 508 764 550 q 713 375 764 422 q 597 328 661 328 q 674 313 638 328 q 737 261 710 299 q 764 169 764 224 q 735 32 764 64 q 618 0 707 0 q 502 30 536 0 q 468 124 468 60 q 458 183 468 169 q 419 197 447 197 m 233 -189 q 272 -112 233 -142 q 383 -83 311 -83 q 447 -90 418 -83 q 501 -110 476 -96 q 539 -152 525 -125 q 553 -215 553 -179 q 542 -290 553 -254 q 512 -353 531 -325 q 469 -404 493 -381 q 418 -444 444 -428 q 365 -473 392 -461 q 315 -490 339 -485 q 274 -496 292 -496 q 234 -481 249 -496 q 219 -444 219 -467 q 240 -404 219 -415 q 331 -352 303 -374 q 383 -294 360 -331 q 310 -285 342 -294 q 256 -251 278 -275 q 233 -189 233 -226 z "},"Ĺ":{"ha":844,"x_min":86,"x_max":789,"o":"m 267 0 q 164 20 203 1 q 106 82 125 39 q 86 197 86 125 l 86 785 q 129 905 86 858 q 243 951 172 951 q 311 946 285 951 q 360 925 338 940 q 394 878 383 910 q 406 797 406 846 l 406 240 l 643 240 q 756 217 724 240 q 789 119 789 193 q 751 22 789 44 q 629 0 714 0 l 267 0 m 388 1357 q 461 1376 421 1376 q 549 1329 515 1376 q 582 1229 582 1282 q 486 1115 582 1151 l 299 1053 q 229 1040 261 1040 q 174 1053 199 1040 q 138 1086 150 1065 q 125 1132 125 1107 q 138 1181 125 1158 q 165 1213 151 1203 q 204 1240 178 1224 q 213 1246 210 1244 l 388 1357 z "},"ĺ":{"ha":433,"x_min":60,"x_max":517,"o":"m 369 210 q 332 49 369 97 q 217 0 294 0 q 103 44 139 0 q 67 199 67 88 l 64 785 q 106 911 64 871 q 217 951 147 951 q 331 921 293 951 q 369 797 369 890 l 369 210 m 322 1357 q 396 1376 356 1376 q 483 1329 450 1376 q 517 1229 517 1282 q 421 1115 517 1151 l 233 1053 q 164 1040 196 1040 q 109 1053 133 1040 q 72 1086 85 1065 q 60 1132 60 1107 q 73 1181 60 1158 q 99 1213 86 1203 q 139 1240 113 1224 q 147 1246 144 1244 l 322 1357 z "},"Ļ":{"ha":844,"x_min":86,"x_max":789,"o":"m 267 0 q 164 20 203 1 q 106 82 125 39 q 86 197 86 125 l 86 785 q 129 905 86 858 q 243 951 172 951 q 311 946 285 951 q 360 925 338 940 q 394 878 383 910 q 406 797 406 846 l 406 240 l 643 240 q 756 217 724 240 q 789 119 789 193 q 751 22 789 44 q 629 0 714 0 l 267 0 m 276 -189 q 315 -112 276 -142 q 426 -83 354 -83 q 490 -90 461 -83 q 544 -110 519 -96 q 582 -152 568 -125 q 596 -217 596 -179 q 585 -290 596 -254 q 555 -353 574 -325 q 512 -404 536 -381 q 461 -444 488 -428 q 408 -473 435 -461 q 358 -490 382 -485 q 317 -496 335 -496 q 277 -481 292 -496 q 263 -444 263 -467 q 283 -406 263 -415 q 375 -353 346 -375 q 428 -294 404 -331 l 426 -294 q 353 -285 385 -294 q 299 -251 321 -275 q 276 -189 276 -226 z "},"ļ":{"ha":433,"x_min":50,"x_max":383,"o":"m 369 210 q 332 49 369 97 q 217 0 294 0 q 103 44 139 0 q 67 199 67 88 l 64 785 q 106 911 64 871 q 217 951 147 951 q 331 921 293 951 q 369 797 369 890 l 369 210 m 64 -189 q 103 -112 64 -142 q 214 -83 142 -83 q 278 -90 249 -83 q 331 -110 307 -96 q 369 -152 356 -125 q 383 -215 383 -179 q 375 -281 383 -250 q 351 -338 367 -312 q 317 -386 336 -364 q 275 -425 297 -408 q 229 -456 253 -442 q 183 -478 206 -469 q 140 -491 160 -486 q 104 -496 119 -496 q 65 -481 79 -496 q 50 -444 50 -467 q 71 -404 50 -414 q 162 -352 133 -374 q 214 -294 190 -331 q 140 -285 172 -294 q 86 -251 108 -275 q 64 -189 64 -226 z "},"Ľ":{"ha":844,"x_min":86,"x_max":819,"o":"m 267 0 q 164 20 203 1 q 106 82 125 39 q 86 197 86 125 l 86 785 q 129 905 86 858 q 243 951 172 951 q 311 946 285 951 q 360 925 338 940 q 394 878 383 910 q 406 797 406 846 l 406 240 l 643 240 q 756 217 724 240 q 789 119 789 193 q 751 22 789 44 q 629 0 714 0 l 267 0 m 500 840 q 539 917 500 888 q 650 946 578 946 q 772 915 725 946 q 819 814 819 885 q 721 611 819 689 q 540 533 622 533 q 501 548 515 533 q 486 585 486 563 q 507 625 486 615 q 599 677 569 656 q 650 735 628 699 q 542 760 585 735 q 500 840 500 785 z "},"ľ":{"ha":811,"x_min":63,"x_max":768,"o":"m 369 210 q 332 49 369 97 q 217 0 294 0 q 103 44 139 0 q 67 199 67 88 l 64 785 q 106 911 64 871 q 217 951 147 951 q 331 921 293 951 q 369 797 369 890 l 369 210 m 449 840 q 488 917 449 888 q 599 946 526 946 q 721 915 674 946 q 768 814 768 885 q 669 611 768 689 q 489 533 571 533 q 449 548 464 533 q 435 585 435 563 q 456 625 435 615 q 547 677 518 656 q 599 735 576 699 q 491 760 533 735 q 449 840 449 785 z "},"Ł":{"ha":885,"x_min":-24,"x_max":846,"o":"m 324 0 q 185 47 228 3 q 143 197 143 90 l 143 340 q 68 317 100 317 q 3 345 31 317 q -24 413 -24 374 q -11 463 -24 442 q 21 497 1 483 q 79 532 40 511 l 143 567 l 143 785 q 186 905 143 858 q 300 951 229 951 q 368 946 342 951 q 417 925 394 940 q 451 878 440 910 q 463 797 463 846 l 463 740 l 508 765 q 574 786 546 786 q 644 751 614 786 q 674 674 674 717 q 617 594 674 625 l 463 511 l 463 240 l 700 240 q 813 217 781 240 q 846 119 846 193 q 808 22 846 44 q 686 0 771 0 l 324 0 z "},"ł":{"ha":674,"x_min":35,"x_max":676,"o":"m 504 210 q 467 49 504 97 q 351 0 429 0 q 238 44 274 0 q 201 199 201 88 l 201 254 q 160 235 181 242 q 122 228 140 228 q 60 256 86 228 q 35 324 35 285 q 53 383 35 358 q 117 442 72 407 l 200 508 l 199 785 q 240 911 199 871 q 351 951 282 951 q 413 946 388 951 q 460 925 438 940 q 492 878 482 910 q 503 797 503 846 l 503 750 q 585 778 540 778 q 648 745 619 778 q 676 674 676 713 q 614 582 676 632 l 504 494 l 504 210 z "},"Ń":{"ha":1074,"x_min":93,"x_max":981,"o":"m 981 132 q 944 35 981 71 q 839 0 908 0 q 806 4 822 0 q 774 15 789 8 q 742 33 760 21 q 710 54 724 44 q 678 82 697 64 q 645 112 658 100 q 610 145 632 124 q 574 179 588 167 l 319 419 l 319 118 q 294 25 319 50 q 213 0 268 0 q 122 28 151 0 q 93 121 93 56 l 93 792 q 133 911 93 871 q 249 951 174 951 q 287 949 269 951 q 318 941 304 946 q 347 926 332 936 q 374 906 361 917 q 406 878 388 896 l 757 528 l 757 831 q 772 898 757 871 q 810 938 786 925 q 868 950 835 950 q 932 938 907 950 q 969 900 957 926 q 981 832 981 874 l 981 132 m 633 1357 q 707 1376 667 1376 q 794 1329 761 1376 q 828 1229 828 1282 q 732 1115 828 1151 l 544 1053 q 475 1040 507 1040 q 420 1053 444 1040 q 383 1086 396 1065 q 371 1132 371 1107 q 384 1181 371 1158 q 410 1213 397 1203 q 450 1240 424 1224 q 458 1246 456 1244 l 633 1357 z "},"ń":{"ha":856,"x_min":61,"x_max":794,"o":"m 490 374 q 429 451 490 451 q 381 427 400 451 q 360 363 363 403 l 360 149 q 325 32 360 64 q 203 0 290 0 q 91 38 121 0 q 61 164 61 76 l 61 506 q 99 619 61 576 q 201 663 138 663 q 344 594 313 663 q 608 665 453 665 q 751 588 707 665 q 794 332 794 510 q 790 190 794 244 q 777 95 786 135 q 749 36 768 56 q 703 8 729 17 q 638 0 678 0 q 526 29 560 0 q 492 115 492 58 l 490 374 m 519 1058 q 586 1076 550 1076 q 665 1033 635 1076 q 694 942 694 990 q 608 839 694 872 l 439 782 q 375 771 404 771 q 326 782 347 771 q 293 812 304 793 q 282 854 282 831 q 294 898 282 878 q 317 928 306 918 q 353 953 329 938 q 360 958 357 956 l 519 1058 z "},"Ņ":{"ha":1074,"x_min":93,"x_max":981,"o":"m 981 132 q 944 35 981 71 q 839 0 908 0 q 806 4 822 0 q 774 15 789 8 q 742 33 760 21 q 710 54 724 44 q 678 82 697 64 q 645 112 658 100 q 610 145 632 124 q 574 179 588 167 l 319 419 l 319 118 q 294 25 319 50 q 213 0 268 0 q 122 28 151 0 q 93 121 93 56 l 93 792 q 133 911 93 871 q 249 951 174 951 q 287 949 269 951 q 318 941 304 946 q 347 926 332 936 q 374 906 361 917 q 406 878 388 896 l 757 528 l 757 831 q 772 898 757 871 q 810 938 786 925 q 868 950 835 950 q 932 938 907 950 q 969 900 957 926 q 981 832 981 874 l 981 132 m 372 -189 q 412 -113 372 -143 q 522 -83 451 -83 q 644 -115 597 -83 q 692 -217 692 -146 q 686 -269 692 -243 q 671 -317 681 -296 q 648 -359 661 -339 q 618 -395 635 -379 q 584 -426 601 -411 q 548 -451 567 -440 q 510 -471 529 -462 q 474 -485 492 -479 q 441 -493 457 -490 q 413 -496 425 -496 q 374 -482 389 -496 q 360 -444 360 -468 q 379 -406 360 -415 q 447 -370 422 -385 q 489 -337 471 -356 q 524 -294 507 -319 l 522 -294 q 467 -289 493 -294 q 419 -272 440 -283 q 385 -239 397 -260 q 372 -189 372 -218 z "},"ņ":{"ha":856,"x_min":61,"x_max":794,"o":"m 490 374 q 429 451 490 451 q 381 427 400 451 q 360 363 363 403 l 360 149 q 325 32 360 64 q 203 0 290 0 q 91 38 121 0 q 61 164 61 76 l 61 506 q 99 619 61 576 q 201 663 138 663 q 344 594 313 663 q 608 665 453 665 q 751 588 707 665 q 794 332 794 510 q 790 190 794 244 q 777 95 786 135 q 749 36 768 56 q 703 8 729 17 q 638 0 678 0 q 526 29 560 0 q 492 115 492 58 l 490 374 m 251 -189 q 291 -112 251 -142 q 403 -83 331 -83 q 466 -90 438 -83 q 519 -111 494 -97 q 558 -152 544 -125 q 572 -217 572 -179 q 561 -290 572 -254 q 531 -353 550 -326 q 488 -404 513 -381 q 438 -444 464 -428 q 384 -473 411 -461 q 334 -490 357 -485 q 292 -496 311 -496 q 253 -481 268 -496 q 239 -444 239 -467 q 258 -406 239 -415 q 350 -353 321 -375 q 403 -294 379 -331 q 294 -269 338 -294 q 251 -189 251 -244 z "},"Ň":{"ha":1074,"x_min":93,"x_max":981,"o":"m 981 132 q 944 35 981 71 q 839 0 908 0 q 806 4 822 0 q 774 15 789 8 q 742 33 760 21 q 710 54 724 44 q 678 82 697 64 q 645 112 658 100 q 610 145 632 124 q 574 179 588 167 l 319 419 l 319 118 q 294 25 319 50 q 213 0 268 0 q 122 28 151 0 q 93 121 93 56 l 93 792 q 133 911 93 871 q 249 951 174 951 q 287 949 269 951 q 318 941 304 946 q 347 926 332 936 q 374 906 361 917 q 406 878 388 896 l 757 528 l 757 831 q 772 898 757 871 q 810 938 786 925 q 868 950 835 950 q 932 938 907 950 q 969 900 957 926 q 981 832 981 874 l 981 132 m 767 1153 q 725 1113 742 1128 q 678 1078 708 1099 q 615 1047 649 1057 q 542 1038 581 1038 q 306 1168 418 1038 q 292 1183 301 1172 q 278 1199 283 1193 q 266 1214 274 1204 q 254 1231 258 1224 q 246 1249 250 1239 q 240 1268 242 1258 q 238 1289 238 1278 q 253 1343 238 1318 q 297 1383 269 1368 q 356 1397 324 1397 q 449 1346 400 1397 q 476 1317 458 1336 q 501 1289 493 1297 q 522 1273 510 1281 q 543 1265 533 1265 q 554 1267 549 1265 q 566 1273 560 1268 q 577 1281 572 1278 q 591 1294 582 1285 q 606 1309 600 1303 q 625 1328 613 1315 q 646 1351 638 1342 q 733 1401 693 1401 q 813 1367 776 1401 q 850 1289 850 1333 q 767 1153 850 1236 z "},"ň":{"ha":856,"x_min":61,"x_max":794,"o":"m 490 374 q 429 451 490 451 q 381 427 400 451 q 360 363 363 403 l 360 149 q 325 32 360 64 q 203 0 290 0 q 91 38 121 0 q 61 164 61 76 l 61 506 q 99 619 61 576 q 201 663 138 663 q 344 594 313 663 q 608 665 453 665 q 751 588 707 665 q 794 332 794 510 q 790 190 794 244 q 777 95 786 135 q 749 36 768 56 q 703 8 729 17 q 638 0 678 0 q 526 29 560 0 q 492 115 492 58 l 490 374 m 629 878 q 600 849 611 858 q 567 822 589 839 q 527 797 546 806 q 481 781 508 788 q 426 774 454 774 q 214 892 315 774 q 200 907 211 894 q 185 924 189 919 q 174 940 182 928 q 162 959 165 951 q 156 978 158 967 q 153 999 153 989 q 167 1048 153 1025 q 205 1084 181 1071 q 258 1097 229 1097 q 343 1051 299 1097 q 367 1024 351 1042 q 390 999 382 1007 q 408 985 397 992 q 428 979 418 979 q 438 981 433 979 q 448 985 442 982 q 458 992 454 989 q 471 1004 463 996 q 485 1018 479 1013 q 501 1035 490 1024 q 519 1056 511 1047 q 599 1100 563 1100 q 670 1070 638 1100 q 703 999 703 1040 q 629 878 703 951 z "},"Ō":{"ha":1118,"x_min":71,"x_max":1046,"o":"m 558 194 q 623 219 594 194 q 668 283 651 243 q 694 370 685 322 q 703 469 703 418 q 688 603 703 540 q 638 711 672 667 q 558 756 604 756 q 481 711 514 756 q 431 603 447 667 q 414 469 414 539 q 430 339 414 400 q 480 236 446 278 q 558 194 514 194 m 558 -8 q 368 24 457 -8 q 213 115 279 56 q 110 267 147 175 q 72 469 72 358 q 208 827 72 694 q 558 960 343 960 q 910 827 774 960 q 1046 469 1046 694 q 980 211 1046 321 q 804 47 914 101 q 558 -8 694 -8 m 276 1165 q 284 1210 276 1190 q 304 1244 292 1231 q 334 1267 317 1258 q 370 1280 351 1276 q 411 1283 389 1283 l 700 1283 q 807 1251 776 1283 q 838 1163 838 1219 q 828 1116 838 1136 q 801 1082 818 1096 q 760 1061 783 1068 q 711 1054 738 1054 l 431 1054 q 313 1078 349 1054 q 276 1165 276 1101 z "},"ō":{"ha":876,"x_min":54,"x_max":824,"o":"m 513 329 q 494 456 513 401 q 442 511 476 511 q 385 456 406 511 q 365 329 365 400 q 385 205 365 258 q 440 151 404 151 q 474 167 460 151 q 496 208 488 182 q 508 265 504 233 q 513 329 513 296 m 440 -10 q 245 29 332 -10 q 106 146 158 68 q 54 328 54 224 q 163 579 54 486 q 440 672 271 672 q 717 579 610 672 q 824 328 824 486 q 715 81 824 171 q 440 -10 606 -10 m 196 864 q 231 945 196 919 q 317 971 265 971 l 578 971 q 674 942 646 971 q 701 863 701 914 q 669 791 701 817 q 588 765 636 765 l 335 765 q 228 786 261 765 q 196 864 196 807 z "},"Ŏ":{"ha":1118,"x_min":71,"x_max":1046,"o":"m 558 194 q 623 219 594 194 q 668 283 651 243 q 694 370 685 322 q 703 469 703 418 q 688 603 703 540 q 638 711 672 667 q 558 756 604 756 q 481 711 514 756 q 431 603 447 667 q 414 469 414 539 q 430 339 414 400 q 480 236 446 278 q 558 194 514 194 m 558 -8 q 368 24 457 -8 q 213 115 279 56 q 110 267 147 175 q 72 469 72 358 q 208 827 72 694 q 558 960 343 960 q 910 827 774 960 q 1046 469 1046 694 q 980 211 1046 321 q 804 47 914 101 q 558 -8 694 -8 m 556 1225 q 608 1297 608 1225 q 718 1371 608 1371 q 844 1268 844 1371 q 556 1044 844 1044 q 442 1056 492 1044 q 353 1091 393 1067 q 291 1160 313 1115 q 269 1268 269 1206 q 394 1371 269 1371 q 506 1297 506 1371 q 517 1242 506 1260 q 556 1225 528 1225 z "},"ŏ":{"ha":876,"x_min":54,"x_max":824,"o":"m 513 329 q 494 456 513 401 q 442 511 476 511 q 385 456 406 511 q 365 329 365 400 q 385 205 365 258 q 440 151 404 151 q 474 167 460 151 q 496 208 488 182 q 508 265 504 233 q 513 329 513 296 m 440 -10 q 245 29 332 -10 q 106 146 158 68 q 54 328 54 224 q 163 579 54 486 q 440 672 271 672 q 717 579 610 672 q 824 328 824 486 q 715 81 824 171 q 440 -10 606 -10 m 440 921 q 486 986 486 921 q 586 1053 486 1053 q 699 960 699 1053 q 440 758 699 758 q 250 804 318 758 q 182 960 182 850 q 294 1053 182 1053 q 394 986 394 1053 q 404 937 394 953 q 440 921 414 921 z "},"Ő":{"ha":1118,"x_min":71,"x_max":1046,"o":"m 558 194 q 623 219 594 194 q 668 283 651 243 q 694 370 685 322 q 703 469 703 418 q 688 603 703 540 q 638 711 672 667 q 558 756 604 756 q 481 711 514 756 q 431 603 447 667 q 414 469 414 539 q 430 339 414 400 q 480 236 446 278 q 558 194 514 194 m 558 -8 q 368 24 457 -8 q 213 115 279 56 q 110 267 147 175 q 72 469 72 358 q 208 827 72 694 q 558 960 343 960 q 910 827 774 960 q 1046 469 1046 694 q 980 211 1046 321 q 804 47 914 101 q 558 -8 694 -8 m 464 1347 q 543 1315 503 1347 q 583 1238 583 1282 q 544 1156 583 1199 l 428 1046 q 416 1035 425 1043 q 403 1025 407 1028 q 391 1017 400 1022 q 376 1009 382 1011 q 360 1005 369 1007 q 343 1003 351 1003 q 289 1025 314 1003 q 264 1076 264 1047 q 265 1090 264 1083 q 269 1102 267 1096 q 275 1116 271 1108 q 282 1129 279 1124 q 290 1144 285 1135 q 296 1158 294 1153 q 359 1271 333 1231 q 413 1331 385 1311 q 464 1347 436 1347 m 831 1347 q 910 1315 869 1347 q 950 1238 950 1282 q 911 1156 950 1199 l 794 1046 q 783 1035 792 1043 q 770 1025 774 1028 q 758 1017 767 1022 q 742 1009 749 1011 q 727 1005 736 1007 q 710 1003 718 1003 q 656 1025 681 1003 q 631 1076 631 1047 q 632 1090 631 1083 q 635 1102 633 1096 q 642 1116 638 1108 q 649 1129 646 1124 q 656 1144 651 1135 q 663 1158 661 1153 q 726 1271 700 1231 q 779 1331 751 1311 q 831 1347 803 1347 z "},"ő":{"ha":876,"x_min":54,"x_max":831,"o":"m 513 329 q 494 456 513 401 q 442 511 476 511 q 385 456 406 511 q 365 329 365 400 q 385 205 365 258 q 440 151 404 151 q 474 167 460 151 q 496 208 488 182 q 508 265 504 233 q 513 329 513 296 m 440 -10 q 245 29 332 -10 q 106 146 158 68 q 54 328 54 224 q 163 579 54 486 q 440 672 271 672 q 717 579 610 672 q 824 328 824 486 q 715 81 824 171 q 440 -10 606 -10 m 343 1060 q 422 1027 382 1060 q 463 951 463 994 q 424 869 463 911 l 307 758 q 297 749 304 756 q 286 740 290 743 q 276 733 282 738 q 264 726 269 728 q 251 721 258 724 q 237 717 244 718 q 222 715 229 715 q 168 738 193 715 q 143 790 143 760 q 144 802 143 796 q 148 815 146 808 q 154 828 150 821 q 161 842 158 836 q 169 856 164 847 q 175 871 174 865 q 238 983 213 943 q 292 1043 264 1024 q 343 1060 315 1060 m 710 1060 q 789 1027 749 1060 q 829 951 829 994 q 790 869 829 911 l 674 758 q 662 749 671 757 q 649 738 653 740 q 637 729 646 735 q 622 722 628 724 q 606 717 615 719 q 589 715 597 715 q 535 738 560 715 q 510 790 510 760 q 511 803 510 796 q 517 821 513 811 q 524 837 521 831 q 534 855 528 843 q 542 871 540 867 q 605 983 579 943 q 658 1043 631 1024 q 710 1060 682 1060 z "},"Œ":{"ha":1836,"x_min":138,"x_max":1731,"o":"m 625 194 q 690 219 661 194 q 735 283 718 243 q 760 370 751 322 q 769 469 769 418 q 754 603 769 540 q 705 711 739 667 q 625 756 671 756 q 547 711 581 756 q 497 603 514 667 q 481 469 481 539 q 497 339 481 400 q 547 236 513 278 q 625 194 581 194 m 1521 564 q 1624 540 1594 564 q 1654 460 1654 517 q 1638 409 1654 428 q 1590 381 1622 390 q 1508 372 1558 372 l 1283 372 l 1283 225 l 1585 224 q 1697 201 1663 224 q 1731 119 1731 178 q 1691 26 1731 53 q 1571 0 1651 0 l 1121 0 q 1019 26 1056 0 q 969 115 982 53 q 625 -8 835 -8 q 378 47 488 -8 q 204 211 269 101 q 139 469 139 321 q 274 827 139 694 q 625 960 410 960 q 815 928 728 960 q 967 836 903 896 q 1121 951 990 951 l 1571 951 q 1691 926 1651 951 q 1731 836 1731 901 q 1697 751 1731 775 q 1585 726 1663 726 l 1282 726 l 1282 564 l 1521 564 z "},"œ":{"ha":1371,"x_min":49,"x_max":1325,"o":"m 507 329 q 500 415 507 375 q 476 483 493 456 q 436 511 460 511 q 380 456 400 511 q 360 329 360 400 q 367 245 360 285 q 393 178 375 206 q 435 151 411 151 q 489 204 471 151 q 507 329 507 257 m 435 -10 q 240 29 326 -10 q 101 146 153 68 q 49 328 49 224 q 157 579 49 486 q 435 672 265 672 q 714 576 608 672 q 996 672 821 672 q 1234 615 1158 672 q 1310 457 1310 557 q 1258 349 1310 394 q 1104 301 1206 303 l 908 300 q 958 230 922 256 q 1050 204 994 204 q 1172 219 1110 204 q 1230 242 1199 226 q 1275 257 1261 257 q 1312 243 1299 257 q 1325 208 1325 229 q 1303 148 1325 183 q 1241 77 1281 113 q 1136 17 1201 42 q 996 -8 1071 -8 q 838 15 911 -8 q 711 82 764 38 q 435 -10 604 -10 m 901 389 q 1006 390 997 390 q 1036 415 1026 390 q 1043 465 1043 433 q 990 553 1043 553 q 952 532 971 553 q 919 473 933 511 q 901 389 906 435 z "},"Ŕ":{"ha":1000,"x_min":83,"x_max":929,"o":"m 617 675 q 568 767 617 742 q 404 792 519 792 l 404 551 q 520 562 475 551 q 591 600 565 572 q 617 675 617 628 m 404 208 q 242 0 404 0 q 154 17 188 0 q 102 78 121 35 q 83 199 83 122 l 83 785 q 127 908 83 865 q 242 950 171 950 l 533 950 q 810 870 704 950 q 915 665 915 790 q 876 517 915 571 q 749 439 836 464 q 832 410 792 436 q 901 334 872 383 q 929 224 929 285 q 912 83 929 132 q 863 17 894 33 q 772 0 831 0 q 652 34 690 0 q 614 138 614 68 q 597 270 614 224 q 554 331 581 317 q 481 344 528 344 l 404 343 l 404 208 m 567 1357 q 640 1376 600 1376 q 728 1329 694 1376 q 761 1229 761 1282 q 665 1115 761 1151 l 478 1053 q 408 1040 440 1040 q 353 1053 378 1040 q 317 1086 329 1065 q 304 1132 304 1107 q 317 1181 304 1158 q 344 1213 331 1203 q 383 1240 357 1224 q 392 1246 389 1244 l 567 1357 z "},"ŕ":{"ha":656,"x_min":63,"x_max":644,"o":"m 363 149 q 328 33 363 65 q 204 0 293 0 q 93 38 122 0 q 64 164 64 76 l 64 506 q 102 619 64 576 q 204 663 140 663 q 343 601 310 663 q 499 663 424 663 q 644 524 644 663 q 630 459 644 488 q 590 415 615 431 q 529 399 564 399 q 462 424 492 399 q 408 449 432 449 q 363 428 378 449 l 363 149 m 392 1058 q 458 1076 422 1076 q 537 1033 507 1076 q 567 942 567 990 q 481 839 567 872 l 311 782 q 247 771 276 771 q 180 795 206 771 q 154 854 154 819 q 166 898 154 878 q 190 928 178 918 q 225 953 201 938 q 232 958 229 956 l 392 1058 z "},"Ŗ":{"ha":1000,"x_min":83,"x_max":929,"o":"m 617 675 q 568 767 617 742 q 404 792 519 792 l 404 551 q 520 562 475 551 q 591 600 565 572 q 617 675 617 628 m 404 208 q 242 0 404 0 q 154 17 188 0 q 102 78 121 35 q 83 199 83 122 l 83 785 q 127 908 83 865 q 242 950 171 950 l 533 950 q 810 870 704 950 q 915 665 915 790 q 876 517 915 571 q 749 439 836 464 q 832 410 792 436 q 901 334 872 383 q 929 224 929 285 q 912 83 929 132 q 863 17 894 33 q 772 0 831 0 q 652 34 690 0 q 614 138 614 68 q 597 270 614 224 q 554 331 581 317 q 481 344 528 344 l 404 343 l 404 208 m 336 -189 q 376 -112 336 -142 q 486 -83 415 -83 q 608 -114 561 -83 q 656 -217 656 -144 q 644 -290 656 -254 q 615 -353 633 -325 q 573 -404 597 -381 q 522 -444 549 -428 q 469 -473 496 -461 q 418 -490 442 -485 q 376 -496 394 -496 q 338 -481 353 -496 q 322 -444 322 -467 q 343 -406 322 -415 q 435 -353 406 -375 q 488 -294 464 -331 l 486 -294 q 379 -269 422 -294 q 336 -189 336 -244 z "},"ŗ":{"ha":656,"x_min":44,"x_max":644,"o":"m 363 149 q 328 33 363 65 q 204 0 293 0 q 93 38 122 0 q 64 164 64 76 l 64 506 q 102 619 64 576 q 204 663 140 663 q 343 601 310 663 q 499 663 424 663 q 644 524 644 663 q 630 459 644 488 q 590 415 615 431 q 529 399 564 399 q 462 424 492 399 q 408 449 432 449 q 363 428 378 449 l 363 149 m 58 -189 q 98 -112 58 -142 q 208 -83 138 -83 q 331 -114 283 -83 q 378 -217 378 -144 q 369 -281 378 -250 q 347 -338 361 -312 q 313 -386 332 -364 q 270 -426 293 -408 q 224 -456 247 -443 q 178 -478 200 -469 q 135 -492 156 -487 q 99 -496 115 -496 q 60 -481 75 -496 q 46 -444 46 -467 q 65 -406 46 -415 q 132 -369 108 -385 q 174 -337 156 -354 q 210 -294 193 -319 l 208 -294 q 135 -285 168 -294 q 81 -251 103 -275 q 58 -189 58 -226 z "},"Ř":{"ha":1000,"x_min":83,"x_max":929,"o":"m 617 675 q 568 767 617 742 q 404 792 519 792 l 404 551 q 520 562 475 551 q 591 600 565 572 q 617 675 617 628 m 404 208 q 242 0 404 0 q 154 17 188 0 q 102 78 121 35 q 83 199 83 122 l 83 785 q 127 908 83 865 q 242 950 171 950 l 533 950 q 810 870 704 950 q 915 665 915 790 q 876 517 915 571 q 749 439 836 464 q 832 410 792 436 q 901 334 872 383 q 929 224 929 285 q 912 83 929 132 q 863 17 894 33 q 772 0 831 0 q 652 34 690 0 q 614 138 614 68 q 597 270 614 224 q 554 331 581 317 q 481 344 528 344 l 404 343 l 404 208 m 699 1157 q 657 1117 674 1132 q 610 1082 640 1103 q 547 1051 581 1061 q 474 1042 513 1042 q 238 1172 350 1042 q 223 1190 235 1176 q 206 1208 211 1203 q 192 1226 201 1214 q 180 1247 183 1239 q 173 1268 176 1256 q 169 1293 169 1281 q 204 1369 169 1338 q 288 1401 239 1401 q 381 1350 332 1401 q 408 1321 390 1340 q 433 1293 425 1301 q 453 1277 442 1285 q 475 1269 465 1269 q 486 1271 481 1269 q 498 1277 492 1272 q 509 1285 504 1282 q 523 1298 514 1289 q 538 1313 532 1307 q 557 1333 544 1319 q 578 1356 569 1346 q 665 1406 625 1406 q 745 1372 708 1406 q 782 1293 782 1338 q 699 1157 782 1240 z "},"ř":{"ha":656,"x_min":63,"x_max":644,"o":"m 363 149 q 328 33 363 65 q 204 0 293 0 q 93 38 122 0 q 64 164 64 76 l 64 506 q 102 619 64 576 q 204 663 140 663 q 343 601 310 663 q 499 663 424 663 q 644 524 644 663 q 630 459 644 488 q 590 415 615 431 q 529 399 564 399 q 462 424 492 399 q 408 449 432 449 q 363 428 378 449 l 363 149 m 546 878 q 508 842 522 854 q 466 810 493 829 q 408 783 439 792 q 343 774 378 774 q 131 892 232 774 q 117 907 128 894 q 102 924 106 919 q 90 940 99 928 q 78 959 82 951 q 72 978 75 967 q 69 999 69 989 q 83 1048 69 1025 q 122 1084 97 1071 q 175 1097 146 1097 q 260 1051 215 1097 q 283 1024 268 1042 q 306 999 299 1007 q 324 985 314 992 q 344 979 335 979 q 354 981 350 979 q 365 985 358 982 q 375 992 371 989 q 387 1004 379 996 q 400 1018 394 1013 q 417 1035 406 1024 q 436 1056 428 1047 q 515 1100 479 1100 q 587 1070 554 1100 q 619 999 619 1040 q 546 878 619 951 z "},"Ś":{"ha":964,"x_min":58,"x_max":897,"o":"m 475 961 q 757 893 640 961 q 874 749 874 825 q 856 703 874 719 q 814 686 838 686 q 739 712 789 686 q 628 763 689 738 q 515 789 567 789 q 433 722 433 789 q 447 683 433 701 q 489 644 460 664 q 546 608 518 624 q 622 567 574 593 q 704 522 671 542 q 854 406 811 461 q 897 278 897 350 q 510 -10 897 -10 q 362 6 433 -10 q 237 46 290 21 q 142 101 183 71 q 81 164 101 132 q 60 224 60 196 q 80 276 60 254 q 139 297 100 297 q 279 260 168 297 q 458 224 390 224 q 521 267 521 224 q 512 297 521 285 q 477 326 503 310 q 425 357 451 343 q 341 401 399 371 q 233 461 283 432 q 145 533 182 490 q 92 619 108 576 q 75 697 75 661 q 119 832 75 774 q 256 926 164 890 q 475 961 347 961 m 539 1357 q 611 1376 572 1376 q 699 1329 667 1376 q 732 1229 732 1282 q 636 1115 732 1151 l 450 1053 q 381 1040 411 1040 q 305 1067 333 1040 q 276 1132 276 1093 q 290 1181 276 1158 q 316 1213 303 1203 q 354 1240 329 1224 q 363 1246 360 1244 l 539 1357 z "},"ś":{"ha":781,"x_min":56,"x_max":728,"o":"m 390 672 q 606 619 519 672 q 692 504 692 567 q 688 488 692 496 q 676 472 683 479 q 659 460 669 465 q 638 456 649 456 q 592 470 617 456 q 544 501 567 485 q 486 532 522 518 q 410 546 450 546 q 356 513 356 546 q 375 481 356 494 q 419 460 394 467 q 483 441 444 453 q 546 417 521 429 q 689 330 650 376 q 728 207 728 283 q 707 133 728 169 q 644 63 686 96 q 531 10 603 31 q 368 -10 460 -10 q 143 42 229 -10 q 57 156 57 93 q 74 197 57 182 q 124 213 92 213 q 221 181 156 213 q 342 150 286 150 q 418 188 418 150 q 378 219 418 207 q 272 247 338 231 q 168 289 207 264 q 83 355 107 315 q 58 451 58 394 q 100 566 58 515 q 217 644 142 617 q 390 672 293 672 m 444 1046 q 510 1064 474 1064 q 590 1021 560 1064 q 619 929 619 978 q 533 826 619 860 l 364 769 q 300 758 329 758 q 232 783 258 758 q 206 842 206 807 q 217 885 206 865 q 241 915 229 906 q 278 940 253 925 q 285 946 282 943 l 444 1046 z "},"Ş":{"ha":964,"x_min":58,"x_max":897,"o":"m 582 -50 q 639 -153 639 -79 q 581 -290 639 -237 q 444 -342 524 -342 q 392 -336 421 -342 q 334 -320 364 -331 q 285 -290 304 -310 q 265 -243 265 -269 q 288 -181 265 -211 q 333 -151 310 -151 q 363 -160 343 -151 q 390 -168 383 -168 q 413 -157 403 -168 q 422 -131 422 -146 q 395 -98 422 -118 q 368 -62 368 -78 q 372 -47 368 -58 q 380 -24 375 -36 q 392 1 385 -12 q 154 93 249 25 q 60 224 60 161 q 80 276 60 254 q 139 297 100 297 q 279 260 168 297 q 458 224 390 224 q 521 267 521 224 q 512 297 521 285 q 477 326 503 310 q 425 357 451 343 q 341 401 399 371 q 233 461 283 432 q 145 533 182 490 q 92 619 108 576 q 75 697 75 661 q 119 832 75 774 q 256 926 164 890 q 475 961 347 961 q 757 893 640 961 q 874 749 874 825 q 856 703 874 719 q 814 686 838 686 q 739 712 789 686 q 628 763 689 738 q 515 789 567 789 q 433 722 433 789 q 447 683 433 701 q 489 644 460 664 q 546 608 518 624 q 622 567 574 593 q 704 522 671 542 q 854 406 811 461 q 897 278 897 350 q 571 -7 897 14 q 564 -32 564 -25 q 582 -50 564 -42 z "},"ş":{"ha":781,"x_min":56,"x_max":728,"o":"m 507 -50 q 565 -153 565 -79 q 507 -290 565 -237 q 369 -342 449 -342 q 319 -336 347 -342 q 260 -320 290 -331 q 210 -290 231 -310 q 190 -243 190 -269 q 213 -181 190 -211 q 260 -151 236 -151 q 289 -160 269 -151 q 315 -168 308 -168 q 338 -157 328 -168 q 347 -131 347 -146 q 320 -98 347 -118 q 293 -62 293 -78 q 313 -7 293 -51 q 127 51 197 3 q 57 156 57 100 q 74 197 57 182 q 124 213 92 213 q 221 181 156 213 q 342 150 286 150 q 418 188 418 150 q 378 219 418 207 q 272 247 338 231 q 168 289 207 264 q 83 355 107 315 q 58 451 58 394 q 100 566 58 515 q 217 644 142 617 q 390 672 293 672 q 606 619 519 672 q 692 504 692 567 q 688 488 692 496 q 676 472 683 479 q 659 460 669 465 q 638 456 649 456 q 592 470 617 456 q 544 501 567 485 q 486 532 522 518 q 410 546 450 546 q 356 513 356 546 q 375 481 356 494 q 419 460 394 467 q 483 441 444 453 q 546 417 521 429 q 689 330 650 376 q 728 207 728 283 q 670 85 728 143 q 500 3 613 26 q 489 -32 489 -24 q 507 -50 489 -42 z "},"Š":{"ha":964,"x_min":58,"x_max":897,"o":"m 475 961 q 757 893 640 961 q 874 749 874 825 q 856 703 874 719 q 814 686 838 686 q 739 712 789 686 q 628 763 689 738 q 515 789 567 789 q 433 722 433 789 q 447 683 433 701 q 489 644 460 664 q 546 608 518 624 q 622 567 574 593 q 704 522 671 542 q 854 406 811 461 q 897 278 897 350 q 510 -10 897 -10 q 362 6 433 -10 q 237 46 290 21 q 142 101 183 71 q 81 164 101 132 q 60 224 60 196 q 80 276 60 254 q 139 297 100 297 q 279 260 168 297 q 458 224 390 224 q 521 267 521 224 q 512 297 521 285 q 477 326 503 310 q 425 357 451 343 q 341 401 399 371 q 233 461 283 432 q 145 533 182 490 q 92 619 108 576 q 75 697 75 661 q 119 832 75 774 q 256 926 164 890 q 475 961 347 961 m 715 1153 q 673 1113 689 1128 q 627 1078 657 1099 q 563 1047 597 1057 q 490 1038 529 1038 q 253 1168 367 1038 q 238 1185 250 1172 q 222 1204 226 1199 q 209 1222 218 1210 q 196 1243 200 1235 q 189 1264 192 1251 q 186 1289 186 1276 q 220 1365 186 1333 q 303 1397 254 1397 q 397 1346 347 1397 q 424 1317 407 1336 q 449 1289 440 1297 q 469 1273 457 1281 q 492 1265 481 1265 q 502 1267 497 1265 q 514 1273 507 1268 q 526 1281 521 1278 q 539 1294 531 1285 q 553 1309 547 1303 q 572 1328 560 1315 q 593 1351 585 1342 q 682 1401 642 1401 q 761 1367 725 1401 q 797 1289 797 1333 q 715 1153 797 1236 z "},"š":{"ha":781,"x_min":56,"x_max":728,"o":"m 390 672 q 606 619 519 672 q 692 504 692 567 q 688 488 692 496 q 676 472 683 479 q 659 460 669 465 q 638 456 649 456 q 592 470 617 456 q 544 501 567 485 q 486 532 522 518 q 410 546 450 546 q 356 513 356 546 q 375 481 356 494 q 419 460 394 467 q 483 441 444 453 q 546 417 521 429 q 689 330 650 376 q 728 207 728 283 q 707 133 728 169 q 644 63 686 96 q 531 10 603 31 q 368 -10 460 -10 q 143 42 229 -10 q 57 156 57 93 q 74 197 57 182 q 124 213 92 213 q 221 181 156 213 q 342 150 286 150 q 418 188 418 150 q 378 219 418 207 q 272 247 338 231 q 168 289 207 264 q 83 355 107 315 q 58 451 58 394 q 100 566 58 515 q 217 644 142 617 q 390 672 293 672 m 592 878 q 553 842 568 854 q 512 810 539 829 q 454 783 485 792 q 389 774 424 774 q 175 892 278 774 q 164 905 172 896 q 151 919 156 914 q 140 933 147 925 q 130 949 133 942 q 122 964 126 956 q 116 981 118 972 q 114 1000 114 990 q 145 1069 114 1040 q 221 1099 176 1099 q 306 1051 260 1099 q 329 1026 314 1043 q 352 1001 344 1008 q 370 986 360 993 q 390 979 381 979 q 399 981 394 979 q 407 984 403 982 q 417 990 411 986 q 426 999 422 994 q 438 1010 431 1003 q 450 1022 444 1017 q 465 1038 456 1028 q 482 1056 475 1049 q 561 1101 525 1101 q 633 1071 600 1101 q 665 1000 665 1040 q 592 878 665 953 z "},"Ţ":{"ha":1024,"x_min":68,"x_max":972,"o":"m 613 -50 q 669 -153 669 -79 q 612 -290 669 -237 q 475 -342 554 -342 q 423 -336 451 -342 q 365 -320 394 -331 q 315 -290 335 -310 q 296 -243 296 -269 q 318 -181 296 -211 q 364 -151 340 -151 q 394 -160 374 -151 q 421 -168 414 -168 q 436 -163 429 -168 q 448 -150 443 -158 q 453 -131 453 -142 q 426 -98 453 -118 q 399 -62 399 -78 q 431 19 399 -47 q 381 82 397 39 q 364 199 365 125 l 361 711 l 243 711 q 112 739 156 711 q 68 838 68 767 q 106 926 68 901 q 231 951 143 951 l 825 951 q 938 924 903 951 q 972 828 972 896 q 952 756 972 782 q 899 721 932 731 q 813 711 865 711 l 683 711 l 683 208 q 613 19 683 60 q 594 -32 594 -19 q 613 -50 594 -42 z "},"ţ":{"ha":696,"x_min":39,"x_max":629,"o":"m 458 -50 q 517 -153 517 -79 q 458 -290 517 -237 q 321 -342 400 -342 q 270 -336 299 -342 q 212 -320 242 -331 q 162 -290 182 -310 q 142 -243 142 -269 q 165 -181 142 -211 q 211 -151 188 -151 q 240 -160 221 -151 q 267 -168 260 -168 q 289 -157 279 -168 q 299 -131 299 -146 q 272 -98 299 -118 q 244 -62 244 -78 q 275 15 244 -47 q 166 106 199 39 q 133 297 133 174 l 133 461 q 61 484 83 464 q 39 542 39 504 q 135 628 39 621 l 135 757 q 211 852 135 810 q 363 894 288 894 q 422 868 408 894 q 436 789 436 842 l 438 629 l 475 629 q 580 609 551 629 q 608 536 608 589 q 574 476 608 493 q 463 460 540 460 l 438 460 l 438 307 q 446 248 438 263 q 476 233 454 233 q 504 245 493 233 q 522 272 515 257 q 538 298 528 286 q 563 310 549 310 q 612 294 594 310 q 629 257 629 279 q 612 165 629 213 q 553 72 594 117 q 454 10 511 26 q 440 -32 440 -22 q 458 -50 440 -42 z "},"Ť":{"ha":1024,"x_min":68,"x_max":972,"o":"m 683 208 q 644 46 683 92 q 521 0 604 0 q 402 44 439 0 q 364 199 365 88 l 361 711 l 243 711 q 112 739 156 711 q 68 838 68 767 q 106 926 68 901 q 231 951 143 951 l 825 951 q 938 924 903 951 q 972 828 972 896 q 952 756 972 782 q 899 721 932 731 q 813 711 865 711 l 683 711 l 683 208 m 757 1153 q 724 1122 736 1132 q 688 1092 713 1111 q 644 1064 664 1074 q 593 1046 624 1054 q 532 1038 563 1038 q 294 1168 408 1038 q 280 1185 292 1172 q 264 1204 268 1199 q 251 1222 260 1210 q 238 1243 242 1235 q 231 1264 235 1251 q 228 1289 228 1276 q 262 1365 228 1333 q 344 1397 296 1397 q 439 1346 389 1397 q 465 1317 449 1336 q 490 1289 482 1297 q 510 1273 499 1281 q 533 1265 522 1265 q 544 1267 539 1265 q 556 1273 550 1268 q 567 1281 563 1278 q 581 1294 572 1285 q 596 1309 590 1303 q 614 1328 601 1315 q 635 1351 626 1342 q 724 1401 683 1401 q 803 1367 767 1401 q 839 1289 839 1333 q 757 1153 839 1236 z "},"ť":{"ha":1026,"x_min":39,"x_max":993,"o":"m 133 297 l 133 461 q 61 484 83 464 q 39 542 39 504 q 135 628 39 621 l 135 757 q 211 852 135 810 q 363 894 288 894 q 422 868 408 894 q 436 789 436 842 l 438 629 l 475 629 q 580 609 551 629 q 608 536 608 589 q 574 476 608 493 q 463 460 540 460 l 438 460 l 438 307 q 446 248 438 263 q 476 233 454 233 q 504 245 493 233 q 522 272 515 257 q 538 298 528 286 q 563 310 549 310 q 612 294 594 310 q 629 257 629 279 q 615 176 629 219 q 572 93 600 133 q 495 26 544 53 q 385 0 446 0 q 190 69 247 0 q 133 297 133 139 m 674 826 q 713 903 674 874 q 824 932 751 932 q 946 901 899 932 q 993 800 993 871 q 982 726 993 761 q 952 663 971 690 q 909 611 933 635 q 858 571 885 588 q 806 542 832 554 q 756 525 779 531 q 714 519 732 519 q 674 534 689 519 q 660 571 660 549 q 681 611 660 601 q 772 663 743 642 q 824 721 801 685 q 716 746 758 721 q 674 826 674 771 z "},"Ũ":{"ha":1024,"x_min":81,"x_max":936,"o":"m 936 785 l 936 371 q 838 80 936 168 q 508 -8 740 -8 q 184 86 288 -8 q 81 371 81 181 l 81 785 q 124 905 81 858 q 235 951 168 951 q 359 921 317 951 q 401 797 401 890 l 401 344 q 429 253 403 279 q 508 226 456 226 q 594 256 574 226 q 615 344 615 286 l 615 799 q 627 878 615 846 q 663 925 639 910 q 713 946 688 940 q 775 951 739 951 q 896 913 856 951 q 936 785 936 874 m 432 1126 q 419 1083 432 1103 q 382 1051 406 1063 q 331 1040 358 1040 q 279 1049 300 1040 q 249 1074 258 1057 q 235 1109 239 1090 q 231 1156 231 1128 q 266 1265 231 1218 q 365 1311 301 1311 q 601 1226 478 1311 q 631 1286 601 1261 q 703 1311 661 1311 q 782 1283 761 1311 q 803 1197 803 1254 q 767 1088 803 1136 q 668 1040 732 1040 q 588 1053 626 1040 q 525 1083 549 1067 q 476 1113 501 1099 q 432 1126 451 1126 z "},"ũ":{"ha":868,"x_min":63,"x_max":797,"o":"m 368 293 q 429 214 368 214 q 479 243 460 214 q 499 318 499 272 l 499 504 q 508 568 499 539 q 536 618 518 597 q 581 650 554 639 q 639 661 607 661 q 756 628 714 661 q 797 508 797 596 l 797 147 q 763 31 797 63 q 640 -1 728 -1 q 510 69 535 -1 q 249 1 404 1 q 107 78 150 1 q 64 332 64 156 q 68 474 64 419 q 81 569 72 529 q 109 628 90 608 q 153 656 128 647 q 221 664 179 664 q 333 635 299 664 q 367 547 367 606 l 368 293 m 374 851 q 345 793 374 817 q 276 769 317 769 q 216 785 238 769 q 188 822 194 800 q 182 879 182 844 q 190 933 182 907 q 214 980 199 958 q 254 1015 229 1001 q 310 1028 279 1028 q 417 1007 361 1028 q 504 967 474 986 l 535 946 q 563 1004 535 981 q 632 1028 590 1028 q 691 1013 669 1028 q 719 976 713 999 q 726 919 726 954 q 713 849 726 882 q 669 792 699 815 q 599 769 639 769 q 504 790 549 769 q 427 831 460 810 q 374 851 394 851 z "},"Ū":{"ha":1024,"x_min":81,"x_max":936,"o":"m 936 785 l 936 371 q 838 80 936 168 q 508 -8 740 -8 q 184 86 288 -8 q 81 371 81 181 l 81 785 q 124 905 81 858 q 235 951 168 951 q 359 921 317 951 q 401 797 401 890 l 401 344 q 429 253 403 279 q 508 226 456 226 q 594 256 574 226 q 615 344 615 286 l 615 799 q 627 878 615 846 q 663 925 639 910 q 713 946 688 940 q 775 951 739 951 q 896 913 856 951 q 936 785 936 874 m 238 1165 q 276 1255 238 1226 q 372 1283 314 1283 l 661 1283 q 768 1251 738 1283 q 799 1163 799 1219 q 789 1116 799 1136 q 762 1082 779 1096 q 722 1061 744 1068 q 672 1054 699 1054 l 392 1054 q 274 1078 310 1054 q 238 1165 238 1101 z "},"ū":{"ha":868,"x_min":63,"x_max":797,"o":"m 368 293 q 429 214 368 214 q 479 243 460 214 q 499 318 499 272 l 499 504 q 508 568 499 539 q 536 618 518 597 q 581 650 554 639 q 639 661 607 661 q 756 628 714 661 q 797 508 797 596 l 797 147 q 763 31 797 63 q 640 -1 728 -1 q 510 69 535 -1 q 249 1 404 1 q 107 78 150 1 q 64 332 64 156 q 68 474 64 419 q 81 569 72 529 q 109 628 90 608 q 153 656 128 647 q 221 664 179 664 q 333 635 299 664 q 367 547 367 606 l 368 293 m 188 867 q 222 948 188 922 q 308 974 256 974 l 568 974 q 644 958 615 974 q 683 920 672 943 q 693 864 693 897 q 660 792 693 818 q 579 767 628 767 l 326 767 q 248 775 276 767 q 203 806 219 783 q 188 867 188 828 z "},"Ŭ":{"ha":1024,"x_min":81,"x_max":936,"o":"m 936 785 l 936 371 q 838 80 936 168 q 508 -8 740 -8 q 184 86 288 -8 q 81 371 81 181 l 81 785 q 124 905 81 858 q 235 951 168 951 q 359 921 317 951 q 401 797 401 890 l 401 344 q 429 253 403 279 q 508 226 456 226 q 594 256 574 226 q 615 344 615 286 l 615 799 q 627 878 615 846 q 663 925 639 910 q 713 946 688 940 q 775 951 739 951 q 896 913 856 951 q 936 785 936 874 m 519 1222 q 572 1294 572 1222 q 682 1368 572 1368 q 808 1265 808 1368 q 519 1042 808 1042 q 428 1048 469 1042 q 349 1070 386 1054 q 288 1111 313 1086 q 248 1176 263 1136 q 233 1265 233 1215 q 358 1368 233 1368 q 469 1294 469 1368 q 481 1240 469 1257 q 519 1222 492 1222 z "},"ŭ":{"ha":868,"x_min":63,"x_max":797,"o":"m 368 293 q 429 214 368 214 q 479 243 460 214 q 499 318 499 272 l 499 504 q 508 568 499 539 q 536 618 518 597 q 581 650 554 639 q 639 661 607 661 q 756 628 714 661 q 797 508 797 596 l 797 147 q 763 31 797 63 q 640 -1 728 -1 q 510 69 535 -1 q 249 1 404 1 q 107 78 150 1 q 64 332 64 156 q 68 474 64 419 q 81 569 72 529 q 109 628 90 608 q 153 656 128 647 q 221 664 179 664 q 333 635 299 664 q 367 547 367 606 l 368 293 m 453 921 q 500 986 500 921 q 600 1053 500 1053 q 713 960 713 1053 q 453 758 713 758 q 264 804 332 758 q 196 960 196 850 q 308 1053 196 1053 q 408 986 408 1053 q 418 937 408 953 q 453 921 428 921 z "},"Ů":{"ha":1024,"x_min":81,"x_max":936,"o":"m 936 785 l 936 371 q 838 80 936 168 q 508 -8 740 -8 q 184 86 288 -8 q 81 371 81 181 l 81 785 q 124 905 81 858 q 235 951 168 951 q 359 921 317 951 q 401 797 401 890 l 401 344 q 429 253 403 279 q 508 226 456 226 q 594 256 574 226 q 615 344 615 286 l 615 799 q 627 878 615 846 q 663 925 639 910 q 713 946 688 940 q 775 951 739 951 q 896 913 856 951 q 936 785 936 874 m 546 1221 q 535 1272 546 1250 q 504 1294 524 1294 q 471 1272 483 1294 q 458 1222 458 1250 q 470 1172 458 1193 q 504 1150 482 1150 q 528 1160 518 1150 q 542 1187 538 1171 q 546 1221 546 1203 m 503 1031 q 388 1052 439 1031 q 306 1117 338 1074 q 275 1219 275 1161 q 339 1360 275 1308 q 503 1413 403 1413 q 666 1360 603 1413 q 729 1219 729 1308 q 665 1081 729 1132 q 503 1031 601 1031 z "},"ů":{"ha":868,"x_min":63,"x_max":797,"o":"m 368 293 q 429 214 368 214 q 479 243 460 214 q 499 318 499 272 l 499 504 q 508 568 499 539 q 536 618 518 597 q 581 650 554 639 q 639 661 607 661 q 756 628 714 661 q 797 508 797 596 l 797 147 q 763 31 797 63 q 640 -1 728 -1 q 510 69 535 -1 q 249 1 404 1 q 107 78 150 1 q 64 332 64 156 q 68 474 64 419 q 81 569 72 529 q 109 628 90 608 q 153 656 128 647 q 221 664 179 664 q 333 635 299 664 q 367 547 367 606 l 368 293 m 477 917 q 482 927 477 917 q 488 967 488 938 q 477 1018 488 996 q 446 1040 467 1040 q 422 1028 432 1040 q 406 1001 411 1017 q 400 967 400 985 q 412 917 400 939 q 445 896 424 896 q 477 917 467 896 m 607 827 q 575 802 607 827 q 445 776 543 776 q 282 827 347 776 q 217 965 217 878 q 281 1106 217 1054 q 444 1158 344 1158 q 608 1106 544 1158 q 671 965 671 1054 q 607 827 671 878 z "},"Ű":{"ha":1024,"x_min":81,"x_max":936,"o":"m 936 785 l 936 371 q 838 80 936 168 q 508 -8 740 -8 q 184 86 288 -8 q 81 371 81 181 l 81 785 q 124 905 81 858 q 235 951 168 951 q 359 921 317 951 q 401 797 401 890 l 401 344 q 429 253 403 279 q 508 226 456 226 q 594 256 574 226 q 615 344 615 286 l 615 799 q 627 878 615 846 q 663 925 639 910 q 713 946 688 940 q 775 951 739 951 q 896 913 856 951 q 936 785 936 874 m 410 1347 q 490 1315 449 1347 q 531 1238 531 1282 q 490 1156 531 1199 l 374 1046 q 363 1035 372 1043 q 349 1025 353 1028 q 337 1017 346 1022 q 322 1009 328 1011 q 308 1005 317 1007 q 289 1003 299 1003 q 235 1025 260 1003 q 210 1076 210 1047 q 211 1090 210 1083 q 215 1102 213 1096 q 221 1116 217 1108 q 228 1129 225 1124 q 235 1144 231 1135 q 243 1158 240 1153 q 305 1271 279 1231 q 358 1331 331 1311 q 410 1347 383 1347 m 776 1347 q 856 1315 815 1347 q 897 1238 897 1282 q 857 1156 897 1199 l 740 1046 q 731 1037 738 1043 q 720 1028 724 1031 q 710 1020 717 1025 q 697 1013 703 1015 q 685 1008 692 1011 q 671 1003 678 1004 q 656 1003 664 1003 q 601 1025 626 1003 q 576 1076 576 1047 q 578 1090 576 1083 q 581 1102 579 1096 q 588 1116 583 1108 q 594 1129 592 1124 q 602 1144 597 1135 q 610 1158 607 1153 q 672 1271 646 1231 q 725 1331 697 1311 q 776 1347 750 1347 z "},"ű":{"ha":868,"x_min":63,"x_max":800,"o":"m 368 293 q 429 214 368 214 q 479 243 460 214 q 499 318 499 272 l 499 504 q 508 568 499 539 q 536 618 518 597 q 581 650 554 639 q 639 661 607 661 q 756 628 714 661 q 797 508 797 596 l 797 147 q 763 31 797 63 q 640 -1 728 -1 q 510 69 535 -1 q 249 1 404 1 q 107 78 150 1 q 64 332 64 156 q 68 474 64 419 q 81 569 72 529 q 109 628 90 608 q 153 656 128 647 q 221 664 179 664 q 333 635 299 664 q 367 547 367 606 l 368 293 m 313 1060 q 392 1027 351 1060 q 432 951 432 994 q 393 869 432 911 l 276 758 q 266 749 274 756 q 255 740 258 743 q 245 733 251 738 q 233 726 239 728 q 221 721 228 724 q 206 717 214 718 q 192 715 199 715 q 137 738 161 715 q 113 790 113 760 q 114 803 113 796 q 119 821 115 811 q 127 837 124 831 q 137 855 131 843 q 144 871 143 867 q 208 983 182 943 q 261 1043 233 1024 q 313 1060 285 1060 m 679 1060 q 758 1027 718 1060 q 799 951 799 994 q 760 869 799 911 l 643 758 q 631 749 640 757 q 619 738 622 740 q 606 729 615 735 q 591 722 597 724 q 576 717 585 719 q 558 715 567 715 q 503 738 528 715 q 479 790 479 760 q 481 803 479 796 q 486 821 482 811 q 494 837 490 831 q 503 855 497 843 q 511 871 510 867 q 574 983 549 943 q 628 1043 600 1024 q 679 1060 651 1060 z "},"Ų":{"ha":1024,"x_min":81,"x_max":1010,"o":"m 936 785 l 936 371 q 914 202 936 272 q 844 86 892 132 q 835 65 840 76 q 827 44 831 54 q 820 23 824 33 q 813 2 817 13 q 808 -19 810 -8 q 803 -38 806 -29 q 799 -56 801 -47 q 797 -71 797 -64 q 795 -84 796 -78 q 794 -94 794 -90 q 806 -131 794 -115 q 835 -147 818 -147 q 879 -126 853 -147 q 928 -104 906 -104 q 983 -133 956 -104 q 1010 -193 1010 -162 q 994 -244 1010 -219 q 904 -317 967 -293 q 788 -342 842 -342 q 643 -292 704 -342 q 582 -161 582 -242 q 594 -83 582 -124 q 631 -1 607 -42 q 508 -8 576 -8 q 184 86 288 -8 q 81 371 81 181 l 81 785 q 124 905 81 858 q 235 951 168 951 q 359 921 317 951 q 401 797 401 890 l 401 344 q 429 253 403 279 q 508 226 456 226 q 594 256 574 226 q 615 344 615 286 l 615 799 q 627 878 615 846 q 663 925 639 910 q 713 946 688 940 q 775 951 739 951 q 896 913 856 951 q 936 785 936 874 z "},"ų":{"ha":935,"x_min":63,"x_max":950,"o":"m 368 293 q 429 214 368 214 q 479 243 460 214 q 499 318 499 272 l 499 504 q 508 568 499 539 q 536 618 518 597 q 581 650 554 639 q 639 661 607 661 q 756 628 714 661 q 797 508 797 596 l 797 147 q 763 31 797 64 q 735 -94 735 -49 q 747 -131 735 -115 q 775 -147 758 -147 q 819 -126 793 -147 q 868 -104 846 -104 q 923 -133 896 -104 q 950 -193 950 -162 q 935 -244 950 -219 q 844 -317 907 -293 q 728 -342 782 -342 q 583 -292 644 -342 q 522 -161 522 -242 q 575 7 522 -82 q 510 69 526 21 q 249 1 404 1 q 107 78 150 1 q 64 332 64 156 q 68 474 64 419 q 81 569 72 529 q 109 628 90 608 q 153 656 128 647 q 221 664 179 664 q 333 635 299 664 q 367 547 367 606 l 368 293 z "},"Ÿ":{"ha":988,"x_min":58,"x_max":936,"o":"m 653 208 q 633 85 653 132 q 579 19 614 39 q 489 0 544 0 q 371 44 408 0 q 332 199 333 88 l 331 424 l 117 674 q 58 789 58 740 q 117 910 58 865 q 215 951 172 951 q 322 897 275 951 l 492 700 l 633 865 q 785 950 704 950 q 878 917 844 950 q 935 807 935 860 q 915 745 935 778 q 853 661 896 713 l 653 417 l 653 208 m 522 1143 q 560 1216 522 1188 q 667 1244 597 1244 q 813 1143 813 1244 q 775 1064 813 1086 q 667 1042 738 1042 q 563 1066 604 1042 q 522 1143 522 1090 m 188 1143 q 225 1216 188 1188 q 332 1244 263 1244 q 478 1143 478 1244 q 441 1064 478 1086 q 332 1042 404 1042 q 228 1066 269 1042 q 188 1143 188 1090 z "},"Ź":{"ha":1051,"x_min":82,"x_max":974,"o":"m 832 225 q 943 199 913 225 q 974 115 974 174 q 929 22 974 44 q 775 0 885 0 l 254 0 q 138 52 193 0 q 83 174 83 104 q 88 233 83 207 q 99 276 93 258 q 123 317 106 293 q 153 356 140 342 q 197 403 165 369 l 551 725 l 269 725 q 135 752 176 725 q 93 843 93 779 q 110 909 93 885 q 156 942 128 933 q 228 951 185 951 l 796 951 q 869 937 838 951 q 918 899 901 922 q 943 854 935 876 q 951 813 951 832 q 949 772 951 790 q 945 740 947 754 q 937 713 943 726 q 926 691 931 699 q 910 669 922 683 q 892 649 899 656 q 869 626 886 643 q 843 599 853 608 l 438 225 l 832 225 m 603 1357 q 676 1376 636 1376 q 764 1329 731 1376 q 797 1229 797 1282 q 701 1115 797 1151 l 514 1053 q 444 1040 476 1040 q 390 1053 414 1040 q 353 1086 365 1065 q 340 1132 340 1107 q 353 1181 340 1158 q 380 1213 367 1203 q 419 1240 393 1224 q 428 1246 425 1244 l 603 1357 z "},"ź":{"ha":774,"x_min":50,"x_max":731,"o":"m 628 175 q 708 151 686 175 q 729 75 729 128 q 698 15 729 29 q 588 0 667 0 l 178 0 q 91 33 131 0 q 51 118 51 65 q 67 209 51 176 q 136 296 82 242 l 318 488 l 217 488 q 108 508 142 488 q 75 576 75 529 q 99 645 75 628 q 197 663 122 663 l 619 663 q 701 634 671 663 q 731 556 731 606 q 718 483 731 508 q 653 399 706 458 l 443 174 l 628 175 m 450 1058 q 517 1076 481 1076 q 595 1033 565 1076 q 625 942 625 990 q 539 839 625 872 l 369 782 q 306 771 335 771 q 256 782 278 771 q 224 812 235 793 q 213 854 213 831 q 224 898 213 878 q 248 928 236 918 q 283 953 260 938 q 290 958 288 956 l 450 1058 z "},"Ż":{"ha":1051,"x_min":82,"x_max":974,"o":"m 832 225 q 943 199 913 225 q 974 115 974 174 q 929 22 974 44 q 775 0 885 0 l 254 0 q 138 52 193 0 q 83 174 83 104 q 88 233 83 207 q 99 276 93 258 q 123 317 106 293 q 153 356 140 342 q 197 403 165 369 l 551 725 l 269 725 q 135 752 176 725 q 93 843 93 779 q 110 909 93 885 q 156 942 128 933 q 228 951 185 951 l 796 951 q 869 937 838 951 q 918 899 901 922 q 943 854 935 876 q 951 813 951 832 q 949 772 951 790 q 945 740 947 754 q 937 713 943 726 q 926 691 931 699 q 910 669 922 683 q 892 649 899 656 q 869 626 886 643 q 843 599 853 608 l 438 225 l 832 225 m 390 1149 q 430 1224 390 1194 q 542 1254 469 1254 q 693 1149 693 1254 q 654 1066 693 1089 q 542 1043 615 1043 q 433 1068 476 1043 q 390 1149 390 1093 z "},"ż":{"ha":774,"x_min":50,"x_max":731,"o":"m 628 175 q 708 151 686 175 q 729 75 729 128 q 698 15 729 29 q 588 0 667 0 l 178 0 q 91 33 131 0 q 51 118 51 65 q 67 209 51 176 q 136 296 82 242 l 318 488 l 217 488 q 108 508 142 488 q 75 576 75 529 q 99 645 75 628 q 197 663 122 663 l 619 663 q 701 634 671 663 q 731 556 731 606 q 718 483 731 508 q 653 399 706 458 l 443 174 l 628 175 m 257 861 q 297 937 257 907 q 408 967 336 967 q 560 861 560 967 q 521 778 560 801 q 408 756 482 756 q 300 781 343 756 q 257 861 257 806 z "},"Ž":{"ha":1051,"x_min":82,"x_max":974,"o":"m 832 225 q 943 199 913 225 q 974 115 974 174 q 929 22 974 44 q 775 0 885 0 l 254 0 q 138 52 193 0 q 83 174 83 104 q 88 233 83 207 q 99 276 93 258 q 123 317 106 293 q 153 356 140 342 q 197 403 165 369 l 551 725 l 269 725 q 135 752 176 725 q 93 843 93 779 q 110 909 93 885 q 156 942 128 933 q 228 951 185 951 l 796 951 q 869 937 838 951 q 918 899 901 922 q 943 854 935 876 q 951 813 951 832 q 949 772 951 790 q 945 740 947 754 q 937 713 943 726 q 926 691 931 699 q 910 669 922 683 q 892 649 899 656 q 869 626 886 643 q 843 599 853 608 l 438 225 l 832 225 m 744 1153 q 703 1113 719 1128 q 656 1078 686 1099 q 592 1047 626 1057 q 519 1038 558 1038 q 283 1168 396 1038 q 269 1185 281 1172 q 252 1204 257 1199 q 238 1222 247 1210 q 226 1243 229 1235 q 219 1264 222 1251 q 215 1289 215 1276 q 231 1343 215 1318 q 274 1383 247 1368 q 333 1397 301 1397 q 426 1346 378 1397 q 453 1317 436 1336 q 479 1289 471 1297 q 499 1273 488 1281 q 521 1265 511 1265 q 531 1267 526 1265 q 540 1271 536 1268 q 551 1278 544 1274 q 562 1287 557 1282 q 574 1299 567 1292 q 588 1313 582 1307 q 605 1331 594 1319 q 624 1351 615 1342 q 711 1401 671 1401 q 791 1367 754 1401 q 828 1289 828 1333 q 744 1153 828 1236 z "},"ž":{"ha":774,"x_min":50,"x_max":731,"o":"m 628 175 q 708 151 686 175 q 729 75 729 128 q 698 15 729 29 q 588 0 667 0 l 178 0 q 91 33 131 0 q 51 118 51 65 q 67 209 51 176 q 136 296 82 242 l 318 488 l 217 488 q 108 508 142 488 q 75 576 75 529 q 99 645 75 628 q 197 663 122 663 l 619 663 q 701 634 671 663 q 731 556 731 606 q 718 483 731 508 q 653 399 706 458 l 443 174 l 628 175 m 610 878 q 572 842 586 854 q 530 810 557 829 q 472 783 503 792 q 407 774 442 774 q 194 892 296 774 q 181 907 192 894 q 166 924 169 919 q 154 940 163 928 q 142 959 146 951 q 136 978 139 967 q 133 999 133 989 q 165 1068 133 1039 q 239 1097 196 1097 q 324 1051 279 1097 q 347 1024 332 1042 q 370 999 363 1007 q 388 985 378 992 q 408 979 399 979 q 417 981 413 979 q 426 983 422 982 q 435 990 429 985 q 444 998 440 994 q 456 1009 449 1001 q 468 1022 463 1017 q 483 1038 474 1028 q 500 1056 493 1047 q 579 1100 543 1100 q 651 1070 618 1100 q 683 999 683 1040 q 610 878 683 951 z "},"ƒ":{"ha":692,"x_min":3,"x_max":686,"o":"m 193 208 l 193 428 l 128 428 q 35 510 35 428 q 54 574 35 551 q 128 597 74 597 l 193 597 l 193 639 q 248 878 196 807 q 442 950 300 950 q 622 903 557 950 q 686 807 686 856 q 669 770 686 786 q 619 754 651 754 q 524 731 551 754 q 494 632 494 707 l 494 597 l 558 597 q 633 578 611 597 q 656 513 656 560 q 634 445 656 463 q 558 428 613 428 l 494 428 l 494 192 q 439 -49 490 22 q 246 -121 388 -121 q 66 -74 129 -121 q 3 22 3 -28 q 20 58 3 43 q 69 74 38 74 q 165 97 138 74 q 193 208 193 122 z "}}}
